<?xml version="1.0" encoding="us-ascii" standalone="no"?><svg xmlns="http://www.w3.org/2000/svg" xmlns:xlink="http://www.w3.org/1999/xlink" contentStyleType="text/css" height="162px" preserveAspectRatio="none" style="width:754px;height:162px;background:#FFFFFF;" version="1.1" viewBox="0 0 754 162" width="754px" zoomAndPan="magnify"><defs/><g><rect fill="#F1F1F1" height="81.1875" rx="5" ry="5" style="stroke:#F1F1F1;stroke-width:1.5;" width="159" x="10" y="10"/><text fill="#000000" font-family="sans-serif" font-size="14" font-weight="bold" lengthAdjust="spacing" textLength="86" x="15" y="24.9951">apiVersion</text><text fill="#000000" font-family="sans-serif" font-size="14" lengthAdjust="spacing" textLength="17" x="111" y="24.9951">v1</text><line style="stroke:#000000;stroke-width:1.0;" x1="106" x2="106" y1="10" y2="30.2969"/><line style="stroke:#000000;stroke-width:1.0;" x1="10" x2="169" y1="30.2969" y2="30.2969"/><text fill="#000000" font-family="sans-serif" font-size="14" font-weight="bold" lengthAdjust="spacing" textLength="34" x="15" y="45.292">kind</text><text fill="#000000" font-family="sans-serif" font-size="14" lengthAdjust="spacing" textLength="53" x="111" y="45.292">Service</text><line style="stroke:#000000;stroke-width:1.0;" x1="106" x2="106" y1="30.2969" y2="50.5938"/><line style="stroke:#000000;stroke-width:1.0;" x1="10" x2="169" y1="50.5938" y2="50.5938"/><text fill="#000000" font-family="sans-serif" font-size="14" font-weight="bold" lengthAdjust="spacing" textLength="80" x="15" y="65.5889">metadata</text><text fill="#000000" font-family="sans-serif" font-size="14" lengthAdjust="spacing" textLength="12" x="111" y="65.5889">&#160;&#160;&#160;</text><line style="stroke:#000000;stroke-width:1.0;" x1="106" x2="106" y1="50.5938" y2="70.8906"/><line style="stroke:#000000;stroke-width:1.0;" x1="10" x2="169" y1="70.8906" y2="70.8906"/><text fill="#000000" font-family="sans-serif" font-size="14" font-weight="bold" lengthAdjust="spacing" textLength="37" x="15" y="85.8857">spec</text><text fill="#000000" font-family="sans-serif" font-size="14" lengthAdjust="spacing" textLength="12" x="111" y="85.8857">&#160;&#160;&#160;</text><line style="stroke:#000000;stroke-width:1.0;" x1="106" x2="106" y1="70.8906" y2="91.1875"/><rect fill="none" height="81.1875" rx="5" ry="5" style="stroke:#000000;stroke-width:1.5;" width="159" x="10" y="10"/><rect fill="#F1F1F1" height="20.2969" rx="5" ry="5" style="stroke:#F1F1F1;stroke-width:1.5;" width="151" x="221.5" y="31.4453"/><text fill="#000000" font-family="sans-serif" font-size="14" font-weight="bold" lengthAdjust="spacing" textLength="44" x="226.5" y="46.4404">name</text><text fill="#000000" font-family="sans-serif" font-size="14" lengthAdjust="spacing" textLength="87" x="280.5" y="46.4404">avocado-api</text><line style="stroke:#000000;stroke-width:1.0;" x1="275.5" x2="275.5" y1="31.4453" y2="51.7422"/><rect fill="none" height="20.2969" rx="5" ry="5" style="stroke:#000000;stroke-width:1.5;" width="151" x="221.5" y="31.4453"/><rect fill="#F1F1F1" height="60.8906" rx="5" ry="5" style="stroke:#F1F1F1;stroke-width:1.5;" width="182" x="206" y="70.0938"/><text fill="#000000" font-family="sans-serif" font-size="14" font-weight="bold" lengthAdjust="spacing" textLength="66" x="211" y="85.0889">selector</text><text fill="#000000" font-family="sans-serif" font-size="14" lengthAdjust="spacing" textLength="12" x="287" y="85.0889">&#160;&#160;&#160;</text><line style="stroke:#000000;stroke-width:1.0;" x1="282" x2="282" y1="70.0938" y2="90.3906"/><line style="stroke:#000000;stroke-width:1.0;" x1="206" x2="388" y1="90.3906" y2="90.3906"/><text fill="#000000" font-family="sans-serif" font-size="14" font-weight="bold" lengthAdjust="spacing" textLength="44" x="211" y="105.3857">ports</text><text fill="#000000" font-family="sans-serif" font-size="14" lengthAdjust="spacing" textLength="12" x="287" y="105.3857">&#160;&#160;&#160;</text><line style="stroke:#000000;stroke-width:1.0;" x1="282" x2="282" y1="90.3906" y2="110.6875"/><line style="stroke:#000000;stroke-width:1.0;" x1="206" x2="388" y1="110.6875" y2="110.6875"/><text fill="#000000" font-family="sans-serif" font-size="14" font-weight="bold" lengthAdjust="spacing" textLength="36" x="211" y="125.6826">type</text><text fill="#000000" font-family="sans-serif" font-size="14" lengthAdjust="spacing" textLength="96" x="287" y="125.6826">LoadBalancer</text><line style="stroke:#000000;stroke-width:1.0;" x1="282" x2="282" y1="110.6875" y2="130.9844"/><rect fill="none" height="60.8906" rx="5" ry="5" style="stroke:#000000;stroke-width:1.5;" width="182" x="206" y="70.0938"/><rect fill="#F1F1F1" height="20.2969" rx="5" ry="5" style="stroke:#F1F1F1;stroke-width:1.5;" width="137" x="425" y="61.4453"/><text fill="#000000" font-family="sans-serif" font-size="14" font-weight="bold" lengthAdjust="spacing" textLength="30" x="430" y="76.4404">app</text><text fill="#000000" font-family="sans-serif" font-size="14" lengthAdjust="spacing" textLength="87" x="470" y="76.4404">avocado-api</text><line style="stroke:#000000;stroke-width:1.0;" x1="465" x2="465" y1="61.4453" y2="81.7422"/><rect fill="none" height="20.2969" rx="5" ry="5" style="stroke:#000000;stroke-width:1.5;" width="137" x="425" y="61.4453"/><rect fill="#F1F1F1" height="20.2969" rx="5" ry="5" style="stroke:#F1F1F1;stroke-width:1.5;" width="22" x="482.5" y="99.4453"/><text fill="#000000" font-family="sans-serif" font-size="14" lengthAdjust="spacing" textLength="12" x="487.5" y="114.4404">&#160;&#160;&#160;</text><rect fill="none" height="20.2969" rx="5" ry="5" style="stroke:#000000;stroke-width:1.5;" width="22" x="482.5" y="99.4453"/><rect fill="#F1F1F1" height="81.1875" rx="5" ry="5" style="stroke:#F1F1F1;stroke-width:1.5;" width="143" x="599" y="69"/><text fill="#000000" font-family="sans-serif" font-size="14" font-weight="bold" lengthAdjust="spacing" textLength="44" x="604" y="83.9951">name</text><text fill="#000000" font-family="sans-serif" font-size="14" lengthAdjust="spacing" textLength="33" x="701" y="83.9951">http</text><line style="stroke:#000000;stroke-width:1.0;" x1="696" x2="696" y1="69" y2="89.2969"/><line style="stroke:#000000;stroke-width:1.0;" x1="599" x2="742" y1="89.2969" y2="89.2969"/><text fill="#000000" font-family="sans-serif" font-size="14" font-weight="bold" lengthAdjust="spacing" textLength="69" x="604" y="104.292">protocol</text><text fill="#000000" font-family="sans-serif" font-size="14" lengthAdjust="spacing" textLength="28" x="701" y="104.292">TCP</text><line style="stroke:#000000;stroke-width:1.0;" x1="696" x2="696" y1="89.2969" y2="109.5938"/><line style="stroke:#000000;stroke-width:1.0;" x1="599" x2="742" y1="109.5938" y2="109.5938"/><text fill="#000000" font-family="sans-serif" font-size="14" font-weight="bold" lengthAdjust="spacing" textLength="35" x="604" y="124.5889">port</text><text fill="#000000" font-family="sans-serif" font-size="14" lengthAdjust="spacing" textLength="17" x="701" y="124.5889">80</text><line style="stroke:#000000;stroke-width:1.0;" x1="696" x2="696" y1="109.5938" y2="129.8906"/><line style="stroke:#000000;stroke-width:1.0;" x1="599" x2="742" y1="129.8906" y2="129.8906"/><text fill="#000000" font-family="sans-serif" font-size="14" font-weight="bold" lengthAdjust="spacing" textLength="87" x="604" y="144.8857">targetPort</text><text fill="#000000" font-family="sans-serif" font-size="14" lengthAdjust="spacing" textLength="36" x="701" y="144.8857">5000</text><line style="stroke:#000000;stroke-width:1.0;" x1="696" x2="696" y1="129.8906" y2="150.1875"/><rect fill="none" height="81.1875" rx="5" ry="5" style="stroke:#000000;stroke-width:1.5;" width="143" x="599" y="69"/><path d="M157,60.5938 L170,60.5938 C194.3422,60.5938 221.0299,57.1106 243.5921,53.1271 " fill="none" style="stroke:#000000;stroke-width:1.0;stroke-dasharray:3.0,3.0;"/><path d="M244.1384,56.1207 L245.8373,52.7173 L243.0458,50.1334 L251.0761,51.7612 L244.1384,56.1207 " fill="#000000" style="stroke:#000000;stroke-width:1.0;"/><ellipse cx="157" cy="60.5938" fill="#000000" rx="3" ry="3" style="stroke:#000000;stroke-width:1.0;"/><path d="M376,80.5938 L389,80.5938 C398.2951,80.5938 408.0402,80.2325 417.6819,79.6547 " fill="none" style="stroke:#000000;stroke-width:1.0;stroke-dasharray:3.0,3.0;"/><path d="M417.8847,82.7346 L419.9918,79.5026 L417.4791,76.5749 L425.3816,79.1477 L417.8847,82.7346 " fill="#000000" style="stroke:#000000;stroke-width:1.0;"/><ellipse cx="376" cy="80.5938" fill="#000000" rx="3" ry="3" style="stroke:#000000;stroke-width:1.0;"/><path d="M492.0096,109.5938 L505.0096,109.5938 C522.5006,109.5938 558.111,109.5938 591.786,109.5938 " fill="none" style="stroke:#000000;stroke-width:1.0;stroke-dasharray:3.0,3.0;"/><path d="M591.786,112.6332 L594.0656,109.5938 L591.786,106.5543 L599.3846,109.5938 L591.786,112.6332 " fill="#000000" style="stroke:#000000;stroke-width:1.0;"/><ellipse cx="492.0096" cy="109.5938" fill="#000000" rx="3" ry="3" style="stroke:#000000;stroke-width:1.0;"/><path d="M376,100.5938 L389,100.5938 C419.4233,100.5938 454.667,104.4638 475.3271,107.1283 " fill="none" style="stroke:#000000;stroke-width:1.0;stroke-dasharray:3.0,3.0;"/><path d="M474.9193,110.1916 L477.6246,107.4342 L475.7349,104.065 L482.9853,108.1477 L474.9193,110.1916 " fill="#000000" style="stroke:#000000;stroke-width:1.0;"/><ellipse cx="376" cy="100.5938" fill="#000000" rx="3" ry="3" style="stroke:#000000;stroke-width:1.0;"/><path d="M157,80.5938 L170,80.5938 C179.2986,80.5938 188.935,81.1275 198.5507,82.0206 " fill="none" style="stroke:#000000;stroke-width:1.0;stroke-dasharray:3.0,3.0;"/><path d="M198.2347,85.1007 L200.8608,82.2576 L198.8667,78.9404 L206.251,82.8105 L198.2347,85.1007 " fill="#000000" style="stroke:#000000;stroke-width:1.0;"/><ellipse cx="157" cy="80.5938" fill="#000000" rx="3" ry="3" style="stroke:#000000;stroke-width:1.0;"/><!--SRC=[LP3DRi8m48JlVeezmY4eq89GJWXAMw54YXhWlZZRr2BnMiuc5MzV9y2XD-ytC_lZJIlevOPDhT2PC_dMi4sWdwkhiMK21VdUQ58D2POec2W0YmqbW3rhB3aACTKwqeFIKarQs0zl07Jklmt0iPVshaQFFZyYRWH1zIoikKxWkCkVB2GIMCUFCcnRaUGZNCRnWENcGfkKiTnYZLQJLnkovNYJoWEHKvP2VpyDvhD5l7YPhIxXeENaPA-MVoreRfof2SGqD5MJZpo5bZkl2KhJYZUNJa9ugWxO8tnrTl0bC5IJOpQ5Ol-4iBUzyMmRig8Ev-nkWa-Mmh6CvjLhj3Ko_YnvE6VgZRwngoL4DPV6LWcSZk_HMgLegmwhC8Yisd4Ou6z1A_u0]--></g></svg>