<?xml version="1.0" encoding="us-ascii" standalone="no"?><svg xmlns="http://www.w3.org/2000/svg" xmlns:xlink="http://www.w3.org/1999/xlink" contentStyleType="text/css" height="477px" preserveAspectRatio="none" style="width:2052px;height:477px;background:#FFFFFF;" version="1.1" viewBox="0 0 2052 477" width="2052px" zoomAndPan="magnify"><defs/><g><rect fill="#F1F1F1" height="60.8906" rx="5" ry="5" style="stroke:#F1F1F1;stroke-width:1.5;" width="125" x="10" y="320.1616"/><text fill="#000000" font-family="sans-serif" font-size="14" font-weight="bold" lengthAdjust="spacing" textLength="59" x="15" y="335.1567">version</text><text fill="#000000" font-family="sans-serif" font-size="14" lengthAdjust="spacing" textLength="30" x="100" y="335.1567">'3.8'</text><line style="stroke:#000000;stroke-width:1.0;" x1="95" x2="95" y1="320.1616" y2="340.4585"/><line style="stroke:#000000;stroke-width:1.0;" x1="10" x2="135" y1="340.4585" y2="340.4585"/><text fill="#000000" font-family="sans-serif" font-size="14" font-weight="bold" lengthAdjust="spacing" textLength="66" x="15" y="355.4536">services</text><text fill="#000000" font-family="sans-serif" font-size="14" lengthAdjust="spacing" textLength="12" x="100" y="355.4536">&#160;&#160;&#160;</text><line style="stroke:#000000;stroke-width:1.0;" x1="95" x2="95" y1="340.4585" y2="360.7554"/><line style="stroke:#000000;stroke-width:1.0;" x1="10" x2="135" y1="360.7554" y2="360.7554"/><text fill="#000000" font-family="sans-serif" font-size="14" font-weight="bold" lengthAdjust="spacing" textLength="75" x="15" y="375.7505">networks</text><text fill="#000000" font-family="sans-serif" font-size="14" lengthAdjust="spacing" textLength="12" x="100" y="375.7505">&#160;&#160;&#160;</text><line style="stroke:#000000;stroke-width:1.0;" x1="95" x2="95" y1="360.7554" y2="381.0523"/><rect fill="none" height="60.8906" rx="5" ry="5" style="stroke:#000000;stroke-width:1.5;" width="125" x="10" y="320.1616"/><rect fill="#F1F1F1" height="40.5938" rx="5" ry="5" style="stroke:#F1F1F1;stroke-width:1.5;" width="87" x="178" y="301.1616"/><text fill="#000000" font-family="sans-serif" font-size="14" font-weight="bold" lengthAdjust="spacing" textLength="55" x="183" y="316.1567">mongo</text><text fill="#000000" font-family="sans-serif" font-size="14" lengthAdjust="spacing" textLength="12" x="248" y="316.1567">&#160;&#160;&#160;</text><line style="stroke:#000000;stroke-width:1.0;" x1="243" x2="243" y1="301.1616" y2="321.4585"/><line style="stroke:#000000;stroke-width:1.0;" x1="178" x2="265" y1="321.4585" y2="321.4585"/><text fill="#000000" font-family="sans-serif" font-size="14" font-weight="bold" lengthAdjust="spacing" textLength="30" x="183" y="336.4536">app</text><text fill="#000000" font-family="sans-serif" font-size="14" lengthAdjust="spacing" textLength="12" x="248" y="336.4536">&#160;&#160;&#160;</text><line style="stroke:#000000;stroke-width:1.0;" x1="243" x2="243" y1="321.4585" y2="341.7554"/><rect fill="none" height="40.5938" rx="5" ry="5" style="stroke:#000000;stroke-width:1.5;" width="87" x="178" y="301.1616"/><rect fill="#F1F1F1" height="121.7813" rx="5" ry="5" style="stroke:#F1F1F1;stroke-width:1.5;" width="225" x="314" y="114.6616"/><text fill="#000000" font-family="sans-serif" font-size="14" font-weight="bold" lengthAdjust="spacing" textLength="49" x="319" y="129.6567">image</text><text fill="#000000" font-family="sans-serif" font-size="14" lengthAdjust="spacing" textLength="76" x="458" y="129.6567">mongo:4.4</text><line style="stroke:#000000;stroke-width:1.0;" x1="453" x2="453" y1="114.6616" y2="134.9585"/><line style="stroke:#000000;stroke-width:1.0;" x1="314" x2="539" y1="134.9585" y2="134.9585"/><text fill="#000000" font-family="sans-serif" font-size="14" font-weight="bold" lengthAdjust="spacing" textLength="129" x="319" y="149.9536">container_name</text><text fill="#000000" font-family="sans-serif" font-size="14" lengthAdjust="spacing" textLength="50" x="458" y="149.9536">mongo</text><line style="stroke:#000000;stroke-width:1.0;" x1="453" x2="453" y1="134.9585" y2="155.2554"/><line style="stroke:#000000;stroke-width:1.0;" x1="314" x2="539" y1="155.2554" y2="155.2554"/><text fill="#000000" font-family="sans-serif" font-size="14" font-weight="bold" lengthAdjust="spacing" textLength="44" x="319" y="170.2505">ports</text><text fill="#000000" font-family="sans-serif" font-size="14" lengthAdjust="spacing" textLength="12" x="458" y="170.2505">&#160;&#160;&#160;</text><line style="stroke:#000000;stroke-width:1.0;" x1="453" x2="453" y1="155.2554" y2="175.5523"/><line style="stroke:#000000;stroke-width:1.0;" x1="314" x2="539" y1="175.5523" y2="175.5523"/><text fill="#000000" font-family="sans-serif" font-size="14" font-weight="bold" lengthAdjust="spacing" textLength="102" x="319" y="190.5474">environment</text><text fill="#000000" font-family="sans-serif" font-size="14" lengthAdjust="spacing" textLength="12" x="458" y="190.5474">&#160;&#160;&#160;</text><line style="stroke:#000000;stroke-width:1.0;" x1="453" x2="453" y1="175.5523" y2="195.8491"/><line style="stroke:#000000;stroke-width:1.0;" x1="314" x2="539" y1="195.8491" y2="195.8491"/><text fill="#000000" font-family="sans-serif" font-size="14" font-weight="bold" lengthAdjust="spacing" textLength="67" x="319" y="210.8442">volumes</text><text fill="#000000" font-family="sans-serif" font-size="14" lengthAdjust="spacing" textLength="12" x="458" y="210.8442">&#160;&#160;&#160;</text><line style="stroke:#000000;stroke-width:1.0;" x1="453" x2="453" y1="195.8491" y2="216.146"/><line style="stroke:#000000;stroke-width:1.0;" x1="314" x2="539" y1="216.146" y2="216.146"/><text fill="#000000" font-family="sans-serif" font-size="14" font-weight="bold" lengthAdjust="spacing" textLength="75" x="319" y="231.1411">networks</text><text fill="#000000" font-family="sans-serif" font-size="14" lengthAdjust="spacing" textLength="12" x="458" y="231.1411">&#160;&#160;&#160;</text><line style="stroke:#000000;stroke-width:1.0;" x1="453" x2="453" y1="216.146" y2="236.4429"/><rect fill="none" height="121.7813" rx="5" ry="5" style="stroke:#000000;stroke-width:1.5;" width="225" x="314" y="114.6616"/><rect fill="#F1F1F1" height="20.2969" rx="5" ry="5" style="stroke:#F1F1F1;stroke-width:1.5;" width="117" x="1039.5" y="17.5132"/><text fill="#000000" font-family="sans-serif" font-size="14" lengthAdjust="spacing" textLength="107" x="1044.5" y="32.5083">"27017:27017"</text><rect fill="none" height="20.2969" rx="5" ry="5" style="stroke:#000000;stroke-width:1.5;" width="117" x="1039.5" y="17.5132"/><rect fill="#F1F1F1" height="121.7813" rx="5" ry="5" style="stroke:#F1F1F1;stroke-width:1.5;" width="532" x="832" y="55.6616"/><text fill="#000000" font-family="sans-serif" font-size="14" font-weight="bold" lengthAdjust="spacing" textLength="214" x="837" y="70.6567">MONGO_INITDB_DATABASE</text><text fill="#000000" font-family="sans-serif" font-size="14" lengthAdjust="spacing" textLength="85" x="1119" y="70.6567">avocado_db</text><line style="stroke:#000000;stroke-width:1.0;" x1="1114" x2="1114" y1="55.6616" y2="75.9585"/><line style="stroke:#000000;stroke-width:1.0;" x1="832" x2="1364" y1="75.9585" y2="75.9585"/><text fill="#000000" font-family="sans-serif" font-size="14" font-weight="bold" lengthAdjust="spacing" textLength="268" x="837" y="90.9536">MONGO_INITDB_ROOT_USERNAME</text><text fill="#000000" font-family="sans-serif" font-size="14" lengthAdjust="spacing" textLength="235" x="1119" y="90.9536">${MONGODB_ROOT_USERNAME}</text><line style="stroke:#000000;stroke-width:1.0;" x1="1114" x2="1114" y1="75.9585" y2="96.2554"/><line style="stroke:#000000;stroke-width:1.0;" x1="832" x2="1364" y1="96.2554" y2="96.2554"/><text fill="#000000" font-family="sans-serif" font-size="14" font-weight="bold" lengthAdjust="spacing" textLength="272" x="837" y="111.2505">MONGO_INITDB_ROOT_PASSWORD</text><text fill="#000000" font-family="sans-serif" font-size="14" lengthAdjust="spacing" textLength="240" x="1119" y="111.2505">${MONGODB_ROOT_PASSWORD}</text><line style="stroke:#000000;stroke-width:1.0;" x1="1114" x2="1114" y1="96.2554" y2="116.5523"/><line style="stroke:#000000;stroke-width:1.0;" x1="832" x2="1364" y1="116.5523" y2="116.5523"/><text fill="#000000" font-family="sans-serif" font-size="14" font-weight="bold" lengthAdjust="spacing" textLength="215" x="837" y="131.5474">MONGO_INITDB_USERNAME</text><text fill="#000000" font-family="sans-serif" font-size="14" lengthAdjust="spacing" textLength="187" x="1119" y="131.5474">${MONGODB_USERNAME}</text><line style="stroke:#000000;stroke-width:1.0;" x1="1114" x2="1114" y1="116.5523" y2="136.8491"/><line style="stroke:#000000;stroke-width:1.0;" x1="832" x2="1364" y1="136.8491" y2="136.8491"/><text fill="#000000" font-family="sans-serif" font-size="14" font-weight="bold" lengthAdjust="spacing" textLength="219" x="837" y="151.8442">MONGO_INITDB_PASSWORD</text><text fill="#000000" font-family="sans-serif" font-size="14" lengthAdjust="spacing" textLength="192" x="1119" y="151.8442">${MONGODB_PASSWORD}</text><line style="stroke:#000000;stroke-width:1.0;" x1="1114" x2="1114" y1="136.8491" y2="157.146"/><line style="stroke:#000000;stroke-width:1.0;" x1="832" x2="1364" y1="157.146" y2="157.146"/><text fill="#000000" font-family="sans-serif" font-size="14" font-weight="bold" lengthAdjust="spacing" textLength="233" x="837" y="172.1411">MONGO_INITDB_EXTRA_ARGS</text><text fill="#000000" font-family="sans-serif" font-size="14" lengthAdjust="spacing" textLength="234" x="1119" y="172.1411">--authenticationDatabase admin</text><line style="stroke:#000000;stroke-width:1.0;" x1="1114" x2="1114" y1="157.146" y2="177.4429"/><rect fill="none" height="121.7813" rx="5" ry="5" style="stroke:#000000;stroke-width:1.5;" width="532" x="832" y="55.6616"/><rect fill="#F1F1F1" height="20.2969" rx="5" ry="5" style="stroke:#F1F1F1;stroke-width:1.5;" width="22" x="1087" y="195.5132"/><text fill="#000000" font-family="sans-serif" font-size="14" lengthAdjust="spacing" textLength="12" x="1092" y="210.5083">&#160;&#160;&#160;</text><rect fill="none" height="20.2969" rx="5" ry="5" style="stroke:#000000;stroke-width:1.5;" width="22" x="1087" y="195.5132"/><rect fill="#F1F1F1" height="20.2969" rx="5" ry="5" style="stroke:#F1F1F1;stroke-width:1.5;" width="389" x="1651" y="195.5132"/><text fill="#000000" font-family="sans-serif" font-size="14" font-weight="bold" lengthAdjust="spacing" textLength="162" x="1656" y="210.5083">./mongo-init-scripts</text><text fill="#000000" font-family="sans-serif" font-size="14" lengthAdjust="spacing" textLength="207" x="1828" y="210.5083">/docker-entrypoint-initdb.d/</text><line style="stroke:#000000;stroke-width:1.0;" x1="1823" x2="1823" y1="195.5132" y2="215.8101"/><rect fill="none" height="20.2969" rx="5" ry="5" style="stroke:#000000;stroke-width:1.5;" width="389" x="1651" y="195.5132"/><rect fill="#F1F1F1" height="20.2969" rx="5" ry="5" style="stroke:#F1F1F1;stroke-width:1.5;" width="72" x="1062" y="233.5132"/><text fill="#000000" font-family="sans-serif" font-size="14" lengthAdjust="spacing" textLength="62" x="1067" y="248.5083">backend</text><rect fill="none" height="20.2969" rx="5" ry="5" style="stroke:#000000;stroke-width:1.5;" width="72" x="1062" y="233.5132"/><rect fill="#F1F1F1" height="142.0781" rx="5" ry="5" style="stroke:#F1F1F1;stroke-width:1.5;" width="237" x="308" y="260.6226"/><text fill="#000000" font-family="sans-serif" font-size="14" font-weight="bold" lengthAdjust="spacing" textLength="40" x="313" y="275.6177">build</text><text fill="#000000" font-family="sans-serif" font-size="14" lengthAdjust="spacing" textLength="72" x="452" y="275.6177">./flask-api</text><line style="stroke:#000000;stroke-width:1.0;" x1="447" x2="447" y1="260.6226" y2="280.9194"/><line style="stroke:#000000;stroke-width:1.0;" x1="308" x2="545" y1="280.9194" y2="280.9194"/><text fill="#000000" font-family="sans-serif" font-size="14" font-weight="bold" lengthAdjust="spacing" textLength="129" x="313" y="295.9146">container_name</text><text fill="#000000" font-family="sans-serif" font-size="14" lengthAdjust="spacing" textLength="88" x="452" y="295.9146">avocado_api</text><line style="stroke:#000000;stroke-width:1.0;" x1="447" x2="447" y1="280.9194" y2="301.2163"/><line style="stroke:#000000;stroke-width:1.0;" x1="308" x2="545" y1="301.2163" y2="301.2163"/><text fill="#000000" font-family="sans-serif" font-size="14" font-weight="bold" lengthAdjust="spacing" textLength="44" x="313" y="316.2114">ports</text><text fill="#000000" font-family="sans-serif" font-size="14" lengthAdjust="spacing" textLength="12" x="452" y="316.2114">&#160;&#160;&#160;</text><line style="stroke:#000000;stroke-width:1.0;" x1="447" x2="447" y1="301.2163" y2="321.5132"/><line style="stroke:#000000;stroke-width:1.0;" x1="308" x2="545" y1="321.5132" y2="321.5132"/><text fill="#000000" font-family="sans-serif" font-size="14" font-weight="bold" lengthAdjust="spacing" textLength="102" x="313" y="336.5083">environment</text><text fill="#000000" font-family="sans-serif" font-size="14" lengthAdjust="spacing" textLength="12" x="452" y="336.5083">&#160;&#160;&#160;</text><line style="stroke:#000000;stroke-width:1.0;" x1="447" x2="447" y1="321.5132" y2="341.8101"/><line style="stroke:#000000;stroke-width:1.0;" x1="308" x2="545" y1="341.8101" y2="341.8101"/><text fill="#000000" font-family="sans-serif" font-size="14" font-weight="bold" lengthAdjust="spacing" textLength="94" x="313" y="356.8052">depends_on</text><text fill="#000000" font-family="sans-serif" font-size="14" lengthAdjust="spacing" textLength="12" x="452" y="356.8052">&#160;&#160;&#160;</text><line style="stroke:#000000;stroke-width:1.0;" x1="447" x2="447" y1="341.8101" y2="362.1069"/><line style="stroke:#000000;stroke-width:1.0;" x1="308" x2="545" y1="362.1069" y2="362.1069"/><text fill="#000000" font-family="sans-serif" font-size="14" font-weight="bold" lengthAdjust="spacing" textLength="67" x="313" y="377.1021">volumes</text><text fill="#000000" font-family="sans-serif" font-size="14" lengthAdjust="spacing" textLength="12" x="452" y="377.1021">&#160;&#160;&#160;</text><line style="stroke:#000000;stroke-width:1.0;" x1="447" x2="447" y1="362.1069" y2="382.4038"/><line style="stroke:#000000;stroke-width:1.0;" x1="308" x2="545" y1="382.4038" y2="382.4038"/><text fill="#000000" font-family="sans-serif" font-size="14" font-weight="bold" lengthAdjust="spacing" textLength="75" x="313" y="397.3989">networks</text><text fill="#000000" font-family="sans-serif" font-size="14" lengthAdjust="spacing" textLength="12" x="452" y="397.3989">&#160;&#160;&#160;</text><line style="stroke:#000000;stroke-width:1.0;" x1="447" x2="447" y1="382.4038" y2="402.7007"/><rect fill="none" height="142.0781" rx="5" ry="5" style="stroke:#000000;stroke-width:1.5;" width="237" x="308" y="260.6226"/><rect fill="#F1F1F1" height="20.2969" rx="5" ry="5" style="stroke:#F1F1F1;stroke-width:1.5;" width="101" x="1047.5" y="271.5132"/><text fill="#000000" font-family="sans-serif" font-size="14" lengthAdjust="spacing" textLength="91" x="1052.5" y="286.5083">"5000:5000"</text><rect fill="none" height="20.2969" rx="5" ry="5" style="stroke:#000000;stroke-width:1.5;" width="101" x="1047.5" y="271.5132"/><rect fill="#F1F1F1" height="20.2969" rx="5" ry="5" style="stroke:#F1F1F1;stroke-width:1.5;" width="1032" x="582" y="309.5132"/><text fill="#000000" font-family="sans-serif" font-size="14" font-weight="bold" lengthAdjust="spacing" textLength="117" x="587" y="324.5083">MONGODB_URI</text><text fill="#000000" font-family="sans-serif" font-size="14" lengthAdjust="spacing" textLength="895" x="714" y="324.5083">mongodb://${MONGODB_USERNAME}:${MONGODB_PASSWORD}@mongo:27017/avocado_db?retryWrites=true&amp;w=majority</text><line style="stroke:#000000;stroke-width:1.0;" x1="709" x2="709" y1="309.5132" y2="329.8101"/><rect fill="none" height="20.2969" rx="5" ry="5" style="stroke:#000000;stroke-width:1.5;" width="1032" x="582" y="309.5132"/><rect fill="#F1F1F1" height="20.2969" rx="5" ry="5" style="stroke:#F1F1F1;stroke-width:1.5;" width="60" x="1068" y="347.5132"/><text fill="#000000" font-family="sans-serif" font-size="14" lengthAdjust="spacing" textLength="50" x="1073" y="362.5083">mongo</text><rect fill="none" height="20.2969" rx="5" ry="5" style="stroke:#000000;stroke-width:1.5;" width="60" x="1068" y="347.5132"/><rect fill="#F1F1F1" height="20.2969" rx="5" ry="5" style="stroke:#F1F1F1;stroke-width:1.5;" width="22" x="1087" y="385.5132"/><text fill="#000000" font-family="sans-serif" font-size="14" lengthAdjust="spacing" textLength="12" x="1092" y="400.5083">&#160;&#160;&#160;</text><rect fill="none" height="20.2969" rx="5" ry="5" style="stroke:#000000;stroke-width:1.5;" width="22" x="1087" y="385.5132"/><rect fill="#F1F1F1" height="20.2969" rx="5" ry="5" style="stroke:#F1F1F1;stroke-width:1.5;" width="203" x="1744" y="385.5132"/><text fill="#000000" font-family="sans-serif" font-size="14" font-weight="bold" lengthAdjust="spacing" textLength="83" x="1749" y="400.5083">./datasets</text><text fill="#000000" font-family="sans-serif" font-size="14" lengthAdjust="spacing" textLength="100" x="1842" y="400.5083">/app/datasets</text><line style="stroke:#000000;stroke-width:1.0;" x1="1837" x2="1837" y1="385.5132" y2="405.8101"/><rect fill="none" height="20.2969" rx="5" ry="5" style="stroke:#000000;stroke-width:1.5;" width="203" x="1744" y="385.5132"/><rect fill="#F1F1F1" height="20.2969" rx="5" ry="5" style="stroke:#F1F1F1;stroke-width:1.5;" width="72" x="1062" y="423.5132"/><text fill="#000000" font-family="sans-serif" font-size="14" lengthAdjust="spacing" textLength="62" x="1067" y="438.5083">backend</text><rect fill="none" height="20.2969" rx="5" ry="5" style="stroke:#000000;stroke-width:1.5;" width="72" x="1062" y="423.5132"/><rect fill="#F1F1F1" height="20.2969" rx="5" ry="5" style="stroke:#F1F1F1;stroke-width:1.5;" width="99" x="172" y="390.5132"/><text fill="#000000" font-family="sans-serif" font-size="14" font-weight="bold" lengthAdjust="spacing" textLength="67" x="177" y="405.5083">backend</text><text fill="#000000" font-family="sans-serif" font-size="14" lengthAdjust="spacing" textLength="12" x="254" y="405.5083">&#160;&#160;&#160;</text><line style="stroke:#000000;stroke-width:1.0;" x1="249" x2="249" y1="390.5132" y2="410.8101"/><rect fill="none" height="20.2969" rx="5" ry="5" style="stroke:#000000;stroke-width:1.5;" width="99" x="172" y="390.5132"/><rect fill="#F1F1F1" height="20.2969" rx="5" ry="5" style="stroke:#F1F1F1;stroke-width:1.5;" width="114" x="369.5" y="420.5132"/><text fill="#000000" font-family="sans-serif" font-size="14" font-weight="bold" lengthAdjust="spacing" textLength="47" x="374.5" y="435.5083">driver</text><text fill="#000000" font-family="sans-serif" font-size="14" lengthAdjust="spacing" textLength="47" x="431.5" y="435.5083">bridge</text><line style="stroke:#000000;stroke-width:1.0;" x1="426.5" x2="426.5" y1="420.5132" y2="440.8101"/><rect fill="none" height="20.2969" rx="5" ry="5" style="stroke:#000000;stroke-width:1.5;" width="114" x="369.5" y="420.5132"/><path d="M528,165.6616 L541,165.6616 C596.94,165.6616 537.0613,79.9753 582,46.6616 C651.5003,-4.8599 909.7154,10.5638 1032.2106,21.2304 " fill="none" style="stroke:#000000;stroke-width:1.0;stroke-dasharray:3.0,3.0;"/><path d="M1031.9454,24.2355 L1034.4644,21.4294 L1032.4758,18.2254 L1039.7232,21.8935 L1031.9454,24.2355 " fill="#000000" style="stroke:#000000;stroke-width:1.0;"/><ellipse cx="528" cy="165.6616" fill="#000000" rx="3" ry="3" style="stroke:#000000;stroke-width:1.0;"/><path d="M528,185.6616 L541,185.6616 C633.7985,185.6616 734.6445,176.0954 824.6794,164.0869 " fill="none" style="stroke:#000000;stroke-width:1.0;stroke-dasharray:3.0,3.0;"/><path d="M825.0868,167.1138 L826.9496,163.7813 L824.2721,161.0599 L832.2467,163.0684 L825.0868,167.1138 " fill="#000000" style="stroke:#000000;stroke-width:1.0;"/><ellipse cx="528" cy="185.6616" fill="#000000" rx="3" ry="3" style="stroke:#000000;stroke-width:1.0;"/><path d="M1096.6319,205.6616 L1109.6319,205.6616 C1168.3665,205.6616 1446.984,205.6616 1643.8395,205.6616 " fill="none" style="stroke:#000000;stroke-width:1.0;stroke-dasharray:3.0,3.0;"/><path d="M1643.8395,208.6827 L1646.1052,205.6616 L1643.8395,202.6406 L1651.3921,205.6616 L1643.8395,208.6827 " fill="#000000" style="stroke:#000000;stroke-width:1.0;"/><ellipse cx="1096.6319" cy="205.6616" fill="#000000" rx="3" ry="3" style="stroke:#000000;stroke-width:1.0;"/><path d="M528,205.6616 L541,205.6616 C752.7095,205.6616 1009.7232,205.6616 1079.3675,205.6616 " fill="none" style="stroke:#000000;stroke-width:1.0;stroke-dasharray:3.0,3.0;"/><path d="M1079.3675,208.8175 L1081.7343,205.6616 L1079.3675,202.5058 L1087.257,205.6616 L1079.3675,208.8175 " fill="#000000" style="stroke:#000000;stroke-width:1.0;"/><ellipse cx="528" cy="205.6616" fill="#000000" rx="3" ry="3" style="stroke:#000000;stroke-width:1.0;"/><path d="M528,226.6616 L541,226.6616 C732.7939,226.6616 961.596,236.8745 1054.8157,241.4686 " fill="none" style="stroke:#000000;stroke-width:1.0;stroke-dasharray:3.0,3.0;"/><path d="M1054.6661,244.4832 L1057.0766,241.5807 L1054.9652,238.4539 L1062.3523,241.8423 L1054.6661,244.4832 " fill="#000000" style="stroke:#000000;stroke-width:1.0;"/><ellipse cx="528" cy="226.6616" fill="#000000" rx="3" ry="3" style="stroke:#000000;stroke-width:1.0;"/><path d="M254,311.6616 L267,311.6616 C299.298,311.6616 284.8527,274.1864 308,251.6616 C311.4382,248.3159 315.0454,245.0354 318.7753,241.8297 " fill="none" style="stroke:#000000;stroke-width:1.0;stroke-dasharray:3.0,3.0;"/><path d="M320.7651,244.212 L320.562,240.3373 L316.7855,239.4474 L324.731,236.8552 L320.7651,244.212 " fill="#000000" style="stroke:#000000;stroke-width:1.0;"/><ellipse cx="254" cy="311.6616" fill="#000000" rx="3" ry="3" style="stroke:#000000;stroke-width:1.0;"/><path d="M533,311.6616 L546,311.6616 C562.7302,311.6616 565.5017,303.4376 582,300.6616 C746.4507,272.992 944.4034,275.5223 1040.1153,278.9585 " fill="none" style="stroke:#000000;stroke-width:1.0;stroke-dasharray:3.0,3.0;"/><path d="M1040.003,281.9778 L1042.3798,279.0427 L1040.2275,275.9392 L1047.6636,279.2391 L1040.003,281.9778 " fill="#000000" style="stroke:#000000;stroke-width:1.0;"/><ellipse cx="533" cy="311.6616" fill="#000000" rx="3" ry="3" style="stroke:#000000;stroke-width:1.0;"/><path d="M533,331.6616 L546,331.6616 C604.3191,331.6616 666.099,330.9826 726.3933,329.9477 " fill="none" style="stroke:#000000;stroke-width:1.0;stroke-dasharray:3.0,3.0;"/><path d="M726.4472,333.0388 L728.7117,329.9072 L726.3394,326.8565 L734.1211,329.8129 L726.4472,333.0388 " fill="#000000" style="stroke:#000000;stroke-width:1.0;"/><ellipse cx="533" cy="331.6616" fill="#000000" rx="3" ry="3" style="stroke:#000000;stroke-width:1.0;"/><path d="M533,351.6616 L546,351.6616 C739.7944,351.6616 971.8715,355.4118 1060.5708,356.9825 " fill="none" style="stroke:#000000;stroke-width:1.0;stroke-dasharray:3.0,3.0;"/><path d="M1060.5164,360.0362 L1062.8611,357.0233 L1060.6252,353.9288 L1068.2051,357.1186 L1060.5164,360.0362 " fill="#000000" style="stroke:#000000;stroke-width:1.0;"/><ellipse cx="533" cy="351.6616" fill="#000000" rx="3" ry="3" style="stroke:#000000;stroke-width:1.0;"/><path d="M1096.6319,395.6616 L1109.6319,395.6616 C1178.4605,395.6616 1549.2436,395.6616 1736.5573,395.6616 " fill="none" style="stroke:#000000;stroke-width:1.0;stroke-dasharray:3.0,3.0;"/><path d="M1736.5573,398.7345 L1738.862,395.6616 L1736.5573,392.5887 L1744.2396,395.6616 L1736.5573,398.7345 " fill="#000000" style="stroke:#000000;stroke-width:1.0;"/><ellipse cx="1096.6319" cy="395.6616" fill="#000000" rx="3" ry="3" style="stroke:#000000;stroke-width:1.0;"/><path d="M533,372.6616 L546,372.6616 C562.0985,372.6616 565.9453,375.4755 582,376.6616 C776.4583,391.0288 1013.0236,394.701 1079.416,395.4779 " fill="none" style="stroke:#000000;stroke-width:1.0;stroke-dasharray:3.0,3.0;"/><path d="M1079.3808,398.6357 L1081.7842,395.5043 L1079.4511,392.3202 L1087.3103,395.5658 L1079.3808,398.6357 " fill="#000000" style="stroke:#000000;stroke-width:1.0;"/><ellipse cx="533" cy="372.6616" fill="#000000" rx="3" ry="3" style="stroke:#000000;stroke-width:1.0;"/><path d="M533,392.6616 L546,392.6616 C564.7511,392.6616 564.0464,409.2513 582,414.6616 C750.9313,465.5691 965.149,449.3759 1054.9061,439.2096 " fill="none" style="stroke:#000000;stroke-width:1.0;stroke-dasharray:3.0,3.0;"/><path d="M1055.2548,442.2203 L1057.1641,438.9481 L1054.5574,436.1989 L1062.4328,438.3379 L1055.2548,442.2203 " fill="#000000" style="stroke:#000000;stroke-width:1.0;"/><ellipse cx="533" cy="392.6616" fill="#000000" rx="3" ry="3" style="stroke:#000000;stroke-width:1.0;"/><path d="M254,331.6616 L267,331.6616 C277.9824,331.6616 289.3914,331.6616 300.8293,331.6616 " fill="none" style="stroke:#000000;stroke-width:1.0;stroke-dasharray:3.0,3.0;"/><path d="M300.8293,334.6681 L303.0842,331.6616 L300.8293,328.6551 L308.3456,331.6616 L300.8293,334.6681 " fill="#000000" style="stroke:#000000;stroke-width:1.0;"/><ellipse cx="254" cy="331.6616" fill="#000000" rx="3" ry="3" style="stroke:#000000;stroke-width:1.0;"/><path d="M123,350.6616 L136,350.6616 C147.6393,350.6616 159.7181,348.1958 170.9903,344.7022 " fill="none" style="stroke:#000000;stroke-width:1.0;stroke-dasharray:3.0,3.0;"/><path d="M171.9617,347.6135 L173.1738,343.9737 L170.0188,341.7909 L178.2686,342.2736 L171.9617,347.6135 " fill="#000000" style="stroke:#000000;stroke-width:1.0;"/><ellipse cx="123" cy="350.6616" fill="#000000" rx="3" ry="3" style="stroke:#000000;stroke-width:1.0;"/><path d="M259,400.6616 L272,400.6616 C288.7302,400.6616 291.7031,407.8785 308,411.6616 C325.5091,415.7261 344.6798,419.2154 362.3828,422.0535 " fill="none" style="stroke:#000000;stroke-width:1.0;stroke-dasharray:3.0,3.0;"/><path d="M361.9124,425.0487 L364.6292,422.4063 L362.8533,419.0582 L369.8709,423.2297 L361.9124,425.0487 " fill="#000000" style="stroke:#000000;stroke-width:1.0;"/><ellipse cx="259" cy="400.6616" fill="#000000" rx="3" ry="3" style="stroke:#000000;stroke-width:1.0;"/><path d="M123,370.6616 L136,370.6616 C157.1703,370.6616 179.7024,379.0392 196.2452,386.9402 " fill="none" style="stroke:#000000;stroke-width:1.0;stroke-dasharray:3.0,3.0;"/><path d="M194.8193,389.8013 L198.3911,388.0096 L197.6711,384.079 L203.3981,390.505 L194.8193,389.8013 " fill="#000000" style="stroke:#000000;stroke-width:1.0;"/><ellipse cx="123" cy="370.6616" fill="#000000" rx="3" ry="3" style="stroke:#000000;stroke-width:1.0;"/><!--SRC=[XLHTRzem57tthxX2qmeF0KhfXonL8mpMKV6b1DgzHKxiCe_4Zcm7XARzzpb9Gr6NiXShkUSUN_lSSptGXYXp84cCTanfBWM6YwlstGL2cgaTZvZ6222HOYFp3m2Ua0t3q2X3_NQ_KOGZAGpXWgb0aEI8brWgbT4b6y21Hk-sUtcBYxLCO6B7bHG94wPAcotc3ujWCf-iHiDWvAxSeUkFCP2TZ0YL0Gthyhp5OXMi_R4tTsSs-TFl0dqF_FcGkdHz_tdXZVwXLa0jjQxWsLfrPSvM6FzOUMxWUWy-1iSXcVbfbU8HCRPV8s98I3G3GXCk2lPEnbd2JXHlTufkE5nmu-X8yTJseqDbj6NAiLkfGogvC0LEmpRj54p1p5wgxSa-8R4CGP4Da3Gjus76OufjYPUOwAr3KbxhXwfn5VxU4zVTRXVdotb7vD9wayfUDCITJetek4RNGMdOmdMTDnjzKSnU_rbnm_IzKHdxlBzFo2zf0uVoA9IbziuwiADnF6wnrqTQKziHpNA5hKZ7l_z9UWgz1iiighWTJGoXudJ3qC02nRoYPKo4MS-cy3gvSDdkTNjNxPkG6NBTN8kja7jXEv6aF6PWUC9QgFcmd8AMcOeOKAwDuc6MswY57icEW9U9F0z3_jTSpLhWZwiWZD-QWXwVPcKIV9V6JwKfac_wpf0RyEtJmHGypT28lP0iDfOQISh51iDwzSsvGrCYDbdna321lieizw35_By0]--></g></svg>