<?xml version="1.0" encoding="us-ascii" standalone="no"?><svg xmlns="http://www.w3.org/2000/svg" xmlns:xlink="http://www.w3.org/1999/xlink" contentStyleType="text/css" height="258px" preserveAspectRatio="none" style="width:2410px;height:258px;background:#FFFFFF;" version="1.1" viewBox="0 0 2410 258" width="2410px" zoomAndPan="magnify"><defs/><g><rect fill="#F1F1F1" height="81.1875" rx="5" ry="5" style="stroke:#F1F1F1;stroke-width:1.5;" width="196" x="10" y="10"/><text fill="#000000" font-family="sans-serif" font-size="14" font-weight="bold" lengthAdjust="spacing" textLength="86" x="15" y="24.9951">apiVersion</text><text fill="#000000" font-family="sans-serif" font-size="14" lengthAdjust="spacing" textLength="57" x="111" y="24.9951">apps/v1</text><line style="stroke:#000000;stroke-width:1.0;" x1="106" x2="106" y1="10" y2="30.2969"/><line style="stroke:#000000;stroke-width:1.0;" x1="10" x2="206" y1="30.2969" y2="30.2969"/><text fill="#000000" font-family="sans-serif" font-size="14" font-weight="bold" lengthAdjust="spacing" textLength="34" x="15" y="45.292">kind</text><text fill="#000000" font-family="sans-serif" font-size="14" lengthAdjust="spacing" textLength="90" x="111" y="45.292">Deployment</text><line style="stroke:#000000;stroke-width:1.0;" x1="106" x2="106" y1="30.2969" y2="50.5938"/><line style="stroke:#000000;stroke-width:1.0;" x1="10" x2="206" y1="50.5938" y2="50.5938"/><text fill="#000000" font-family="sans-serif" font-size="14" font-weight="bold" lengthAdjust="spacing" textLength="80" x="15" y="65.5889">metadata</text><text fill="#000000" font-family="sans-serif" font-size="14" lengthAdjust="spacing" textLength="12" x="111" y="65.5889">&#160;&#160;&#160;</text><line style="stroke:#000000;stroke-width:1.0;" x1="106" x2="106" y1="50.5938" y2="70.8906"/><line style="stroke:#000000;stroke-width:1.0;" x1="10" x2="206" y1="70.8906" y2="70.8906"/><text fill="#000000" font-family="sans-serif" font-size="14" font-weight="bold" lengthAdjust="spacing" textLength="37" x="15" y="85.8857">spec</text><text fill="#000000" font-family="sans-serif" font-size="14" lengthAdjust="spacing" textLength="12" x="111" y="85.8857">&#160;&#160;&#160;</text><line style="stroke:#000000;stroke-width:1.0;" x1="106" x2="106" y1="70.8906" y2="91.1875"/><rect fill="none" height="81.1875" rx="5" ry="5" style="stroke:#000000;stroke-width:1.5;" width="196" x="10" y="10"/><rect fill="#F1F1F1" height="20.2969" rx="5" ry="5" style="stroke:#F1F1F1;stroke-width:1.5;" width="151" x="243" y="31.4453"/><text fill="#000000" font-family="sans-serif" font-size="14" font-weight="bold" lengthAdjust="spacing" textLength="44" x="248" y="46.4404">name</text><text fill="#000000" font-family="sans-serif" font-size="14" lengthAdjust="spacing" textLength="87" x="302" y="46.4404">avocado-api</text><line style="stroke:#000000;stroke-width:1.0;" x1="297" x2="297" y1="31.4453" y2="51.7422"/><rect fill="none" height="20.2969" rx="5" ry="5" style="stroke:#000000;stroke-width:1.5;" width="151" x="243" y="31.4453"/><rect fill="#F1F1F1" height="60.8906" rx="5" ry="5" style="stroke:#F1F1F1;stroke-width:1.5;" width="106" x="265.5" y="70.0938"/><text fill="#000000" font-family="sans-serif" font-size="14" font-weight="bold" lengthAdjust="spacing" textLength="64" x="270.5" y="85.0889">replicas</text><text fill="#000000" font-family="sans-serif" font-size="14" lengthAdjust="spacing" textLength="9" x="354.5" y="85.0889">1</text><line style="stroke:#000000;stroke-width:1.0;" x1="349.5" x2="349.5" y1="70.0938" y2="90.3906"/><line style="stroke:#000000;stroke-width:1.0;" x1="265.5" x2="371.5" y1="90.3906" y2="90.3906"/><text fill="#000000" font-family="sans-serif" font-size="14" font-weight="bold" lengthAdjust="spacing" textLength="66" x="270.5" y="105.3857">selector</text><text fill="#000000" font-family="sans-serif" font-size="14" lengthAdjust="spacing" textLength="12" x="354.5" y="105.3857">&#160;&#160;&#160;</text><line style="stroke:#000000;stroke-width:1.0;" x1="349.5" x2="349.5" y1="90.3906" y2="110.6875"/><line style="stroke:#000000;stroke-width:1.0;" x1="265.5" x2="371.5" y1="110.6875" y2="110.6875"/><text fill="#000000" font-family="sans-serif" font-size="14" font-weight="bold" lengthAdjust="spacing" textLength="74" x="270.5" y="125.6826">template</text><text fill="#000000" font-family="sans-serif" font-size="14" lengthAdjust="spacing" textLength="12" x="354.5" y="125.6826">&#160;&#160;&#160;</text><line style="stroke:#000000;stroke-width:1.0;" x1="349.5" x2="349.5" y1="110.6875" y2="130.9844"/><rect fill="none" height="60.8906" rx="5" ry="5" style="stroke:#000000;stroke-width:1.5;" width="106" x="265.5" y="70.0938"/><rect fill="#F1F1F1" height="20.2969" rx="5" ry="5" style="stroke:#F1F1F1;stroke-width:1.5;" width="136" x="431" y="73.4453"/><text fill="#000000" font-family="sans-serif" font-size="14" font-weight="bold" lengthAdjust="spacing" textLength="104" x="436" y="88.4404">matchLabels</text><text fill="#000000" font-family="sans-serif" font-size="14" lengthAdjust="spacing" textLength="12" x="550" y="88.4404">&#160;&#160;&#160;</text><line style="stroke:#000000;stroke-width:1.0;" x1="545" x2="545" y1="73.4453" y2="93.7422"/><rect fill="none" height="20.2969" rx="5" ry="5" style="stroke:#000000;stroke-width:1.5;" width="136" x="431" y="73.4453"/><rect fill="#F1F1F1" height="20.2969" rx="5" ry="5" style="stroke:#F1F1F1;stroke-width:1.5;" width="137" x="604" y="68.4453"/><text fill="#000000" font-family="sans-serif" font-size="14" font-weight="bold" lengthAdjust="spacing" textLength="30" x="609" y="83.4404">app</text><text fill="#000000" font-family="sans-serif" font-size="14" lengthAdjust="spacing" textLength="87" x="649" y="83.4404">avocado-api</text><line style="stroke:#000000;stroke-width:1.0;" x1="644" x2="644" y1="68.4453" y2="88.7422"/><rect fill="none" height="20.2969" rx="5" ry="5" style="stroke:#000000;stroke-width:1.5;" width="137" x="604" y="68.4453"/><rect fill="#F1F1F1" height="40.5938" rx="5" ry="5" style="stroke:#F1F1F1;stroke-width:1.5;" width="112" x="443" y="117.0938"/><text fill="#000000" font-family="sans-serif" font-size="14" font-weight="bold" lengthAdjust="spacing" textLength="80" x="448" y="132.0889">metadata</text><text fill="#000000" font-family="sans-serif" font-size="14" lengthAdjust="spacing" textLength="12" x="538" y="132.0889">&#160;&#160;&#160;</text><line style="stroke:#000000;stroke-width:1.0;" x1="533" x2="533" y1="117.0938" y2="137.3906"/><line style="stroke:#000000;stroke-width:1.0;" x1="443" x2="555" y1="137.3906" y2="137.3906"/><text fill="#000000" font-family="sans-serif" font-size="14" font-weight="bold" lengthAdjust="spacing" textLength="37" x="448" y="152.3857">spec</text><text fill="#000000" font-family="sans-serif" font-size="14" lengthAdjust="spacing" textLength="12" x="538" y="152.3857">&#160;&#160;&#160;</text><line style="stroke:#000000;stroke-width:1.0;" x1="533" x2="533" y1="137.3906" y2="157.6875"/><rect fill="none" height="40.5938" rx="5" ry="5" style="stroke:#000000;stroke-width:1.5;" width="112" x="443" y="117.0938"/><rect fill="#F1F1F1" height="40.5938" rx="5" ry="5" style="stroke:#F1F1F1;stroke-width:1.5;" width="132" x="606.5" y="107.0938"/><text fill="#000000" font-family="sans-serif" font-size="14" font-weight="bold" lengthAdjust="spacing" textLength="100" x="611.5" y="122.0889">annotations</text><text fill="#000000" font-family="sans-serif" font-size="14" lengthAdjust="spacing" textLength="12" x="721.5" y="122.0889">&#160;&#160;&#160;</text><line style="stroke:#000000;stroke-width:1.0;" x1="716.5" x2="716.5" y1="107.0938" y2="127.3906"/><line style="stroke:#000000;stroke-width:1.0;" x1="606.5" x2="738.5" y1="127.3906" y2="127.3906"/><text fill="#000000" font-family="sans-serif" font-size="14" font-weight="bold" lengthAdjust="spacing" textLength="48" x="611.5" y="142.3857">labels</text><text fill="#000000" font-family="sans-serif" font-size="14" lengthAdjust="spacing" textLength="12" x="721.5" y="142.3857">&#160;&#160;&#160;</text><line style="stroke:#000000;stroke-width:1.0;" x1="716.5" x2="716.5" y1="127.3906" y2="147.6875"/><rect fill="none" height="40.5938" rx="5" ry="5" style="stroke:#000000;stroke-width:1.5;" width="132" x="606.5" y="107.0938"/><rect fill="#F1F1F1" height="20.2969" rx="5" ry="5" style="stroke:#F1F1F1;stroke-width:1.5;" width="222" x="778" y="89.4453"/><text fill="#000000" font-family="sans-serif" font-size="14" font-weight="bold" lengthAdjust="spacing" textLength="172" x="783" y="104.4404">sidecar.istio.io/inject</text><text fill="#000000" font-family="sans-serif" font-size="14" lengthAdjust="spacing" textLength="30" x="965" y="104.4404">true</text><line style="stroke:#000000;stroke-width:1.0;" x1="960" x2="960" y1="89.4453" y2="109.7422"/><rect fill="none" height="20.2969" rx="5" ry="5" style="stroke:#000000;stroke-width:1.5;" width="222" x="778" y="89.4453"/><rect fill="#F1F1F1" height="20.2969" rx="5" ry="5" style="stroke:#F1F1F1;stroke-width:1.5;" width="137" x="820.5" y="127.4453"/><text fill="#000000" font-family="sans-serif" font-size="14" font-weight="bold" lengthAdjust="spacing" textLength="30" x="825.5" y="142.4404">app</text><text fill="#000000" font-family="sans-serif" font-size="14" lengthAdjust="spacing" textLength="87" x="865.5" y="142.4404">avocado-api</text><line style="stroke:#000000;stroke-width:1.0;" x1="860.5" x2="860.5" y1="127.4453" y2="147.7422"/><rect fill="none" height="20.2969" rx="5" ry="5" style="stroke:#000000;stroke-width:1.5;" width="137" x="820.5" y="127.4453"/><rect fill="#F1F1F1" height="20.2969" rx="5" ry="5" style="stroke:#F1F1F1;stroke-width:1.5;" width="119" x="613" y="166.4453"/><text fill="#000000" font-family="sans-serif" font-size="14" font-weight="bold" lengthAdjust="spacing" textLength="87" x="618" y="181.4404">containers</text><text fill="#000000" font-family="sans-serif" font-size="14" lengthAdjust="spacing" textLength="12" x="715" y="181.4404">&#160;&#160;&#160;</text><line style="stroke:#000000;stroke-width:1.0;" x1="710" x2="710" y1="166.4453" y2="186.7422"/><rect fill="none" height="20.2969" rx="5" ry="5" style="stroke:#000000;stroke-width:1.5;" width="119" x="613" y="166.4453"/><rect fill="#F1F1F1" height="20.2969" rx="5" ry="5" style="stroke:#F1F1F1;stroke-width:1.5;" width="22" x="878" y="166.4453"/><text fill="#000000" font-family="sans-serif" font-size="14" lengthAdjust="spacing" textLength="12" x="883" y="181.4404">&#160;&#160;&#160;</text><rect fill="none" height="20.2969" rx="5" ry="5" style="stroke:#000000;stroke-width:1.5;" width="22" x="878" y="166.4453"/><rect fill="#F1F1F1" height="81.1875" rx="5" ry="5" style="stroke:#F1F1F1;stroke-width:1.5;" width="500" x="1037" y="136"/><text fill="#000000" font-family="sans-serif" font-size="14" font-weight="bold" lengthAdjust="spacing" textLength="44" x="1042" y="150.9951">name</text><text fill="#000000" font-family="sans-serif" font-size="14" lengthAdjust="spacing" textLength="166" x="1101" y="150.9951">avocado_k8s_container</text><line style="stroke:#000000;stroke-width:1.0;" x1="1096" x2="1096" y1="136" y2="156.2969"/><line style="stroke:#000000;stroke-width:1.0;" x1="1037" x2="1537" y1="156.2969" y2="156.2969"/><text fill="#000000" font-family="sans-serif" font-size="14" font-weight="bold" lengthAdjust="spacing" textLength="49" x="1042" y="171.292">image</text><text fill="#000000" font-family="sans-serif" font-size="14" lengthAdjust="spacing" textLength="431" x="1101" y="171.292">avocadocontainerregistry.azurecr.io/avocado_k8s_container</text><line style="stroke:#000000;stroke-width:1.0;" x1="1096" x2="1096" y1="156.2969" y2="176.5938"/><line style="stroke:#000000;stroke-width:1.0;" x1="1037" x2="1537" y1="176.5938" y2="176.5938"/><text fill="#000000" font-family="sans-serif" font-size="14" font-weight="bold" lengthAdjust="spacing" textLength="44" x="1042" y="191.5889">ports</text><text fill="#000000" font-family="sans-serif" font-size="14" lengthAdjust="spacing" textLength="12" x="1101" y="191.5889">&#160;&#160;&#160;</text><line style="stroke:#000000;stroke-width:1.0;" x1="1096" x2="1096" y1="176.5938" y2="196.8906"/><line style="stroke:#000000;stroke-width:1.0;" x1="1037" x2="1537" y1="196.8906" y2="196.8906"/><text fill="#000000" font-family="sans-serif" font-size="14" font-weight="bold" lengthAdjust="spacing" textLength="28" x="1042" y="211.8857">env</text><text fill="#000000" font-family="sans-serif" font-size="14" lengthAdjust="spacing" textLength="12" x="1101" y="211.8857">&#160;&#160;&#160;</text><line style="stroke:#000000;stroke-width:1.0;" x1="1096" x2="1096" y1="196.8906" y2="217.1875"/><rect fill="none" height="81.1875" rx="5" ry="5" style="stroke:#000000;stroke-width:1.5;" width="500" x="1037" y="136"/><rect fill="#F1F1F1" height="20.2969" rx="5" ry="5" style="stroke:#F1F1F1;stroke-width:1.5;" width="22" x="1574" y="162.4453"/><text fill="#000000" font-family="sans-serif" font-size="14" lengthAdjust="spacing" textLength="12" x="1579" y="177.4404">&#160;&#160;&#160;</text><rect fill="none" height="20.2969" rx="5" ry="5" style="stroke:#000000;stroke-width:1.5;" width="22" x="1574" y="162.4453"/><rect fill="#F1F1F1" height="40.5938" rx="5" ry="5" style="stroke:#F1F1F1;stroke-width:1.5;" width="169" x="1931" y="147.0938"/><text fill="#000000" font-family="sans-serif" font-size="14" font-weight="bold" lengthAdjust="spacing" textLength="113" x="1936" y="162.0889">containerPort</text><text fill="#000000" font-family="sans-serif" font-size="14" lengthAdjust="spacing" textLength="36" x="2059" y="162.0889">5000</text><line style="stroke:#000000;stroke-width:1.0;" x1="2054" x2="2054" y1="147.0938" y2="167.3906"/><line style="stroke:#000000;stroke-width:1.0;" x1="1931" x2="2100" y1="167.3906" y2="167.3906"/><text fill="#000000" font-family="sans-serif" font-size="14" font-weight="bold" lengthAdjust="spacing" textLength="44" x="1936" y="182.3857">name</text><text fill="#000000" font-family="sans-serif" font-size="14" lengthAdjust="spacing" textLength="33" x="2059" y="182.3857">http</text><line style="stroke:#000000;stroke-width:1.0;" x1="2054" x2="2054" y1="167.3906" y2="187.6875"/><rect fill="none" height="40.5938" rx="5" ry="5" style="stroke:#000000;stroke-width:1.5;" width="169" x="1931" y="147.0938"/><rect fill="#F1F1F1" height="20.2969" rx="5" ry="5" style="stroke:#F1F1F1;stroke-width:1.5;" width="22" x="1574" y="210.4453"/><text fill="#000000" font-family="sans-serif" font-size="14" lengthAdjust="spacing" textLength="12" x="1579" y="225.4404">&#160;&#160;&#160;</text><rect fill="none" height="20.2969" rx="5" ry="5" style="stroke:#000000;stroke-width:1.5;" width="22" x="1574" y="210.4453"/><rect fill="#F1F1F1" height="40.5938" rx="5" ry="5" style="stroke:#F1F1F1;stroke-width:1.5;" width="765" x="1633" y="206.0938"/><text fill="#000000" font-family="sans-serif" font-size="14" font-weight="bold" lengthAdjust="spacing" textLength="44" x="1638" y="221.0889">name</text><text fill="#000000" font-family="sans-serif" font-size="14" lengthAdjust="spacing" textLength="237" x="1692" y="221.0889">MONGODB_CONNECTION_STRING</text><line style="stroke:#000000;stroke-width:1.0;" x1="1687" x2="1687" y1="206.0938" y2="226.3906"/><line style="stroke:#000000;stroke-width:1.0;" x1="1633" x2="2398" y1="226.3906" y2="226.3906"/><text fill="#000000" font-family="sans-serif" font-size="14" font-weight="bold" lengthAdjust="spacing" textLength="43" x="1638" y="241.3857">value</text><text fill="#000000" font-family="sans-serif" font-size="14" lengthAdjust="spacing" textLength="701" x="1692" y="241.3857">mongodb://dsti-devops:dsti-devops@localhost:27017/avocado_db?retryWrites=true&amp;w=majority</text><line style="stroke:#000000;stroke-width:1.0;" x1="1687" x2="1687" y1="226.3906" y2="246.6875"/><rect fill="none" height="40.5938" rx="5" ry="5" style="stroke:#000000;stroke-width:1.5;" width="765" x="1633" y="206.0938"/><path d="M194,60.5938 L207,60.5938 C228.0572,60.5938 251.0433,57.2307 270.6082,53.3344 " fill="none" style="stroke:#000000;stroke-width:1.0;stroke-dasharray:3.0,3.0;"/><path d="M271.2375,56.3736 L272.8876,52.8625 L269.979,50.2952 L278.2062,51.7612 L271.2375,56.3736 " fill="#000000" style="stroke:#000000;stroke-width:1.0;"/><ellipse cx="194" cy="60.5938" fill="#000000" rx="3" ry="3" style="stroke:#000000;stroke-width:1.0;"/><path d="M555,83.5938 L568,83.5938 C577.2712,83.5938 587.002,83.3931 596.636,83.0721 " fill="none" style="stroke:#000000;stroke-width:1.0;stroke-dasharray:3.0,3.0;"/><path d="M596.7487,86.1501 L598.9445,82.9876 L596.5234,79.9941 L604.331,82.7904 L596.7487,86.1501 " fill="#000000" style="stroke:#000000;stroke-width:1.0;"/><ellipse cx="555" cy="83.5938" fill="#000000" rx="3" ry="3" style="stroke:#000000;stroke-width:1.0;"/><path d="M360,100.5938 L373,100.5938 C394.7364,100.5938 418.4003,98.0586 439.2616,94.9463 " fill="none" style="stroke:#000000;stroke-width:1.0;stroke-dasharray:3.0,3.0;"/><path d="M439.7293,97.9664 L441.5267,94.5955 L438.794,91.9262 L446.8118,93.7772 L439.7293,97.9664 " fill="#000000" style="stroke:#000000;stroke-width:1.0;"/><ellipse cx="360" cy="100.5938" fill="#000000" rx="3" ry="3" style="stroke:#000000;stroke-width:1.0;"/><path d="M727,117.5938 L740,117.5938 C767.655,117.5938 797.9977,114.4792 824.0071,110.8412 " fill="none" style="stroke:#000000;stroke-width:1.0;stroke-dasharray:3.0,3.0;"/><path d="M824.4432,113.8688 L826.2778,110.5142 L823.571,107.8136 L831.576,109.7511 L824.4432,113.8688 " fill="#000000" style="stroke:#000000;stroke-width:1.0;"/><ellipse cx="727" cy="117.5938" fill="#000000" rx="3" ry="3" style="stroke:#000000;stroke-width:1.0;"/><path d="M727,137.5938 L740,137.5938 C763.8451,137.5938 789.844,137.5938 813.3279,137.5938 " fill="none" style="stroke:#000000;stroke-width:1.0;stroke-dasharray:3.0,3.0;"/><path d="M813.3279,140.6059 L815.587,137.5938 L813.3279,134.5816 L820.8582,137.5938 L813.3279,140.6059 " fill="#000000" style="stroke:#000000;stroke-width:1.0;"/><ellipse cx="727" cy="137.5938" fill="#000000" rx="3" ry="3" style="stroke:#000000;stroke-width:1.0;"/><path d="M543.5,127.5938 L556.5,127.5938 C570.2889,127.5938 585.0039,127.5938 599.1524,127.5938 " fill="none" style="stroke:#000000;stroke-width:1.0;stroke-dasharray:3.0,3.0;"/><path d="M599.1524,130.7108 L601.4901,127.5938 L599.1524,124.4767 L606.9449,127.5938 L599.1524,130.7108 " fill="#000000" style="stroke:#000000;stroke-width:1.0;"/><ellipse cx="543.5" cy="127.5938" fill="#000000" rx="3" ry="3" style="stroke:#000000;stroke-width:1.0;"/><path d="M1583.5494,172.6165 L1596.5485,172.4651 C1641.6836,171.9397 1814.8337,169.924 1923.7586,168.6559 " fill="none" style="stroke:#000000;stroke-width:1.0;stroke-dasharray:3.0,3.0;"/><path d="M1923.7946,171.7475 L1926.0773,168.6289 L1923.7226,165.5644 L1931.4876,168.566 L1923.7946,171.7475 " fill="#000000" style="stroke:#000000;stroke-width:1.0;"/><ellipse cx="1583.5494" cy="172.6165" fill="#000000" rx="3" ry="3" style="stroke:#000000;stroke-width:1.0;"/><path d="M1525,186.5938 L1538,186.5938 C1548.042,186.5938 1558.8056,183.5631 1567.4456,180.3219 " fill="none" style="stroke:#000000;stroke-width:1.0;stroke-dasharray:3.0,3.0;"/><path d="M1568.5782,183.1117 L1569.5379,179.4724 L1566.3129,177.5321 L1574.4201,177.4903 L1568.5782,183.1117 " fill="#000000" style="stroke:#000000;stroke-width:1.0;"/><ellipse cx="1525" cy="186.5938" fill="#000000" rx="3" ry="3" style="stroke:#000000;stroke-width:1.0;"/><path d="M1583.5498,220.5665 L1596.5485,220.7481 C1603.5183,220.8455 1613.5407,220.9855 1625.9078,221.1582 " fill="none" style="stroke:#000000;stroke-width:1.0;stroke-dasharray:3.0,3.0;"/><path d="M1625.8656,224.1771 L1628.1719,221.1899 L1625.95,218.1394 L1633.455,221.2637 L1625.8656,224.1771 " fill="#000000" style="stroke:#000000;stroke-width:1.0;"/><ellipse cx="1583.5498" cy="220.5665" fill="#000000" rx="3" ry="3" style="stroke:#000000;stroke-width:1.0;"/><path d="M1525,206.5938 L1538,206.5938 C1548.042,206.5938 1558.8056,209.6244 1567.4456,212.8656 " fill="none" style="stroke:#000000;stroke-width:1.0;stroke-dasharray:3.0,3.0;"/><path d="M1566.3129,215.6554 L1569.5379,213.7151 L1568.5782,210.0758 L1574.4201,215.6972 L1566.3129,215.6554 " fill="#000000" style="stroke:#000000;stroke-width:1.0;"/><ellipse cx="1525" cy="206.5938" fill="#000000" rx="3" ry="3" style="stroke:#000000;stroke-width:1.0;"/><path d="M887.5324,176.5938 L900.5324,176.5938 C921.9556,176.5938 972.1509,176.5938 1029.5,176.5938 " fill="none" style="stroke:#000000;stroke-width:1.0;stroke-dasharray:3.0,3.0;"/><path d="M1029.5,179.7001 L1031.8298,176.5938 L1029.5,173.4874 L1037.2659,176.5938 L1029.5,179.7001 " fill="#000000" style="stroke:#000000;stroke-width:1.0;"/><ellipse cx="887.5324" cy="176.5938" fill="#000000" rx="3" ry="3" style="stroke:#000000;stroke-width:1.0;"/><path d="M721,176.5938 L734,176.5938 C783.5585,176.5938 842.0589,176.5938 870.7796,176.5938 " fill="none" style="stroke:#000000;stroke-width:1.0;stroke-dasharray:3.0,3.0;"/><path d="M870.7796,179.6327 L873.0588,176.5938 L870.7796,173.5548 L878.377,176.5938 L870.7796,179.6327 " fill="#000000" style="stroke:#000000;stroke-width:1.0;"/><ellipse cx="721" cy="176.5938" fill="#000000" rx="3" ry="3" style="stroke:#000000;stroke-width:1.0;"/><path d="M543.5,147.5938 L556.5,147.5938 C563.814,147.5938 598.3331,156.4547 627.7464,164.3805 " fill="none" style="stroke:#000000;stroke-width:1.0;stroke-dasharray:3.0,3.0;"/><path d="M626.9508,167.3198 L629.9509,164.9772 L628.542,161.4412 L635.0947,166.3694 L626.9508,167.3198 " fill="#000000" style="stroke:#000000;stroke-width:1.0;"/><ellipse cx="543.5" cy="147.5938" fill="#000000" rx="3" ry="3" style="stroke:#000000;stroke-width:1.0;"/><path d="M360,120.5938 L373,120.5938 C393.5687,120.5938 415.8635,122.8639 435.8762,125.745 " fill="none" style="stroke:#000000;stroke-width:1.0;stroke-dasharray:3.0,3.0;"/><path d="M435.4239,128.7649 L438.1412,126.0842 L436.3285,122.725 L443.4262,126.8756 L435.4239,128.7649 " fill="#000000" style="stroke:#000000;stroke-width:1.0;"/><ellipse cx="360" cy="120.5938" fill="#000000" rx="3" ry="3" style="stroke:#000000;stroke-width:1.0;"/><path d="M194,80.5938 L207,80.5938 C223.8107,80.5938 241.8298,82.843 258.3562,85.833 " fill="none" style="stroke:#000000;stroke-width:1.0;stroke-dasharray:3.0,3.0;"/><path d="M257.788,88.8244 L260.5998,86.2591 L258.9244,82.8416 L265.8347,87.2535 L257.788,88.8244 " fill="#000000" style="stroke:#000000;stroke-width:1.0;"/><ellipse cx="194" cy="80.5938" fill="#000000" rx="3" ry="3" style="stroke:#000000;stroke-width:1.0;"/><!--SRC=[VLB9Zjf04BttLvGuH70mMpABB8s21WYP4Pk69KTKs1NeeTrjTPSz8b-VjW4FI55ySjTxzLvjFSTe-OY94fZADLadZGu1qzIryeuuI1s7CA1KcMD2caL2Z34oXW90OqAUcfi8OnFuTE5IYWh4-WGPeGkXur-E54LiR8409CZHVenRKkuKWCBjLWU0AKaLCfrphbpB1AqD8_jIAmrl8sEAq3Qbyq1JcfRKxzutX1hRZ6fddhfn_gUtbphtKNoHqOnI-ybS8i5jvvl3ezjKh4fO9hZx95MufPqlq1wR-2Up5DcYqFyBfSRoLS71PqLpZuHmrswtA_IobJrpMWL9vzVv9yPaDXtD1i-R_cmw7VQNBxFfPh5yUvcEhhHoL9cdrXAZToRUXgrMx8SRn9IRr8LN_ptbEr1xupZiFhGx3rLByVQx9T_kBokPt5EnYIyVJmc-6nyuraIFT5nUdvWhrBoQZ24_7I5qcjrszslpVkkNVrTVwOCs7zetdwHI4R1Cg27ge_aOdCbiH10NSvNRh3YBXdZ57E4jqmKlXE9LNquQi1XUWZ3KkRH6bsVzkfwSIF3Jy28rN9BllmNFac51rjS4wuaOq6_C5FlKoCHIxq9OBNy4ZsACUfULwoOj-iORsAF75dy1]--></g></svg>