<?xml version="1.0" encoding="us-ascii" standalone="no"?><svg xmlns="http://www.w3.org/2000/svg" xmlns:xlink="http://www.w3.org/1999/xlink" contentStyleType="text/css" height="459px" preserveAspectRatio="none" style="width:1056px;height:459px;background:#FFFFFF;" version="1.1" viewBox="0 0 1056 459" width="1056px" zoomAndPan="magnify"><defs/><g><rect fill="#F1F1F1" height="405.9375" rx="5" ry="5" style="stroke:#F1F1F1;stroke-width:1.5;" width="312" x="10" y="10"/><text fill="#000000" font-family="sans-serif" font-size="14" font-weight="bold" lengthAdjust="spacing" textLength="86" x="15" y="24.9951">apiVersion</text><text fill="#000000" font-family="sans-serif" font-size="14" lengthAdjust="spacing" textLength="57" x="111" y="24.9951">apps/v1</text><line style="stroke:#000000;stroke-width:1.0;" x1="106" x2="106" y1="10" y2="30.2969"/><line style="stroke:#000000;stroke-width:1.0;" x1="10" x2="322" y1="30.2969" y2="30.2969"/><text fill="#000000" font-family="sans-serif" font-size="14" font-weight="bold" lengthAdjust="spacing" textLength="34" x="15" y="45.292">kind</text><text fill="#000000" font-family="sans-serif" font-size="14" lengthAdjust="spacing" textLength="90" x="111" y="45.292">Deployment</text><line style="stroke:#000000;stroke-width:1.0;" x1="106" x2="106" y1="30.2969" y2="50.5938"/><line style="stroke:#000000;stroke-width:1.0;" x1="10" x2="322" y1="50.5938" y2="50.5938"/><text fill="#000000" font-family="sans-serif" font-size="14" font-weight="bold" lengthAdjust="spacing" textLength="80" x="15" y="65.5889">metadata</text><text fill="#000000" font-family="sans-serif" font-size="14" lengthAdjust="spacing" textLength="12" x="111" y="65.5889">&#160;&#160;&#160;</text><line style="stroke:#000000;stroke-width:1.0;" x1="106" x2="106" y1="50.5938" y2="70.8906"/><line style="stroke:#000000;stroke-width:1.0;" x1="10" x2="322" y1="70.8906" y2="70.8906"/><text fill="#000000" font-family="sans-serif" font-size="14" font-weight="bold" lengthAdjust="spacing" textLength="37" x="15" y="85.8857">spec</text><text fill="#000000" font-family="sans-serif" font-size="14" lengthAdjust="spacing" textLength="12" x="111" y="85.8857">&#160;&#160;&#160;</text><line style="stroke:#000000;stroke-width:1.0;" x1="106" x2="106" y1="70.8906" y2="91.1875"/><line style="stroke:#000000;stroke-width:1.0;" x1="10" x2="322" y1="91.1875" y2="91.1875"/><text fill="#000000" font-family="sans-serif" font-size="14" font-weight="bold" lengthAdjust="spacing" textLength="86" x="15" y="106.1826">apiVersion</text><text fill="#000000" font-family="sans-serif" font-size="14" lengthAdjust="spacing" textLength="17" x="111" y="106.1826">v1</text><line style="stroke:#000000;stroke-width:1.0;" x1="106" x2="106" y1="91.1875" y2="111.4844"/><line style="stroke:#000000;stroke-width:1.0;" x1="10" x2="322" y1="111.4844" y2="111.4844"/><text fill="#000000" font-family="sans-serif" font-size="14" font-weight="bold" lengthAdjust="spacing" textLength="34" x="15" y="126.4795">kind</text><text fill="#000000" font-family="sans-serif" font-size="14" lengthAdjust="spacing" textLength="53" x="111" y="126.4795">Service</text><line style="stroke:#000000;stroke-width:1.0;" x1="106" x2="106" y1="111.4844" y2="131.7813"/><line style="stroke:#000000;stroke-width:1.0;" x1="10" x2="322" y1="131.7813" y2="131.7813"/><text fill="#000000" font-family="sans-serif" font-size="14" font-weight="bold" lengthAdjust="spacing" textLength="80" x="15" y="146.7764">metadata</text><text fill="#000000" font-family="sans-serif" font-size="14" lengthAdjust="spacing" textLength="12" x="111" y="146.7764">&#160;&#160;&#160;</text><line style="stroke:#000000;stroke-width:1.0;" x1="106" x2="106" y1="131.7813" y2="152.0781"/><line style="stroke:#000000;stroke-width:1.0;" x1="10" x2="322" y1="152.0781" y2="152.0781"/><text fill="#000000" font-family="sans-serif" font-size="14" font-weight="bold" lengthAdjust="spacing" textLength="37" x="15" y="167.0732">spec</text><text fill="#000000" font-family="sans-serif" font-size="14" lengthAdjust="spacing" textLength="12" x="111" y="167.0732">&#160;&#160;&#160;</text><line style="stroke:#000000;stroke-width:1.0;" x1="106" x2="106" y1="152.0781" y2="172.375"/><line style="stroke:#000000;stroke-width:1.0;" x1="10" x2="322" y1="172.375" y2="172.375"/><text fill="#000000" font-family="sans-serif" font-size="14" font-weight="bold" lengthAdjust="spacing" textLength="86" x="15" y="187.3701">apiVersion</text><text fill="#000000" font-family="sans-serif" font-size="14" lengthAdjust="spacing" textLength="206" x="111" y="187.3701">networking.istio.io/v1alpha3</text><line style="stroke:#000000;stroke-width:1.0;" x1="106" x2="106" y1="172.375" y2="192.6719"/><line style="stroke:#000000;stroke-width:1.0;" x1="10" x2="322" y1="192.6719" y2="192.6719"/><text fill="#000000" font-family="sans-serif" font-size="14" font-weight="bold" lengthAdjust="spacing" textLength="34" x="15" y="207.667">kind</text><text fill="#000000" font-family="sans-serif" font-size="14" lengthAdjust="spacing" textLength="62" x="111" y="207.667">Gateway</text><line style="stroke:#000000;stroke-width:1.0;" x1="106" x2="106" y1="192.6719" y2="212.9688"/><line style="stroke:#000000;stroke-width:1.0;" x1="10" x2="322" y1="212.9688" y2="212.9688"/><text fill="#000000" font-family="sans-serif" font-size="14" font-weight="bold" lengthAdjust="spacing" textLength="80" x="15" y="227.9639">metadata</text><text fill="#000000" font-family="sans-serif" font-size="14" lengthAdjust="spacing" textLength="12" x="111" y="227.9639">&#160;&#160;&#160;</text><line style="stroke:#000000;stroke-width:1.0;" x1="106" x2="106" y1="212.9688" y2="233.2656"/><line style="stroke:#000000;stroke-width:1.0;" x1="10" x2="322" y1="233.2656" y2="233.2656"/><text fill="#000000" font-family="sans-serif" font-size="14" font-weight="bold" lengthAdjust="spacing" textLength="37" x="15" y="248.2607">spec</text><text fill="#000000" font-family="sans-serif" font-size="14" lengthAdjust="spacing" textLength="12" x="111" y="248.2607">&#160;&#160;&#160;</text><line style="stroke:#000000;stroke-width:1.0;" x1="106" x2="106" y1="233.2656" y2="253.5625"/><line style="stroke:#000000;stroke-width:1.0;" x1="10" x2="322" y1="253.5625" y2="253.5625"/><text fill="#000000" font-family="sans-serif" font-size="14" font-weight="bold" lengthAdjust="spacing" textLength="86" x="15" y="268.5576">apiVersion</text><text fill="#000000" font-family="sans-serif" font-size="14" lengthAdjust="spacing" textLength="206" x="111" y="268.5576">networking.istio.io/v1alpha3</text><line style="stroke:#000000;stroke-width:1.0;" x1="106" x2="106" y1="253.5625" y2="273.8594"/><line style="stroke:#000000;stroke-width:1.0;" x1="10" x2="322" y1="273.8594" y2="273.8594"/><text fill="#000000" font-family="sans-serif" font-size="14" font-weight="bold" lengthAdjust="spacing" textLength="34" x="15" y="288.8545">kind</text><text fill="#000000" font-family="sans-serif" font-size="14" lengthAdjust="spacing" textLength="100" x="111" y="288.8545">VirtualService</text><line style="stroke:#000000;stroke-width:1.0;" x1="106" x2="106" y1="273.8594" y2="294.1563"/><line style="stroke:#000000;stroke-width:1.0;" x1="10" x2="322" y1="294.1563" y2="294.1563"/><text fill="#000000" font-family="sans-serif" font-size="14" font-weight="bold" lengthAdjust="spacing" textLength="80" x="15" y="309.1514">metadata</text><text fill="#000000" font-family="sans-serif" font-size="14" lengthAdjust="spacing" textLength="12" x="111" y="309.1514">&#160;&#160;&#160;</text><line style="stroke:#000000;stroke-width:1.0;" x1="106" x2="106" y1="294.1563" y2="314.4531"/><line style="stroke:#000000;stroke-width:1.0;" x1="10" x2="322" y1="314.4531" y2="314.4531"/><text fill="#000000" font-family="sans-serif" font-size="14" font-weight="bold" lengthAdjust="spacing" textLength="37" x="15" y="329.4482">spec</text><text fill="#000000" font-family="sans-serif" font-size="14" lengthAdjust="spacing" textLength="12" x="111" y="329.4482">&#160;&#160;&#160;</text><line style="stroke:#000000;stroke-width:1.0;" x1="106" x2="106" y1="314.4531" y2="334.75"/><line style="stroke:#000000;stroke-width:1.0;" x1="10" x2="322" y1="334.75" y2="334.75"/><text fill="#000000" font-family="sans-serif" font-size="14" font-weight="bold" lengthAdjust="spacing" textLength="86" x="15" y="349.7451">apiVersion</text><text fill="#000000" font-family="sans-serif" font-size="14" lengthAdjust="spacing" textLength="206" x="111" y="349.7451">networking.istio.io/v1alpha3</text><line style="stroke:#000000;stroke-width:1.0;" x1="106" x2="106" y1="334.75" y2="355.0469"/><line style="stroke:#000000;stroke-width:1.0;" x1="10" x2="322" y1="355.0469" y2="355.0469"/><text fill="#000000" font-family="sans-serif" font-size="14" font-weight="bold" lengthAdjust="spacing" textLength="34" x="15" y="370.042">kind</text><text fill="#000000" font-family="sans-serif" font-size="14" lengthAdjust="spacing" textLength="115" x="111" y="370.042">DestinationRule</text><line style="stroke:#000000;stroke-width:1.0;" x1="106" x2="106" y1="355.0469" y2="375.3438"/><line style="stroke:#000000;stroke-width:1.0;" x1="10" x2="322" y1="375.3438" y2="375.3438"/><text fill="#000000" font-family="sans-serif" font-size="14" font-weight="bold" lengthAdjust="spacing" textLength="80" x="15" y="390.3389">metadata</text><text fill="#000000" font-family="sans-serif" font-size="14" lengthAdjust="spacing" textLength="12" x="111" y="390.3389">&#160;&#160;&#160;</text><line style="stroke:#000000;stroke-width:1.0;" x1="106" x2="106" y1="375.3438" y2="395.6406"/><line style="stroke:#000000;stroke-width:1.0;" x1="10" x2="322" y1="395.6406" y2="395.6406"/><text fill="#000000" font-family="sans-serif" font-size="14" font-weight="bold" lengthAdjust="spacing" textLength="37" x="15" y="410.6357">spec</text><text fill="#000000" font-family="sans-serif" font-size="14" lengthAdjust="spacing" textLength="12" x="111" y="410.6357">&#160;&#160;&#160;</text><line style="stroke:#000000;stroke-width:1.0;" x1="106" x2="106" y1="395.6406" y2="415.9375"/><rect fill="none" height="405.9375" rx="5" ry="5" style="stroke:#000000;stroke-width:1.5;" width="312" x="10" y="10"/><rect fill="#F1F1F1" height="20.2969" rx="5" ry="5" style="stroke:#F1F1F1;stroke-width:1.5;" width="151" x="479.5" y="45.8516"/><text fill="#000000" font-family="sans-serif" font-size="14" font-weight="bold" lengthAdjust="spacing" textLength="44" x="484.5" y="60.8467">name</text><text fill="#000000" font-family="sans-serif" font-size="14" lengthAdjust="spacing" textLength="87" x="538.5" y="60.8467">avocado-api</text><line style="stroke:#000000;stroke-width:1.0;" x1="533.5" x2="533.5" y1="45.8516" y2="66.1484"/><rect fill="none" height="20.2969" rx="5" ry="5" style="stroke:#000000;stroke-width:1.5;" width="151" x="479.5" y="45.8516"/><rect fill="#F1F1F1" height="20.2969" rx="5" ry="5" style="stroke:#F1F1F1;stroke-width:1.5;" width="22" x="544" y="83.8516"/><text fill="#000000" font-family="sans-serif" font-size="14" lengthAdjust="spacing" textLength="12" x="549" y="98.8467">--</text><rect fill="none" height="20.2969" rx="5" ry="5" style="stroke:#000000;stroke-width:1.5;" width="22" x="544" y="83.8516"/><rect fill="#F1F1F1" height="20.2969" rx="5" ry="5" style="stroke:#F1F1F1;stroke-width:1.5;" width="151" x="479.5" y="122.8516"/><text fill="#000000" font-family="sans-serif" font-size="14" font-weight="bold" lengthAdjust="spacing" textLength="44" x="484.5" y="137.8467">name</text><text fill="#000000" font-family="sans-serif" font-size="14" lengthAdjust="spacing" textLength="87" x="538.5" y="137.8467">avocado-api</text><line style="stroke:#000000;stroke-width:1.0;" x1="533.5" x2="533.5" y1="122.8516" y2="143.1484"/><rect fill="none" height="20.2969" rx="5" ry="5" style="stroke:#000000;stroke-width:1.5;" width="151" x="479.5" y="122.8516"/><rect fill="#F1F1F1" height="20.2969" rx="5" ry="5" style="stroke:#F1F1F1;stroke-width:1.5;" width="22" x="544" y="160.8516"/><text fill="#000000" font-family="sans-serif" font-size="14" lengthAdjust="spacing" textLength="12" x="549" y="175.8467">--</text><rect fill="none" height="20.2969" rx="5" ry="5" style="stroke:#000000;stroke-width:1.5;" width="22" x="544" y="160.8516"/><rect fill="#F1F1F1" height="20.2969" rx="5" ry="5" style="stroke:#F1F1F1;stroke-width:1.5;" width="217" x="446.5" y="200.8516"/><text fill="#000000" font-family="sans-serif" font-size="14" font-weight="bold" lengthAdjust="spacing" textLength="44" x="451.5" y="215.8467">name</text><text fill="#000000" font-family="sans-serif" font-size="14" lengthAdjust="spacing" textLength="153" x="505.5" y="215.8467">avocado-api-gateway</text><line style="stroke:#000000;stroke-width:1.0;" x1="500.5" x2="500.5" y1="200.8516" y2="221.1484"/><rect fill="none" height="20.2969" rx="5" ry="5" style="stroke:#000000;stroke-width:1.5;" width="217" x="446.5" y="200.8516"/><rect fill="#F1F1F1" height="20.2969" rx="5" ry="5" style="stroke:#F1F1F1;stroke-width:1.5;" width="22" x="544" y="238.8516"/><text fill="#000000" font-family="sans-serif" font-size="14" lengthAdjust="spacing" textLength="12" x="549" y="253.8467">--</text><rect fill="none" height="20.2969" rx="5" ry="5" style="stroke:#000000;stroke-width:1.5;" width="22" x="544" y="238.8516"/><rect fill="#F1F1F1" height="20.2969" rx="5" ry="5" style="stroke:#F1F1F1;stroke-width:1.5;" width="151" x="479.5" y="281.8516"/><text fill="#000000" font-family="sans-serif" font-size="14" font-weight="bold" lengthAdjust="spacing" textLength="44" x="484.5" y="296.8467">name</text><text fill="#000000" font-family="sans-serif" font-size="14" lengthAdjust="spacing" textLength="87" x="538.5" y="296.8467">avocado-api</text><line style="stroke:#000000;stroke-width:1.0;" x1="533.5" x2="533.5" y1="281.8516" y2="302.1484"/><rect fill="none" height="20.2969" rx="5" ry="5" style="stroke:#000000;stroke-width:1.5;" width="151" x="479.5" y="281.8516"/><rect fill="#F1F1F1" height="20.2969" rx="5" ry="5" style="stroke:#F1F1F1;stroke-width:1.5;" width="22" x="544" y="319.8516"/><text fill="#000000" font-family="sans-serif" font-size="14" lengthAdjust="spacing" textLength="12" x="549" y="334.8467">--</text><rect fill="none" height="20.2969" rx="5" ry="5" style="stroke:#000000;stroke-width:1.5;" width="22" x="544" y="319.8516"/><rect fill="#F1F1F1" height="20.2969" rx="5" ry="5" style="stroke:#F1F1F1;stroke-width:1.5;" width="151" x="479.5" y="367.8516"/><text fill="#000000" font-family="sans-serif" font-size="14" font-weight="bold" lengthAdjust="spacing" textLength="44" x="484.5" y="382.8467">name</text><text fill="#000000" font-family="sans-serif" font-size="14" lengthAdjust="spacing" textLength="87" x="538.5" y="382.8467">avocado-api</text><line style="stroke:#000000;stroke-width:1.0;" x1="533.5" x2="533.5" y1="367.8516" y2="388.1484"/><rect fill="none" height="20.2969" rx="5" ry="5" style="stroke:#000000;stroke-width:1.5;" width="151" x="479.5" y="367.8516"/><rect fill="#F1F1F1" height="40.5938" rx="5" ry="5" style="stroke:#F1F1F1;stroke-width:1.5;" width="392" x="359" y="406.5"/><text fill="#000000" font-family="sans-serif" font-size="14" font-weight="bold" lengthAdjust="spacing" textLength="37" x="364" y="421.4951">host</text><text fill="#000000" font-family="sans-serif" font-size="14" lengthAdjust="spacing" textLength="271" x="475" y="421.4951">avocado-api.avocado.svc.cluster.local</text><line style="stroke:#000000;stroke-width:1.0;" x1="470" x2="470" y1="406.5" y2="426.7969"/><line style="stroke:#000000;stroke-width:1.0;" x1="359" x2="751" y1="426.7969" y2="426.7969"/><text fill="#000000" font-family="sans-serif" font-size="14" font-weight="bold" lengthAdjust="spacing" textLength="101" x="364" y="441.792">trafficPolicy</text><text fill="#000000" font-family="sans-serif" font-size="14" lengthAdjust="spacing" textLength="12" x="475" y="441.792">&#160;&#160;&#160;</text><line style="stroke:#000000;stroke-width:1.0;" x1="470" x2="470" y1="426.7969" y2="447.0938"/><rect fill="none" height="40.5938" rx="5" ry="5" style="stroke:#000000;stroke-width:1.5;" width="392" x="359" y="406.5"/><rect fill="#F1F1F1" height="20.2969" rx="5" ry="5" style="stroke:#F1F1F1;stroke-width:1.5;" width="54" x="788" y="426.8516"/><text fill="#000000" font-family="sans-serif" font-size="14" font-weight="bold" lengthAdjust="spacing" textLength="22" x="793" y="441.8467">tls</text><text fill="#000000" font-family="sans-serif" font-size="14" lengthAdjust="spacing" textLength="12" x="825" y="441.8467">&#160;&#160;&#160;</text><line style="stroke:#000000;stroke-width:1.0;" x1="820" x2="820" y1="426.8516" y2="447.1484"/><rect fill="none" height="20.2969" rx="5" ry="5" style="stroke:#000000;stroke-width:1.5;" width="54" x="788" y="426.8516"/><rect fill="#F1F1F1" height="20.2969" rx="5" ry="5" style="stroke:#F1F1F1;stroke-width:1.5;" width="165" x="879" y="426.8516"/><text fill="#000000" font-family="sans-serif" font-size="14" font-weight="bold" lengthAdjust="spacing" textLength="44" x="884" y="441.8467">mode</text><text fill="#000000" font-family="sans-serif" font-size="14" lengthAdjust="spacing" textLength="101" x="938" y="441.8467">ISTIO_MUTUAL</text><line style="stroke:#000000;stroke-width:1.0;" x1="933" x2="933" y1="426.8516" y2="447.1484"/><rect fill="none" height="20.2969" rx="5" ry="5" style="stroke:#000000;stroke-width:1.5;" width="165" x="879" y="426.8516"/><path d="M310,61 L323,61 C372.5925,61 428.1469,59.8389 472.4011,58.6358 " fill="none" style="stroke:#000000;stroke-width:1.0;stroke-dasharray:3.0,3.0;"/><path d="M472.4847,61.6613 L474.6702,58.5731 L472.3175,55.6103 L479.9648,58.4268 L472.4847,61.6613 " fill="#000000" style="stroke:#000000;stroke-width:1.0;"/><ellipse cx="310" cy="61" fill="#000000" rx="3" ry="3" style="stroke:#000000;stroke-width:1.0;"/><path d="M310,81 L323,81 C402.7129,81 497.6227,88.7785 536.5229,92.3017 " fill="none" style="stroke:#000000;stroke-width:1.0;stroke-dasharray:3.0,3.0;"/><path d="M536.2344,95.4354 L538.8732,92.5181 L536.8114,89.1681 L544.3571,93.0229 L536.2344,95.4354 " fill="#000000" style="stroke:#000000;stroke-width:1.0;"/><ellipse cx="310" cy="81" fill="#000000" rx="3" ry="3" style="stroke:#000000;stroke-width:1.0;"/><path d="M310,142 L323,142 C372.6184,142 428.1737,139.9101 472.422,137.7444 " fill="none" style="stroke:#000000;stroke-width:1.0;stroke-dasharray:3.0,3.0;"/><path d="M472.5725,140.7694 L474.6908,137.6315 L472.2715,134.7194 L479.9846,137.3682 L472.5725,140.7694 " fill="#000000" style="stroke:#000000;stroke-width:1.0;"/><ellipse cx="310" cy="142" fill="#000000" rx="3" ry="3" style="stroke:#000000;stroke-width:1.0;"/><path d="M310,162 L323,162 C402.6477,162 497.5931,167.3851 536.5129,169.8243 " fill="none" style="stroke:#000000;stroke-width:1.0;stroke-dasharray:3.0,3.0;"/><path d="M536.3132,172.9596 L538.8644,169.9741 L536.7126,166.689 L544.3511,170.3235 L536.3132,172.9596 " fill="#000000" style="stroke:#000000;stroke-width:1.0;"/><ellipse cx="310" cy="162" fill="#000000" rx="3" ry="3" style="stroke:#000000;stroke-width:1.0;"/><path d="M310,223 L323,223 C360.7603,223 401.9387,221.3881 438.9574,219.3458 " fill="none" style="stroke:#000000;stroke-width:1.0;stroke-dasharray:3.0,3.0;"/><path d="M439.1341,222.4792 L441.3074,219.2132 L438.7806,216.2123 L446.7909,218.9038 L439.1341,222.4792 " fill="#000000" style="stroke:#000000;stroke-width:1.0;"/><ellipse cx="310" cy="223" fill="#000000" rx="3" ry="3" style="stroke:#000000;stroke-width:1.0;"/><path d="M310,243 L323,243 C402.6143,243 497.578,246.5901 536.5077,248.2162 " fill="none" style="stroke:#000000;stroke-width:1.0;stroke-dasharray:3.0,3.0;"/><path d="M536.3746,251.3523 L538.8598,248.316 L536.6409,245.08 L544.3481,248.549 L536.3746,251.3523 " fill="#000000" style="stroke:#000000;stroke-width:1.0;"/><ellipse cx="310" cy="243" fill="#000000" rx="3" ry="3" style="stroke:#000000;stroke-width:1.0;"/><path d="M310,304 L323,304 C372.5524,304 427.9911,301.2241 472.191,298.3425 " fill="none" style="stroke:#000000;stroke-width:1.0;stroke-dasharray:3.0,3.0;"/><path d="M472.3913,301.3644 L474.4575,298.1923 L471.9908,295.3205 L479.746,297.8418 L472.3913,301.3644 " fill="#000000" style="stroke:#000000;stroke-width:1.0;"/><ellipse cx="310" cy="304" fill="#000000" rx="3" ry="3" style="stroke:#000000;stroke-width:1.0;"/><path d="M310,325 L323,325 C402.6061,325 497.5743,327.9917 536.5065,329.3468 " fill="none" style="stroke:#000000;stroke-width:1.0;stroke-dasharray:3.0,3.0;"/><path d="M536.3955,332.4832 L538.8587,329.43 L536.6174,326.2105 L544.3474,329.6242 L536.3955,332.4832 " fill="#000000" style="stroke:#000000;stroke-width:1.0;"/><ellipse cx="310" cy="325" fill="#000000" rx="3" ry="3" style="stroke:#000000;stroke-width:1.0;"/><path d="M310,385 L323,385 C372.6036,385 428.1584,383.3745 472.4101,381.6901 " fill="none" style="stroke:#000000;stroke-width:1.0;stroke-dasharray:3.0,3.0;"/><path d="M472.5271,384.7154 L474.679,381.6023 L472.293,378.6648 L479.9733,381.3975 L472.5271,384.7154 " fill="#000000" style="stroke:#000000;stroke-width:1.0;"/><ellipse cx="310" cy="385" fill="#000000" rx="3" ry="3" style="stroke:#000000;stroke-width:1.0;"/><path d="M830,437 L843,437 C852.2948,437 862.0014,437 871.6819,437 " fill="none" style="stroke:#000000;stroke-width:1.0;stroke-dasharray:3.0,3.0;"/><path d="M871.6819,440.0998 L874.0068,437 L871.6819,433.9002 L879.4315,437 L871.6819,440.0998 " fill="#000000" style="stroke:#000000;stroke-width:1.0;"/><ellipse cx="830" cy="437" fill="#000000" rx="3" ry="3" style="stroke:#000000;stroke-width:1.0;"/><path d="M739,437 L752,437 C761.3248,437 771.4322,437 780.7459,437 " fill="none" style="stroke:#000000;stroke-width:1.0;stroke-dasharray:3.0,3.0;"/><path d="M780.7459,440.0409 L783.0266,437 L780.7459,433.9591 L788.3482,437 L780.7459,440.0409 " fill="#000000" style="stroke:#000000;stroke-width:1.0;"/><ellipse cx="739" cy="437" fill="#000000" rx="3" ry="3" style="stroke:#000000;stroke-width:1.0;"/><path d="M310,406 L323,406 C332.4868,406 342.1834,406.1771 351.9712,406.4987 " fill="none" style="stroke:#000000;stroke-width:1.0;stroke-dasharray:3.0,3.0;"/><path d="M351.8618,409.499 L354.2214,406.5808 L352.0807,403.4985 L359.4719,406.7723 L351.8618,409.499 " fill="#000000" style="stroke:#000000;stroke-width:1.0;"/><ellipse cx="310" cy="406" fill="#000000" rx="3" ry="3" style="stroke:#000000;stroke-width:1.0;"/><!--SRC=[dLNRJjj047ttLunIgO9ATX8e5rb2fK0AGRc9NFeORUmXMLZlMhjhe_JhExx4Tbg403_PCsTdvfoT6LyQoxJTiaWuBEOBr8OhwGEBOzDEkyupbw4FDnWBjOrGMYT2oq9ccUy0I1OXGLCLi52vTDmnCGQPHzC17Z3ZGvU-30eChDAP1o1YDjWCs0g5AGoGPTkF0s0nYWMpM9vfPCqFIAaiirHg5OFIy103fZrkoE5nrURoYVBwqB8wmLQ94tkPNyrDeKeUsHCeQHcNfCpEukupNpwVcsM5gWBpYArhKENNkAO2zTPZVnADWSuAVJjGhBHj5EpM5Kt8uyD9fzEflBjRsLWRLqQKQVDyWHYEHxVZcwlbzNWqwbtF-kFHSZfxw8zk6x5I9XA2jY8brofS-UrsIEAw8QOgDdxZ_L8G0x5Hnlf7PvtkMKKfNFtGI7H_QsxHN6GtyVNb8c9FYWpRbkEwxbxZLJqtHPto0D_PSFijzigTDaHq_vSerihI5GaVPjSJfvRTX_ETj3GcQxHxYjjjJ646YeLNJ30Pq9tzIqUYVL6Q6AthjaoxJCGRTbmIlQKkVs7RjucwwnBrEk4yjW-KHgCn9HQ-mDmWs0r2Y8yi4HRw6Mu7WrtCB9fEomPt2-8bQvb4AzGD6TwGxcusAxJBsg3IklMjzHbL5bpRX8cFTK6Lk4WBEuQbxJKz8UTI-BLATWl79SceCfdlc7fsyWPlnl7ATy-aWHU8n5ZKNZuBU-FhD-UpblGJkjpKPJqauYF2lBzkgzdZ8mycYdRujYZTrYipKY5bwKzfOoo7yzdyvy2vH1dcln1dGdDWvyC1f0Kdw7f7dQDZxtH5TPuSpEMpL2-IDbWKSq6zoICyT0vk9mCmAj41TMgs7FagoGWUElSiPV2Go0pdG_PrC1iUmhItCq9FfbmhcV-RxXV30WHtoavZPNFmwNVtYjjydw26nT2vAOUX9mCLajO-p6U_t7DdmEGwoNSsIkTQKGAz9T_qBm00]--></g></svg>