<?xml version="1.0" encoding="us-ascii" standalone="no"?><svg xmlns="http://www.w3.org/2000/svg" xmlns:xlink="http://www.w3.org/1999/xlink" contentStyleType="text/css" height="127px" preserveAspectRatio="none" style="width:1056px;height:127px;background:#FFFFFF;" version="1.1" viewBox="0 0 1056 127" width="1056px" zoomAndPan="magnify"><defs/><g><rect fill="#F1F1F1" height="81.1875" rx="5" ry="5" style="stroke:#F1F1F1;stroke-width:1.5;" width="312" x="10" y="10"/><text fill="#000000" font-family="sans-serif" font-size="14" font-weight="bold" lengthAdjust="spacing" textLength="86" x="15" y="24.9951">apiVersion</text><text fill="#000000" font-family="sans-serif" font-size="14" lengthAdjust="spacing" textLength="206" x="111" y="24.9951">networking.istio.io/v1alpha3</text><line style="stroke:#000000;stroke-width:1.0;" x1="106" x2="106" y1="10" y2="30.2969"/><line style="stroke:#000000;stroke-width:1.0;" x1="10" x2="322" y1="30.2969" y2="30.2969"/><text fill="#000000" font-family="sans-serif" font-size="14" font-weight="bold" lengthAdjust="spacing" textLength="34" x="15" y="45.292">kind</text><text fill="#000000" font-family="sans-serif" font-size="14" lengthAdjust="spacing" textLength="115" x="111" y="45.292">DestinationRule</text><line style="stroke:#000000;stroke-width:1.0;" x1="106" x2="106" y1="30.2969" y2="50.5938"/><line style="stroke:#000000;stroke-width:1.0;" x1="10" x2="322" y1="50.5938" y2="50.5938"/><text fill="#000000" font-family="sans-serif" font-size="14" font-weight="bold" lengthAdjust="spacing" textLength="80" x="15" y="65.5889">metadata</text><text fill="#000000" font-family="sans-serif" font-size="14" lengthAdjust="spacing" textLength="12" x="111" y="65.5889">&#160;&#160;&#160;</text><line style="stroke:#000000;stroke-width:1.0;" x1="106" x2="106" y1="50.5938" y2="70.8906"/><line style="stroke:#000000;stroke-width:1.0;" x1="10" x2="322" y1="70.8906" y2="70.8906"/><text fill="#000000" font-family="sans-serif" font-size="14" font-weight="bold" lengthAdjust="spacing" textLength="37" x="15" y="85.8857">spec</text><text fill="#000000" font-family="sans-serif" font-size="14" lengthAdjust="spacing" textLength="12" x="111" y="85.8857">&#160;&#160;&#160;</text><line style="stroke:#000000;stroke-width:1.0;" x1="106" x2="106" y1="70.8906" y2="91.1875"/><rect fill="none" height="81.1875" rx="5" ry="5" style="stroke:#000000;stroke-width:1.5;" width="312" x="10" y="10"/><rect fill="#F1F1F1" height="20.2969" rx="5" ry="5" style="stroke:#F1F1F1;stroke-width:1.5;" width="151" x="479.5" y="36.4453"/><text fill="#000000" font-family="sans-serif" font-size="14" font-weight="bold" lengthAdjust="spacing" textLength="44" x="484.5" y="51.4404">name</text><text fill="#000000" font-family="sans-serif" font-size="14" lengthAdjust="spacing" textLength="87" x="538.5" y="51.4404">avocado-api</text><line style="stroke:#000000;stroke-width:1.0;" x1="533.5" x2="533.5" y1="36.4453" y2="56.7422"/><rect fill="none" height="20.2969" rx="5" ry="5" style="stroke:#000000;stroke-width:1.5;" width="151" x="479.5" y="36.4453"/><rect fill="#F1F1F1" height="40.5938" rx="5" ry="5" style="stroke:#F1F1F1;stroke-width:1.5;" width="392" x="359" y="75.0938"/><text fill="#000000" font-family="sans-serif" font-size="14" font-weight="bold" lengthAdjust="spacing" textLength="37" x="364" y="90.0889">host</text><text fill="#000000" font-family="sans-serif" font-size="14" lengthAdjust="spacing" textLength="271" x="475" y="90.0889">avocado-api.avocado.svc.cluster.local</text><line style="stroke:#000000;stroke-width:1.0;" x1="470" x2="470" y1="75.0938" y2="95.3906"/><line style="stroke:#000000;stroke-width:1.0;" x1="359" x2="751" y1="95.3906" y2="95.3906"/><text fill="#000000" font-family="sans-serif" font-size="14" font-weight="bold" lengthAdjust="spacing" textLength="101" x="364" y="110.3857">trafficPolicy</text><text fill="#000000" font-family="sans-serif" font-size="14" lengthAdjust="spacing" textLength="12" x="475" y="110.3857">&#160;&#160;&#160;</text><line style="stroke:#000000;stroke-width:1.0;" x1="470" x2="470" y1="95.3906" y2="115.6875"/><rect fill="none" height="40.5938" rx="5" ry="5" style="stroke:#000000;stroke-width:1.5;" width="392" x="359" y="75.0938"/><rect fill="#F1F1F1" height="20.2969" rx="5" ry="5" style="stroke:#F1F1F1;stroke-width:1.5;" width="54" x="788" y="95.4453"/><text fill="#000000" font-family="sans-serif" font-size="14" font-weight="bold" lengthAdjust="spacing" textLength="22" x="793" y="110.4404">tls</text><text fill="#000000" font-family="sans-serif" font-size="14" lengthAdjust="spacing" textLength="12" x="825" y="110.4404">&#160;&#160;&#160;</text><line style="stroke:#000000;stroke-width:1.0;" x1="820" x2="820" y1="95.4453" y2="115.7422"/><rect fill="none" height="20.2969" rx="5" ry="5" style="stroke:#000000;stroke-width:1.5;" width="54" x="788" y="95.4453"/><rect fill="#F1F1F1" height="20.2969" rx="5" ry="5" style="stroke:#F1F1F1;stroke-width:1.5;" width="165" x="879" y="95.4453"/><text fill="#000000" font-family="sans-serif" font-size="14" font-weight="bold" lengthAdjust="spacing" textLength="44" x="884" y="110.4404">mode</text><text fill="#000000" font-family="sans-serif" font-size="14" lengthAdjust="spacing" textLength="101" x="938" y="110.4404">ISTIO_MUTUAL</text><line style="stroke:#000000;stroke-width:1.0;" x1="933" x2="933" y1="95.4453" y2="115.7422"/><rect fill="none" height="20.2969" rx="5" ry="5" style="stroke:#000000;stroke-width:1.5;" width="165" x="879" y="95.4453"/><path d="M310,60.5938 L323,60.5938 C372.5763,60.5938 428.0159,57.3552 472.2104,53.9933 " fill="none" style="stroke:#000000;stroke-width:1.0;stroke-dasharray:3.0,3.0;"/><path d="M472.4441,57.0149 L474.4766,53.8181 L471.9768,50.9717 L479.7643,53.4092 L472.4441,57.0149 " fill="#000000" style="stroke:#000000;stroke-width:1.0;"/><ellipse cx="310" cy="60.5938" fill="#000000" rx="3" ry="3" style="stroke:#000000;stroke-width:1.0;"/><path d="M830,105.5938 L843,105.5938 C852.2948,105.5938 862.0014,105.5938 871.6819,105.5938 " fill="none" style="stroke:#000000;stroke-width:1.0;stroke-dasharray:3.0,3.0;"/><path d="M871.6819,108.6936 L874.0068,105.5938 L871.6819,102.4939 L879.4315,105.5938 L871.6819,108.6936 " fill="#000000" style="stroke:#000000;stroke-width:1.0;"/><ellipse cx="830" cy="105.5938" fill="#000000" rx="3" ry="3" style="stroke:#000000;stroke-width:1.0;"/><path d="M739,105.5938 L752,105.5938 C761.3248,105.5938 771.4322,105.5938 780.7459,105.5938 " fill="none" style="stroke:#000000;stroke-width:1.0;stroke-dasharray:3.0,3.0;"/><path d="M780.7459,108.6347 L783.0266,105.5938 L780.7459,102.5528 L788.3482,105.5938 L780.7459,108.6347 " fill="#000000" style="stroke:#000000;stroke-width:1.0;"/><ellipse cx="739" cy="105.5938" fill="#000000" rx="3" ry="3" style="stroke:#000000;stroke-width:1.0;"/><path d="M310,80.5938 L323,80.5938 C332.375,80.5938 341.9591,80.7178 351.6368,80.9432 " fill="none" style="stroke:#000000;stroke-width:1.0;stroke-dasharray:3.0,3.0;"/><path d="M351.5559,84.0549 L353.9705,81.0039 L351.7176,77.8316 L359.4159,81.1454 L351.5559,84.0549 " fill="#000000" style="stroke:#000000;stroke-width:1.0;"/><ellipse cx="310" cy="80.5938" fill="#000000" rx="3" ry="3" style="stroke:#000000;stroke-width:1.0;"/><!--SRC=[LL31Ri8m3BtdAto40zc03KqziGssWLeDqPRhPD804QbT9MaHVxzqR8VTxFUU_Vmyzm5Tk69j1JPcfvqtJ0cG3XTsPqD7QNmmB0tVTMEqpGcd8i9L0WiT2S98qhQrMjGwO8K14m50MEi4i6E55O_YOk4RhNhcn3xyO-HlBNsdfBAj3zf96o4RrS7XuM3KXgrHrtuyGjRV2e2Qg-YooelLvrTM5kLpAkQQgfymOcEHGfcbqDqomLXExYTJETl7Eny79Ps9BmIAwyPO3S7KUYW6xviKFBTEQQXYS6VsRHzmADRO8MnRwdK9zDsWo8QGB_z0M59d75EjAOZrBhk9u8D3td3u4SyUHYycGAvTl0bscLZe0xOsn575LVnr0cNnDdeIATAnnMCqqYHUEHguQ-JoRm00]--></g></svg>