<?xml version="1.0" encoding="us-ascii" standalone="no"?><svg xmlns="http://www.w3.org/2000/svg" xmlns:xlink="http://www.w3.org/1999/xlink" contentStyleType="text/css" height="170px" preserveAspectRatio="none" style="width:1557px;height:170px;background:#FFFFFF;" version="1.1" viewBox="0 0 1557 170" width="1557px" zoomAndPan="magnify"><defs/><g><rect fill="#F1F1F1" height="81.1875" rx="5" ry="5" style="stroke:#F1F1F1;stroke-width:1.5;" width="312" x="10" y="10"/><text fill="#000000" font-family="sans-serif" font-size="14" font-weight="bold" lengthAdjust="spacing" textLength="86" x="15" y="24.9951">apiVersion</text><text fill="#000000" font-family="sans-serif" font-size="14" lengthAdjust="spacing" textLength="206" x="111" y="24.9951">networking.istio.io/v1alpha3</text><line style="stroke:#000000;stroke-width:1.0;" x1="106" x2="106" y1="10" y2="30.2969"/><line style="stroke:#000000;stroke-width:1.0;" x1="10" x2="322" y1="30.2969" y2="30.2969"/><text fill="#000000" font-family="sans-serif" font-size="14" font-weight="bold" lengthAdjust="spacing" textLength="34" x="15" y="45.292">kind</text><text fill="#000000" font-family="sans-serif" font-size="14" lengthAdjust="spacing" textLength="100" x="111" y="45.292">VirtualService</text><line style="stroke:#000000;stroke-width:1.0;" x1="106" x2="106" y1="30.2969" y2="50.5938"/><line style="stroke:#000000;stroke-width:1.0;" x1="10" x2="322" y1="50.5938" y2="50.5938"/><text fill="#000000" font-family="sans-serif" font-size="14" font-weight="bold" lengthAdjust="spacing" textLength="80" x="15" y="65.5889">metadata</text><text fill="#000000" font-family="sans-serif" font-size="14" lengthAdjust="spacing" textLength="12" x="111" y="65.5889">&#160;&#160;&#160;</text><line style="stroke:#000000;stroke-width:1.0;" x1="106" x2="106" y1="50.5938" y2="70.8906"/><line style="stroke:#000000;stroke-width:1.0;" x1="10" x2="322" y1="70.8906" y2="70.8906"/><text fill="#000000" font-family="sans-serif" font-size="14" font-weight="bold" lengthAdjust="spacing" textLength="37" x="15" y="85.8857">spec</text><text fill="#000000" font-family="sans-serif" font-size="14" lengthAdjust="spacing" textLength="12" x="111" y="85.8857">&#160;&#160;&#160;</text><line style="stroke:#000000;stroke-width:1.0;" x1="106" x2="106" y1="70.8906" y2="91.1875"/><rect fill="none" height="81.1875" rx="5" ry="5" style="stroke:#000000;stroke-width:1.5;" width="312" x="10" y="10"/><rect fill="#F1F1F1" height="20.2969" rx="5" ry="5" style="stroke:#F1F1F1;stroke-width:1.5;" width="151" x="359" y="31.4453"/><text fill="#000000" font-family="sans-serif" font-size="14" font-weight="bold" lengthAdjust="spacing" textLength="44" x="364" y="46.4404">name</text><text fill="#000000" font-family="sans-serif" font-size="14" lengthAdjust="spacing" textLength="87" x="418" y="46.4404">avocado-api</text><line style="stroke:#000000;stroke-width:1.0;" x1="413" x2="413" y1="31.4453" y2="51.7422"/><rect fill="none" height="20.2969" rx="5" ry="5" style="stroke:#000000;stroke-width:1.5;" width="151" x="359" y="31.4453"/><rect fill="#F1F1F1" height="60.8906" rx="5" ry="5" style="stroke:#F1F1F1;stroke-width:1.5;" width="110" x="379.5" y="70.0938"/><text fill="#000000" font-family="sans-serif" font-size="14" font-weight="bold" lengthAdjust="spacing" textLength="46" x="384.5" y="85.0889">hosts</text><text fill="#000000" font-family="sans-serif" font-size="14" lengthAdjust="spacing" textLength="12" x="472.5" y="85.0889">&#160;&#160;&#160;</text><line style="stroke:#000000;stroke-width:1.0;" x1="467.5" x2="467.5" y1="70.0938" y2="90.3906"/><line style="stroke:#000000;stroke-width:1.0;" x1="379.5" x2="489.5" y1="90.3906" y2="90.3906"/><text fill="#000000" font-family="sans-serif" font-size="14" font-weight="bold" lengthAdjust="spacing" textLength="78" x="384.5" y="105.3857">gateways</text><text fill="#000000" font-family="sans-serif" font-size="14" lengthAdjust="spacing" textLength="12" x="472.5" y="105.3857">&#160;&#160;&#160;</text><line style="stroke:#000000;stroke-width:1.0;" x1="467.5" x2="467.5" y1="90.3906" y2="110.6875"/><line style="stroke:#000000;stroke-width:1.0;" x1="379.5" x2="489.5" y1="110.6875" y2="110.6875"/><text fill="#000000" font-family="sans-serif" font-size="14" font-weight="bold" lengthAdjust="spacing" textLength="36" x="384.5" y="125.6826">http</text><text fill="#000000" font-family="sans-serif" font-size="14" lengthAdjust="spacing" textLength="12" x="472.5" y="125.6826">&#160;&#160;&#160;</text><line style="stroke:#000000;stroke-width:1.0;" x1="467.5" x2="467.5" y1="110.6875" y2="130.9844"/><rect fill="none" height="60.8906" rx="5" ry="5" style="stroke:#000000;stroke-width:1.5;" width="110" x="379.5" y="70.0938"/><rect fill="#F1F1F1" height="20.2969" rx="5" ry="5" style="stroke:#F1F1F1;stroke-width:1.5;" width="31" x="613" y="52.4453"/><text fill="#000000" font-family="sans-serif" font-size="14" lengthAdjust="spacing" textLength="21" x="618" y="67.4404">"*"</text><rect fill="none" height="20.2969" rx="5" ry="5" style="stroke:#000000;stroke-width:1.5;" width="31" x="613" y="52.4453"/><rect fill="#F1F1F1" height="20.2969" rx="5" ry="5" style="stroke:#F1F1F1;stroke-width:1.5;" width="163" x="547" y="90.4453"/><text fill="#000000" font-family="sans-serif" font-size="14" lengthAdjust="spacing" textLength="153" x="552" y="105.4404">avocado-api-gateway</text><rect fill="none" height="20.2969" rx="5" ry="5" style="stroke:#000000;stroke-width:1.5;" width="163" x="547" y="90.4453"/><rect fill="#F1F1F1" height="20.2969" rx="5" ry="5" style="stroke:#F1F1F1;stroke-width:1.5;" width="22" x="617.5" y="128.4453"/><text fill="#000000" font-family="sans-serif" font-size="14" lengthAdjust="spacing" textLength="12" x="622.5" y="143.4404">&#160;&#160;&#160;</text><rect fill="none" height="20.2969" rx="5" ry="5" style="stroke:#000000;stroke-width:1.5;" width="22" x="617.5" y="128.4453"/><rect fill="#F1F1F1" height="20.2969" rx="5" ry="5" style="stroke:#F1F1F1;stroke-width:1.5;" width="76" x="747" y="128.4453"/><text fill="#000000" font-family="sans-serif" font-size="14" font-weight="bold" lengthAdjust="spacing" textLength="44" x="752" y="143.4404">route</text><text fill="#000000" font-family="sans-serif" font-size="14" lengthAdjust="spacing" textLength="12" x="806" y="143.4404">&#160;&#160;&#160;</text><line style="stroke:#000000;stroke-width:1.0;" x1="801" x2="801" y1="128.4453" y2="148.7422"/><rect fill="none" height="20.2969" rx="5" ry="5" style="stroke:#000000;stroke-width:1.5;" width="76" x="747" y="128.4453"/><rect fill="#F1F1F1" height="20.2969" rx="5" ry="5" style="stroke:#F1F1F1;stroke-width:1.5;" width="22" x="860" y="128.4453"/><text fill="#000000" font-family="sans-serif" font-size="14" lengthAdjust="spacing" textLength="12" x="865" y="143.4404">&#160;&#160;&#160;</text><rect fill="none" height="20.2969" rx="5" ry="5" style="stroke:#000000;stroke-width:1.5;" width="22" x="860" y="128.4453"/><rect fill="#F1F1F1" height="20.2969" rx="5" ry="5" style="stroke:#F1F1F1;stroke-width:1.5;" width="126" x="919" y="128.4453"/><text fill="#000000" font-family="sans-serif" font-size="14" font-weight="bold" lengthAdjust="spacing" textLength="94" x="924" y="143.4404">destination</text><text fill="#000000" font-family="sans-serif" font-size="14" lengthAdjust="spacing" textLength="12" x="1028" y="143.4404">&#160;&#160;&#160;</text><line style="stroke:#000000;stroke-width:1.0;" x1="1023" x2="1023" y1="128.4453" y2="148.7422"/><rect fill="none" height="20.2969" rx="5" ry="5" style="stroke:#000000;stroke-width:1.5;" width="126" x="919" y="128.4453"/><rect fill="#F1F1F1" height="40.5938" rx="5" ry="5" style="stroke:#F1F1F1;stroke-width:1.5;" width="328" x="1082" y="118.0938"/><text fill="#000000" font-family="sans-serif" font-size="14" font-weight="bold" lengthAdjust="spacing" textLength="37" x="1087" y="133.0889">host</text><text fill="#000000" font-family="sans-serif" font-size="14" lengthAdjust="spacing" textLength="271" x="1134" y="133.0889">avocado-api.avocado.svc.cluster.local</text><line style="stroke:#000000;stroke-width:1.0;" x1="1129" x2="1129" y1="118.0938" y2="138.3906"/><line style="stroke:#000000;stroke-width:1.0;" x1="1082" x2="1410" y1="138.3906" y2="138.3906"/><text fill="#000000" font-family="sans-serif" font-size="14" font-weight="bold" lengthAdjust="spacing" textLength="35" x="1087" y="153.3857">port</text><text fill="#000000" font-family="sans-serif" font-size="14" lengthAdjust="spacing" textLength="12" x="1134" y="153.3857">&#160;&#160;&#160;</text><line style="stroke:#000000;stroke-width:1.0;" x1="1129" x2="1129" y1="138.3906" y2="158.6875"/><rect fill="none" height="40.5938" rx="5" ry="5" style="stroke:#000000;stroke-width:1.5;" width="328" x="1082" y="118.0938"/><rect fill="#F1F1F1" height="20.2969" rx="5" ry="5" style="stroke:#F1F1F1;stroke-width:1.5;" width="98" x="1447" y="138.4453"/><text fill="#000000" font-family="sans-serif" font-size="14" font-weight="bold" lengthAdjust="spacing" textLength="61" x="1452" y="153.4404">number</text><text fill="#000000" font-family="sans-serif" font-size="14" lengthAdjust="spacing" textLength="17" x="1523" y="153.4404">80</text><line style="stroke:#000000;stroke-width:1.0;" x1="1518" x2="1518" y1="138.4453" y2="158.7422"/><rect fill="none" height="20.2969" rx="5" ry="5" style="stroke:#000000;stroke-width:1.5;" width="98" x="1447" y="138.4453"/><path d="M310,60.5938 L323,60.5938 C344.0572,60.5938 367.0433,57.2307 386.6082,53.3344 " fill="none" style="stroke:#000000;stroke-width:1.0;stroke-dasharray:3.0,3.0;"/><path d="M387.2375,56.3736 L388.8876,52.8625 L385.979,50.2952 L394.2062,51.7612 L387.2375,56.3736 " fill="#000000" style="stroke:#000000;stroke-width:1.0;"/><ellipse cx="310" cy="60.5938" fill="#000000" rx="3" ry="3" style="stroke:#000000;stroke-width:1.0;"/><path d="M478,80.5938 L491,80.5938 C531.8293,80.5938 578.9245,72.6375 605.9068,67.3043 " fill="none" style="stroke:#000000;stroke-width:1.0;stroke-dasharray:3.0,3.0;"/><path d="M606.5038,70.2552 L608.1199,66.8565 L605.3098,64.3534 L613.2839,65.8118 L606.5038,70.2552 " fill="#000000" style="stroke:#000000;stroke-width:1.0;"/><ellipse cx="478" cy="80.5938" fill="#000000" rx="3" ry="3" style="stroke:#000000;stroke-width:1.0;"/><path d="M478,100.5938 L491,100.5938 C506.6366,100.5938 523.2771,100.5938 539.3746,100.5938 " fill="none" style="stroke:#000000;stroke-width:1.0;stroke-dasharray:3.0,3.0;"/><path d="M539.3746,103.7346 L541.7302,100.5938 L539.3746,97.4529 L547.2267,100.5938 L539.3746,103.7346 " fill="#000000" style="stroke:#000000;stroke-width:1.0;"/><ellipse cx="478" cy="100.5938" fill="#000000" rx="3" ry="3" style="stroke:#000000;stroke-width:1.0;"/><path d="M1398,148.5938 L1411,148.5938 C1420.2605,148.5938 1430.0919,148.5938 1439.6496,148.5938 " fill="none" style="stroke:#000000;stroke-width:1.0;stroke-dasharray:3.0,3.0;"/><path d="M1439.6496,151.6298 L1441.9267,148.5938 L1439.6496,145.5577 L1447.2398,148.5938 L1439.6496,151.6298 " fill="#000000" style="stroke:#000000;stroke-width:1.0;"/><ellipse cx="1398" cy="148.5938" fill="#000000" rx="3" ry="3" style="stroke:#000000;stroke-width:1.0;"/><path d="M1033,138.5938 L1046,138.5938 C1055.453,138.5938 1065.158,138.5938 1074.9538,138.5938 " fill="none" style="stroke:#000000;stroke-width:1.0;stroke-dasharray:3.0,3.0;"/><path d="M1074.9538,141.5961 L1077.2056,138.5938 L1074.9538,135.5914 L1082.4597,138.5938 L1074.9538,141.5961 " fill="#000000" style="stroke:#000000;stroke-width:1.0;"/><ellipse cx="1033" cy="138.5938" fill="#000000" rx="3" ry="3" style="stroke:#000000;stroke-width:1.0;"/><path d="M869.8576,138.5938 L882.8576,138.5938 C890.2874,138.5938 900.6825,138.5938 911.956,138.5938 " fill="none" style="stroke:#000000;stroke-width:1.0;stroke-dasharray:3.0,3.0;"/><path d="M911.956,141.5989 L914.2099,138.5938 L911.956,135.5886 L919.4688,138.5938 L911.956,141.5989 " fill="#000000" style="stroke:#000000;stroke-width:1.0;"/><ellipse cx="869.8576" cy="138.5938" fill="#000000" rx="3" ry="3" style="stroke:#000000;stroke-width:1.0;"/><path d="M811,138.5938 L824,138.5938 C833.4213,138.5938 843.9164,138.5938 852.5483,138.5938 " fill="none" style="stroke:#000000;stroke-width:1.0;stroke-dasharray:3.0,3.0;"/><path d="M852.5483,141.6374 L854.8311,138.5938 L852.5483,135.5501 L860.1575,138.5938 L852.5483,141.6374 " fill="#000000" style="stroke:#000000;stroke-width:1.0;"/><ellipse cx="811" cy="138.5938" fill="#000000" rx="3" ry="3" style="stroke:#000000;stroke-width:1.0;"/><path d="M627.1832,138.5938 L640.1832,138.5938 C660.7063,138.5938 705.4185,138.5938 739.6732,138.5938 " fill="none" style="stroke:#000000;stroke-width:1.0;stroke-dasharray:3.0,3.0;"/><path d="M739.6732,141.6248 L741.9464,138.5938 L739.6732,135.5627 L747.2508,138.5938 L739.6732,141.6248 " fill="#000000" style="stroke:#000000;stroke-width:1.0;"/><ellipse cx="627.1832" cy="138.5938" fill="#000000" rx="3" ry="3" style="stroke:#000000;stroke-width:1.0;"/><path d="M478,120.5938 L491,120.5938 C534.0764,120.5938 584.1273,129.4499 610.1747,134.7382 " fill="none" style="stroke:#000000;stroke-width:1.0;stroke-dasharray:3.0,3.0;"/><path d="M609.5443,137.7679 L612.4469,135.2109 L610.805,131.7085 L617.7489,136.314 L609.5443,137.7679 " fill="#000000" style="stroke:#000000;stroke-width:1.0;"/><ellipse cx="478" cy="120.5938" fill="#000000" rx="3" ry="3" style="stroke:#000000;stroke-width:1.0;"/><path d="M310,80.5938 L323,80.5938 C339.0703,80.5938 356.2449,82.6493 372.1641,85.4424 " fill="none" style="stroke:#000000;stroke-width:1.0;stroke-dasharray:3.0,3.0;"/><path d="M371.5942,88.5238 L374.4752,85.8698 L372.7339,82.3609 L379.8678,86.867 L371.5942,88.5238 " fill="#000000" style="stroke:#000000;stroke-width:1.0;"/><ellipse cx="310" cy="80.5938" fill="#000000" rx="3" ry="3" style="stroke:#000000;stroke-width:1.0;"/><!--SRC=[LL5DRy8m3BtdLrWxmQHsm3uqzJHjOviGIDE0tathbOWqhXAdY7-_1DXNBh7VyxDVd0SlwEI0hL7OwPASrsmBi2HxTZjjcrnxqPnhlkh7QBejNgi8rmMKsab0ioJNwufKIu8r2XOAm69B1M3F5TQSnRxATrGbPijUV0eokBYyY7U3GdiydB4_akpC9958T-8T1w4KfgIcwCoY9CD7A9qquD_e_1pdlg_ooWGlv78J8VEZwTZ9RuTeFxGRSWNSZzG3sVgu7FLkqCfwCOV-j2COvvFHv3g_syI7tmxMTcTvRw7YjjE6G7HBGpLuVP-3v-0gWZekqkbDI7w7QeOzmaUmgQw0b0rMYo4ifzyWJ6sl7TkMhAXPkJWLmHlBicCv5j_TP8zQ8Fq0EIWNwfa-CHY9qehh-7S5h5SlsRsQesq2Dd4GMVN4SO0xH6xv1G00]--></g></svg>