<?xml version="1.0" encoding="us-ascii" standalone="no"?><svg xmlns="http://www.w3.org/2000/svg" xmlns:xlink="http://www.w3.org/1999/xlink" contentStyleType="text/css" height="166px" preserveAspectRatio="none" style="width:1071px;height:166px;background:#FFFFFF;" version="1.1" viewBox="0 0 1071 166" width="1071px" zoomAndPan="magnify"><defs/><g><rect fill="#F1F1F1" height="81.1875" rx="5" ry="5" style="stroke:#F1F1F1;stroke-width:1.5;" width="312" x="10" y="10"/><text fill="#000000" font-family="sans-serif" font-size="14" font-weight="bold" lengthAdjust="spacing" textLength="86" x="15" y="24.9951">apiVersion</text><text fill="#000000" font-family="sans-serif" font-size="14" lengthAdjust="spacing" textLength="206" x="111" y="24.9951">networking.istio.io/v1alpha3</text><line style="stroke:#000000;stroke-width:1.0;" x1="106" x2="106" y1="10" y2="30.2969"/><line style="stroke:#000000;stroke-width:1.0;" x1="10" x2="322" y1="30.2969" y2="30.2969"/><text fill="#000000" font-family="sans-serif" font-size="14" font-weight="bold" lengthAdjust="spacing" textLength="34" x="15" y="45.292">kind</text><text fill="#000000" font-family="sans-serif" font-size="14" lengthAdjust="spacing" textLength="62" x="111" y="45.292">Gateway</text><line style="stroke:#000000;stroke-width:1.0;" x1="106" x2="106" y1="30.2969" y2="50.5938"/><line style="stroke:#000000;stroke-width:1.0;" x1="10" x2="322" y1="50.5938" y2="50.5938"/><text fill="#000000" font-family="sans-serif" font-size="14" font-weight="bold" lengthAdjust="spacing" textLength="80" x="15" y="65.5889">metadata</text><text fill="#000000" font-family="sans-serif" font-size="14" lengthAdjust="spacing" textLength="12" x="111" y="65.5889">&#160;&#160;&#160;</text><line style="stroke:#000000;stroke-width:1.0;" x1="106" x2="106" y1="50.5938" y2="70.8906"/><line style="stroke:#000000;stroke-width:1.0;" x1="10" x2="322" y1="70.8906" y2="70.8906"/><text fill="#000000" font-family="sans-serif" font-size="14" font-weight="bold" lengthAdjust="spacing" textLength="37" x="15" y="85.8857">spec</text><text fill="#000000" font-family="sans-serif" font-size="14" lengthAdjust="spacing" textLength="12" x="111" y="85.8857">&#160;&#160;&#160;</text><line style="stroke:#000000;stroke-width:1.0;" x1="106" x2="106" y1="70.8906" y2="91.1875"/><rect fill="none" height="81.1875" rx="5" ry="5" style="stroke:#000000;stroke-width:1.5;" width="312" x="10" y="10"/><rect fill="#F1F1F1" height="20.2969" rx="5" ry="5" style="stroke:#F1F1F1;stroke-width:1.5;" width="217" x="359" y="36.4453"/><text fill="#000000" font-family="sans-serif" font-size="14" font-weight="bold" lengthAdjust="spacing" textLength="44" x="364" y="51.4404">name</text><text fill="#000000" font-family="sans-serif" font-size="14" lengthAdjust="spacing" textLength="153" x="418" y="51.4404">avocado-api-gateway</text><line style="stroke:#000000;stroke-width:1.0;" x1="413" x2="413" y1="36.4453" y2="56.7422"/><rect fill="none" height="20.2969" rx="5" ry="5" style="stroke:#000000;stroke-width:1.5;" width="217" x="359" y="36.4453"/><rect fill="#F1F1F1" height="40.5938" rx="5" ry="5" style="stroke:#F1F1F1;stroke-width:1.5;" width="98" x="418.5" y="75.0938"/><text fill="#000000" font-family="sans-serif" font-size="14" font-weight="bold" lengthAdjust="spacing" textLength="66" x="423.5" y="90.0889">selector</text><text fill="#000000" font-family="sans-serif" font-size="14" lengthAdjust="spacing" textLength="12" x="499.5" y="90.0889">&#160;&#160;&#160;</text><line style="stroke:#000000;stroke-width:1.0;" x1="494.5" x2="494.5" y1="75.0938" y2="95.3906"/><line style="stroke:#000000;stroke-width:1.0;" x1="418.5" x2="516.5" y1="95.3906" y2="95.3906"/><text fill="#000000" font-family="sans-serif" font-size="14" font-weight="bold" lengthAdjust="spacing" textLength="59" x="423.5" y="110.3857">servers</text><text fill="#000000" font-family="sans-serif" font-size="14" lengthAdjust="spacing" textLength="12" x="499.5" y="110.3857">&#160;&#160;&#160;</text><line style="stroke:#000000;stroke-width:1.0;" x1="494.5" x2="494.5" y1="95.3906" y2="115.6875"/><rect fill="none" height="40.5938" rx="5" ry="5" style="stroke:#000000;stroke-width:1.5;" width="98" x="418.5" y="75.0938"/><rect fill="#F1F1F1" height="20.2969" rx="5" ry="5" style="stroke:#F1F1F1;stroke-width:1.5;" width="168" x="613" y="66.4453"/><text fill="#000000" font-family="sans-serif" font-size="14" font-weight="bold" lengthAdjust="spacing" textLength="37" x="618" y="81.4404">istio</text><text fill="#000000" font-family="sans-serif" font-size="14" lengthAdjust="spacing" textLength="111" x="665" y="81.4404">ingressgateway</text><line style="stroke:#000000;stroke-width:1.0;" x1="660" x2="660" y1="66.4453" y2="86.7422"/><rect fill="none" height="20.2969" rx="5" ry="5" style="stroke:#000000;stroke-width:1.5;" width="168" x="613" y="66.4453"/><rect fill="#F1F1F1" height="20.2969" rx="5" ry="5" style="stroke:#F1F1F1;stroke-width:1.5;" width="22" x="686" y="104.4453"/><text fill="#000000" font-family="sans-serif" font-size="14" lengthAdjust="spacing" textLength="12" x="691" y="119.4404">&#160;&#160;&#160;</text><rect fill="none" height="20.2969" rx="5" ry="5" style="stroke:#000000;stroke-width:1.5;" width="22" x="686" y="104.4453"/><rect fill="#F1F1F1" height="40.5938" rx="5" ry="5" style="stroke:#F1F1F1;stroke-width:1.5;" width="78" x="818" y="94.0938"/><text fill="#000000" font-family="sans-serif" font-size="14" font-weight="bold" lengthAdjust="spacing" textLength="35" x="823" y="109.0889">port</text><text fill="#000000" font-family="sans-serif" font-size="14" lengthAdjust="spacing" textLength="12" x="879" y="109.0889">&#160;&#160;&#160;</text><line style="stroke:#000000;stroke-width:1.0;" x1="874" x2="874" y1="94.0938" y2="114.3906"/><line style="stroke:#000000;stroke-width:1.0;" x1="818" x2="896" y1="114.3906" y2="114.3906"/><text fill="#000000" font-family="sans-serif" font-size="14" font-weight="bold" lengthAdjust="spacing" textLength="46" x="823" y="129.3857">hosts</text><text fill="#000000" font-family="sans-serif" font-size="14" lengthAdjust="spacing" textLength="12" x="879" y="129.3857">&#160;&#160;&#160;</text><line style="stroke:#000000;stroke-width:1.0;" x1="874" x2="874" y1="114.3906" y2="134.6875"/><rect fill="none" height="40.5938" rx="5" ry="5" style="stroke:#000000;stroke-width:1.5;" width="78" x="818" y="94.0938"/><rect fill="#F1F1F1" height="60.8906" rx="5" ry="5" style="stroke:#F1F1F1;stroke-width:1.5;" width="126" x="933" y="55.0938"/><text fill="#000000" font-family="sans-serif" font-size="14" font-weight="bold" lengthAdjust="spacing" textLength="61" x="938" y="70.0889">number</text><text fill="#000000" font-family="sans-serif" font-size="14" lengthAdjust="spacing" textLength="17" x="1017" y="70.0889">80</text><line style="stroke:#000000;stroke-width:1.0;" x1="1012" x2="1012" y1="55.0938" y2="75.3906"/><line style="stroke:#000000;stroke-width:1.0;" x1="933" x2="1059" y1="75.3906" y2="75.3906"/><text fill="#000000" font-family="sans-serif" font-size="14" font-weight="bold" lengthAdjust="spacing" textLength="44" x="938" y="90.3857">name</text><text fill="#000000" font-family="sans-serif" font-size="14" lengthAdjust="spacing" textLength="33" x="1017" y="90.3857">http</text><line style="stroke:#000000;stroke-width:1.0;" x1="1012" x2="1012" y1="75.3906" y2="95.6875"/><line style="stroke:#000000;stroke-width:1.0;" x1="933" x2="1059" y1="95.6875" y2="95.6875"/><text fill="#000000" font-family="sans-serif" font-size="14" font-weight="bold" lengthAdjust="spacing" textLength="69" x="938" y="110.6826">protocol</text><text fill="#000000" font-family="sans-serif" font-size="14" lengthAdjust="spacing" textLength="37" x="1017" y="110.6826">HTTP</text><line style="stroke:#000000;stroke-width:1.0;" x1="1012" x2="1012" y1="95.6875" y2="115.9844"/><rect fill="none" height="60.8906" rx="5" ry="5" style="stroke:#000000;stroke-width:1.5;" width="126" x="933" y="55.0938"/><rect fill="#F1F1F1" height="20.2969" rx="5" ry="5" style="stroke:#F1F1F1;stroke-width:1.5;" width="31" x="980.5" y="134.4453"/><text fill="#000000" font-family="sans-serif" font-size="14" lengthAdjust="spacing" textLength="21" x="985.5" y="149.4404">"*"</text><rect fill="none" height="20.2969" rx="5" ry="5" style="stroke:#000000;stroke-width:1.5;" width="31" x="980.5" y="134.4453"/><path d="M310,60.5938 L323,60.5938 C342.5998,60.5938 363.6301,59.293 383.3977,57.4845 " fill="none" style="stroke:#000000;stroke-width:1.0;stroke-dasharray:3.0,3.0;"/><path d="M383.6843,60.488 L385.6504,57.2696 L383.1112,54.481 L390.9065,56.7682 L383.6843,60.488 " fill="#000000" style="stroke:#000000;stroke-width:1.0;"/><ellipse cx="310" cy="60.5938" fill="#000000" rx="3" ry="3" style="stroke:#000000;stroke-width:1.0;"/><path d="M505,85.5938 L518,85.5938 C546.5042,85.5938 577.5363,84.4348 605.6118,82.9488 " fill="none" style="stroke:#000000;stroke-width:1.0;stroke-dasharray:3.0,3.0;"/><path d="M605.7826,86.0831 L607.9625,82.8206 L605.4409,79.8145 L613.4475,82.5216 L605.7826,86.0831 " fill="#000000" style="stroke:#000000;stroke-width:1.0;"/><ellipse cx="505" cy="85.5938" fill="#000000" rx="3" ry="3" style="stroke:#000000;stroke-width:1.0;"/><path d="M884,104.5938 L897,104.5938 C906.3447,104.5938 916.0994,103.7591 925.6815,102.4396 " fill="none" style="stroke:#000000;stroke-width:1.0;stroke-dasharray:3.0,3.0;"/><path d="M926.1437,105.4943 L927.9725,102.093 L925.2194,99.385 L933.3181,101.2842 L926.1437,105.4943 " fill="#000000" style="stroke:#000000;stroke-width:1.0;"/><ellipse cx="884" cy="104.5938" fill="#000000" rx="3" ry="3" style="stroke:#000000;stroke-width:1.0;"/><path d="M884,124.5938 L897,124.5938 C923.6502,124.5938 953.5599,131.7121 973.3547,137.4554 " fill="none" style="stroke:#000000;stroke-width:1.0;stroke-dasharray:3.0,3.0;"/><path d="M972.4768,140.3821 L975.5497,138.1137 L974.2325,134.5286 L980.6715,139.6499 L972.4768,140.3821 " fill="#000000" style="stroke:#000000;stroke-width:1.0;"/><ellipse cx="884" cy="124.5938" fill="#000000" rx="3" ry="3" style="stroke:#000000;stroke-width:1.0;"/><path d="M695.6806,114.5938 L708.6806,114.5938 C729.5128,114.5938 775.3388,114.5938 810.4831,114.5938 " fill="none" style="stroke:#000000;stroke-width:1.0;stroke-dasharray:3.0,3.0;"/><path d="M810.4831,117.7038 L812.8156,114.5938 L810.4831,111.4837 L818.2583,114.5938 L810.4831,117.7038 " fill="#000000" style="stroke:#000000;stroke-width:1.0;"/><ellipse cx="695.6806" cy="114.5938" fill="#000000" rx="3" ry="3" style="stroke:#000000;stroke-width:1.0;"/><path d="M505,105.5938 L518,105.5938 C576.9611,105.5938 646.7384,110.5523 678.79,113.1084 " fill="none" style="stroke:#000000;stroke-width:1.0;stroke-dasharray:3.0,3.0;"/><path d="M678.541,116.17 L681.0862,113.2951 L679.0389,110.0467 L686.4441,113.7308 L678.541,116.17 " fill="#000000" style="stroke:#000000;stroke-width:1.0;"/><ellipse cx="505" cy="105.5938" fill="#000000" rx="3" ry="3" style="stroke:#000000;stroke-width:1.0;"/><path d="M310,80.5938 L323,80.5938 C352.1682,80.5938 384.4818,83.676 411.0956,87.0461 " fill="none" style="stroke:#000000;stroke-width:1.0;stroke-dasharray:3.0,3.0;"/><path d="M410.6941,90.1286 L413.4075,87.3472 L411.4971,83.9636 L418.8019,88.0498 L410.6941,90.1286 " fill="#000000" style="stroke:#000000;stroke-width:1.0;"/><ellipse cx="310" cy="80.5938" fill="#000000" rx="3" ry="3" style="stroke:#000000;stroke-width:1.0;"/><!--SRC=[DP1FJy904CNl-oacUW6J8eWIioUZ8aeW8VBdFhGZR6Xdcjrf2T_URQ6tzkqlRzvxRq7HwmMBt63fTkI34xR0f6Vn9yU7WGlgPE3aiHvXNXvnRAASMPYXqXalfY3531Mj0M0io0BMac8cIJHC3ZSgb9GsHA2SKXNVV0EqtXRY6KyXt5YuXsqWq2D1HdzOvGe_3TTXq7asRhwEaHkp14hnUhMDGQfYJzx2wx0JscH7rV8cb5vKKiajV6ysgrOyIj1mTKZWxk7El15dxJHcbIFhThc0-heGZ0PFmwVnOBAFxLzwMpwnd1bIAKgNn-okeBxfpLOB25BvD3Q9LRtRLx47zyqSQuJVYXlEGlFNsopxi9vs8aovTbwu85Optosl47oBhalH5fuy9-zEOTrE0Bkb-RoDDULKihYLXUtcAtar2-H3XOTuYDXyI3pWB_5j_Gy0]--></g></svg>