<?xml version="1.0" encoding="us-ascii" standalone="no"?><svg xmlns="http://www.w3.org/2000/svg" xmlns:xlink="http://www.w3.org/1999/xlink" contentStyleType="text/css" height="753px" preserveAspectRatio="none" style="width:2988px;height:753px;background:#FFFFFF;" version="1.1" viewBox="0 0 2988 753" width="2988px" zoomAndPan="magnify"><defs/><g><rect fill="#F1F1F1" height="60.8906" rx="5" ry="5" style="stroke:#F1F1F1;stroke-width:1.5;" width="163" x="10" y="223.4864"/><text fill="#000000" font-family="sans-serif" font-size="14" font-weight="bold" lengthAdjust="spacing" textLength="44" x="15" y="238.4815">name</text><text fill="#000000" font-family="sans-serif" font-size="14" lengthAdjust="spacing" textLength="99" x="69" y="238.4815">Flask API Test</text><line style="stroke:#000000;stroke-width:1.0;" x1="64" x2="64" y1="223.4864" y2="243.7833"/><line style="stroke:#000000;stroke-width:1.0;" x1="10" x2="173" y1="243.7833" y2="243.7833"/><text fill="#000000" font-family="sans-serif" font-size="14" font-weight="bold" lengthAdjust="spacing" textLength="20" x="15" y="258.7784">on</text><text fill="#000000" font-family="sans-serif" font-size="14" lengthAdjust="spacing" textLength="12" x="69" y="258.7784">&#160;&#160;&#160;</text><line style="stroke:#000000;stroke-width:1.0;" x1="64" x2="64" y1="243.7833" y2="264.0802"/><line style="stroke:#000000;stroke-width:1.0;" x1="10" x2="173" y1="264.0802" y2="264.0802"/><text fill="#000000" font-family="sans-serif" font-size="14" font-weight="bold" lengthAdjust="spacing" textLength="34" x="15" y="279.0753">jobs</text><text fill="#000000" font-family="sans-serif" font-size="14" lengthAdjust="spacing" textLength="12" x="69" y="279.0753">&#160;&#160;&#160;</text><line style="stroke:#000000;stroke-width:1.0;" x1="64" x2="64" y1="264.0802" y2="284.377"/><rect fill="none" height="60.8906" rx="5" ry="5" style="stroke:#000000;stroke-width:1.5;" width="163" x="10" y="223.4864"/><rect fill="#F1F1F1" height="40.5938" rx="5" ry="5" style="stroke:#F1F1F1;stroke-width:1.5;" width="131" x="210" y="205.4864"/><text fill="#000000" font-family="sans-serif" font-size="14" font-weight="bold" lengthAdjust="spacing" textLength="39" x="215" y="220.4815">push</text><text fill="#000000" font-family="sans-serif" font-size="14" lengthAdjust="spacing" textLength="12" x="324" y="220.4815">&#160;&#160;&#160;</text><line style="stroke:#000000;stroke-width:1.0;" x1="319" x2="319" y1="205.4864" y2="225.7833"/><line style="stroke:#000000;stroke-width:1.0;" x1="210" x2="341" y1="225.7833" y2="225.7833"/><text fill="#000000" font-family="sans-serif" font-size="14" font-weight="bold" lengthAdjust="spacing" textLength="99" x="215" y="240.7784">pull_request</text><text fill="#000000" font-family="sans-serif" font-size="14" lengthAdjust="spacing" textLength="12" x="324" y="240.7784">&#160;&#160;&#160;</text><line style="stroke:#000000;stroke-width:1.0;" x1="319" x2="319" y1="225.7833" y2="246.0802"/><rect fill="none" height="40.5938" rx="5" ry="5" style="stroke:#000000;stroke-width:1.5;" width="131" x="210" y="205.4864"/><rect fill="#F1F1F1" height="20.2969" rx="5" ry="5" style="stroke:#F1F1F1;stroke-width:1.5;" width="106" x="415" y="157.838"/><text fill="#000000" font-family="sans-serif" font-size="14" font-weight="bold" lengthAdjust="spacing" textLength="74" x="420" y="172.8331">branches</text><text fill="#000000" font-family="sans-serif" font-size="14" lengthAdjust="spacing" textLength="12" x="504" y="172.8331">&#160;&#160;&#160;</text><line style="stroke:#000000;stroke-width:1.0;" x1="499" x2="499" y1="157.838" y2="178.1348"/><rect fill="none" height="20.2969" rx="5" ry="5" style="stroke:#000000;stroke-width:1.5;" width="106" x="415" y="157.838"/><rect fill="#F1F1F1" height="101.4844" rx="5" ry="5" style="stroke:#F1F1F1;stroke-width:1.5;" width="75" x="595" y="86.2442"/><text fill="#000000" font-family="sans-serif" font-size="14" lengthAdjust="spacing" textLength="65" x="600" y="101.2393">feature/*</text><line style="stroke:#000000;stroke-width:1.0;" x1="595" x2="670" y1="106.5411" y2="106.5411"/><text fill="#000000" font-family="sans-serif" font-size="14" lengthAdjust="spacing" textLength="30" x="600" y="121.5362">fix/*</text><line style="stroke:#000000;stroke-width:1.0;" x1="595" x2="670" y1="126.838" y2="126.838"/><text fill="#000000" font-family="sans-serif" font-size="14" lengthAdjust="spacing" textLength="61" x="600" y="141.8331">deploy/*</text><line style="stroke:#000000;stroke-width:1.0;" x1="595" x2="670" y1="147.1348" y2="147.1348"/><text fill="#000000" font-family="sans-serif" font-size="14" lengthAdjust="spacing" textLength="58" x="600" y="162.13">develop</text><line style="stroke:#000000;stroke-width:1.0;" x1="595" x2="670" y1="167.4317" y2="167.4317"/><text fill="#000000" font-family="sans-serif" font-size="14" lengthAdjust="spacing" textLength="35" x="600" y="182.4268">main</text><rect fill="none" height="101.4844" rx="5" ry="5" style="stroke:#000000;stroke-width:1.5;" width="75" x="595" y="86.2442"/><rect fill="#F1F1F1" height="20.2969" rx="5" ry="5" style="stroke:#F1F1F1;stroke-width:1.5;" width="106" x="415" y="225.838"/><text fill="#000000" font-family="sans-serif" font-size="14" font-weight="bold" lengthAdjust="spacing" textLength="74" x="420" y="240.8331">branches</text><text fill="#000000" font-family="sans-serif" font-size="14" lengthAdjust="spacing" textLength="12" x="504" y="240.8331">&#160;&#160;&#160;</text><line style="stroke:#000000;stroke-width:1.0;" x1="499" x2="499" y1="225.838" y2="246.1348"/><rect fill="none" height="20.2969" rx="5" ry="5" style="stroke:#000000;stroke-width:1.5;" width="106" x="415" y="225.838"/><rect fill="#F1F1F1" height="60.8906" rx="5" ry="5" style="stroke:#F1F1F1;stroke-width:1.5;" width="71" x="597" y="205.4864"/><text fill="#000000" font-family="sans-serif" font-size="14" lengthAdjust="spacing" textLength="61" x="602" y="220.4815">deploy/*</text><line style="stroke:#000000;stroke-width:1.0;" x1="597" x2="668" y1="225.7833" y2="225.7833"/><text fill="#000000" font-family="sans-serif" font-size="14" lengthAdjust="spacing" textLength="58" x="602" y="240.7784">develop</text><line style="stroke:#000000;stroke-width:1.0;" x1="597" x2="668" y1="246.0802" y2="246.0802"/><text fill="#000000" font-family="sans-serif" font-size="14" lengthAdjust="spacing" textLength="35" x="602" y="261.0753">main</text><rect fill="none" height="60.8906" rx="5" ry="5" style="stroke:#000000;stroke-width:1.5;" width="71" x="597" y="205.4864"/><rect fill="#F1F1F1" height="20.2969" rx="5" ry="5" style="stroke:#F1F1F1;stroke-width:1.5;" width="66" x="242.5" y="291.838"/><text fill="#000000" font-family="sans-serif" font-size="14" font-weight="bold" lengthAdjust="spacing" textLength="34" x="247.5" y="306.8331">test</text><text fill="#000000" font-family="sans-serif" font-size="14" lengthAdjust="spacing" textLength="12" x="291.5" y="306.8331">&#160;&#160;&#160;</text><line style="stroke:#000000;stroke-width:1.0;" x1="286.5" x2="286.5" y1="291.838" y2="312.1348"/><rect fill="none" height="20.2969" rx="5" ry="5" style="stroke:#000000;stroke-width:1.5;" width="66" x="242.5" y="291.838"/><rect fill="#F1F1F1" height="40.5938" rx="5" ry="5" style="stroke:#F1F1F1;stroke-width:1.5;" width="180" x="378" y="309.4864"/><text fill="#000000" font-family="sans-serif" font-size="14" font-weight="bold" lengthAdjust="spacing" textLength="62" x="383" y="324.4815">runs-on</text><text fill="#000000" font-family="sans-serif" font-size="14" lengthAdjust="spacing" textLength="98" x="455" y="324.4815">ubuntu-latest</text><line style="stroke:#000000;stroke-width:1.0;" x1="450" x2="450" y1="309.4864" y2="329.7833"/><line style="stroke:#000000;stroke-width:1.0;" x1="378" x2="558" y1="329.7833" y2="329.7833"/><text fill="#000000" font-family="sans-serif" font-size="14" font-weight="bold" lengthAdjust="spacing" textLength="45" x="383" y="344.7784">steps</text><text fill="#000000" font-family="sans-serif" font-size="14" lengthAdjust="spacing" textLength="12" x="455" y="344.7784">&#160;&#160;&#160;</text><line style="stroke:#000000;stroke-width:1.0;" x1="450" x2="450" y1="329.7833" y2="350.0802"/><rect fill="none" height="40.5938" rx="5" ry="5" style="stroke:#000000;stroke-width:1.5;" width="180" x="378" y="309.4864"/><rect fill="#F1F1F1" height="202.9688" rx="5" ry="5" style="stroke:#F1F1F1;stroke-width:1.5;" width="22" x="621.5" y="284.4864"/><text fill="#000000" font-family="sans-serif" font-size="14" lengthAdjust="spacing" textLength="12" x="626.5" y="299.4815">&#160;&#160;&#160;</text><line style="stroke:#000000;stroke-width:1.0;" x1="621.5" x2="643.5" y1="304.7833" y2="304.7833"/><text fill="#000000" font-family="sans-serif" font-size="14" lengthAdjust="spacing" textLength="12" x="626.5" y="319.7784">&#160;&#160;&#160;</text><line style="stroke:#000000;stroke-width:1.0;" x1="621.5" x2="643.5" y1="325.0802" y2="325.0802"/><text fill="#000000" font-family="sans-serif" font-size="14" lengthAdjust="spacing" textLength="12" x="626.5" y="340.0753">&#160;&#160;&#160;</text><line style="stroke:#000000;stroke-width:1.0;" x1="621.5" x2="643.5" y1="345.377" y2="345.377"/><text fill="#000000" font-family="sans-serif" font-size="14" lengthAdjust="spacing" textLength="12" x="626.5" y="360.3722">&#160;&#160;&#160;</text><line style="stroke:#000000;stroke-width:1.0;" x1="621.5" x2="643.5" y1="365.6739" y2="365.6739"/><text fill="#000000" font-family="sans-serif" font-size="14" lengthAdjust="spacing" textLength="12" x="626.5" y="380.669">&#160;&#160;&#160;</text><line style="stroke:#000000;stroke-width:1.0;" x1="621.5" x2="643.5" y1="385.9708" y2="385.9708"/><text fill="#000000" font-family="sans-serif" font-size="14" lengthAdjust="spacing" textLength="12" x="626.5" y="400.9659">&#160;&#160;&#160;</text><line style="stroke:#000000;stroke-width:1.0;" x1="621.5" x2="643.5" y1="406.2677" y2="406.2677"/><text fill="#000000" font-family="sans-serif" font-size="14" lengthAdjust="spacing" textLength="12" x="626.5" y="421.2628">&#160;&#160;&#160;</text><line style="stroke:#000000;stroke-width:1.0;" x1="621.5" x2="643.5" y1="426.5645" y2="426.5645"/><text fill="#000000" font-family="sans-serif" font-size="14" lengthAdjust="spacing" textLength="12" x="626.5" y="441.5597">&#160;&#160;&#160;</text><line style="stroke:#000000;stroke-width:1.0;" x1="621.5" x2="643.5" y1="446.8614" y2="446.8614"/><text fill="#000000" font-family="sans-serif" font-size="14" lengthAdjust="spacing" textLength="12" x="626.5" y="461.8565">&#160;&#160;&#160;</text><line style="stroke:#000000;stroke-width:1.0;" x1="621.5" x2="643.5" y1="467.1583" y2="467.1583"/><text fill="#000000" font-family="sans-serif" font-size="14" lengthAdjust="spacing" textLength="12" x="626.5" y="482.1534">&#160;&#160;&#160;</text><rect fill="none" height="202.9688" rx="5" ry="5" style="stroke:#000000;stroke-width:1.5;" width="22" x="621.5" y="284.4864"/><rect fill="#F1F1F1" height="40.5938" rx="5" ry="5" style="stroke:#F1F1F1;stroke-width:1.5;" width="246" x="1042.5" y="29.4864"/><text fill="#000000" font-family="sans-serif" font-size="14" font-weight="bold" lengthAdjust="spacing" textLength="44" x="1047.5" y="44.4815">name</text><text fill="#000000" font-family="sans-serif" font-size="14" lengthAdjust="spacing" textLength="108" x="1101.5" y="44.4815">Checkout code</text><line style="stroke:#000000;stroke-width:1.0;" x1="1096.5" x2="1096.5" y1="29.4864" y2="49.7833"/><line style="stroke:#000000;stroke-width:1.0;" x1="1042.5" x2="1288.5" y1="49.7833" y2="49.7833"/><text fill="#000000" font-family="sans-serif" font-size="14" font-weight="bold" lengthAdjust="spacing" textLength="37" x="1047.5" y="64.7784">uses</text><text fill="#000000" font-family="sans-serif" font-size="14" lengthAdjust="spacing" textLength="182" x="1101.5" y="64.7784">actions/checkout@v3.5.2</text><line style="stroke:#000000;stroke-width:1.0;" x1="1096.5" x2="1096.5" y1="49.7833" y2="70.0802"/><rect fill="none" height="40.5938" rx="5" ry="5" style="stroke:#000000;stroke-width:1.5;" width="246" x="1042.5" y="29.4864"/><rect fill="#F1F1F1" height="60.8906" rx="5" ry="5" style="stroke:#F1F1F1;stroke-width:1.5;" width="278" x="1026.5" y="88.4864"/><text fill="#000000" font-family="sans-serif" font-size="14" font-weight="bold" lengthAdjust="spacing" textLength="44" x="1031.5" y="103.4815">name</text><text fill="#000000" font-family="sans-serif" font-size="14" lengthAdjust="spacing" textLength="102" x="1085.5" y="103.4815">Set up Python</text><line style="stroke:#000000;stroke-width:1.0;" x1="1080.5" x2="1080.5" y1="88.4864" y2="108.7833"/><line style="stroke:#000000;stroke-width:1.0;" x1="1026.5" x2="1304.5" y1="108.7833" y2="108.7833"/><text fill="#000000" font-family="sans-serif" font-size="14" font-weight="bold" lengthAdjust="spacing" textLength="37" x="1031.5" y="123.7784">uses</text><text fill="#000000" font-family="sans-serif" font-size="14" lengthAdjust="spacing" textLength="214" x="1085.5" y="123.7784">actions/setup-python@v4.6.0</text><line style="stroke:#000000;stroke-width:1.0;" x1="1080.5" x2="1080.5" y1="108.7833" y2="129.0802"/><line style="stroke:#000000;stroke-width:1.0;" x1="1026.5" x2="1304.5" y1="129.0802" y2="129.0802"/><text fill="#000000" font-family="sans-serif" font-size="14" font-weight="bold" lengthAdjust="spacing" textLength="36" x="1031.5" y="144.0753">with</text><text fill="#000000" font-family="sans-serif" font-size="14" lengthAdjust="spacing" textLength="12" x="1085.5" y="144.0753">&#160;&#160;&#160;</text><line style="stroke:#000000;stroke-width:1.0;" x1="1080.5" x2="1080.5" y1="129.0802" y2="149.377"/><rect fill="none" height="60.8906" rx="5" ry="5" style="stroke:#000000;stroke-width:1.5;" width="278" x="1026.5" y="88.4864"/><rect fill="#F1F1F1" height="20.2969" rx="5" ry="5" style="stroke:#F1F1F1;stroke-width:1.5;" width="195" x="2221" y="128.838"/><text fill="#000000" font-family="sans-serif" font-size="14" font-weight="bold" lengthAdjust="spacing" textLength="122" x="2226" y="143.8331">python-version</text><text fill="#000000" font-family="sans-serif" font-size="14" lengthAdjust="spacing" textLength="53" x="2358" y="143.8331">'3.11.2'</text><line style="stroke:#000000;stroke-width:1.0;" x1="2353" x2="2353" y1="128.838" y2="149.1348"/><rect fill="none" height="20.2969" rx="5" ry="5" style="stroke:#000000;stroke-width:1.5;" width="195" x="2221" y="128.838"/><rect fill="#F1F1F1" height="60.8906" rx="5" ry="5" style="stroke:#F1F1F1;stroke-width:1.5;" width="208" x="1061.5" y="167.4864"/><text fill="#000000" font-family="sans-serif" font-size="14" font-weight="bold" lengthAdjust="spacing" textLength="44" x="1066.5" y="182.4815">name</text><text fill="#000000" font-family="sans-serif" font-size="14" lengthAdjust="spacing" textLength="144" x="1120.5" y="182.4815">Cache pip packages</text><line style="stroke:#000000;stroke-width:1.0;" x1="1115.5" x2="1115.5" y1="167.4864" y2="187.7833"/><line style="stroke:#000000;stroke-width:1.0;" x1="1061.5" x2="1269.5" y1="187.7833" y2="187.7833"/><text fill="#000000" font-family="sans-serif" font-size="14" font-weight="bold" lengthAdjust="spacing" textLength="37" x="1066.5" y="202.7784">uses</text><text fill="#000000" font-family="sans-serif" font-size="14" lengthAdjust="spacing" textLength="130" x="1120.5" y="202.7784">actions/cache@v3</text><line style="stroke:#000000;stroke-width:1.0;" x1="1115.5" x2="1115.5" y1="187.7833" y2="208.0802"/><line style="stroke:#000000;stroke-width:1.0;" x1="1061.5" x2="1269.5" y1="208.0802" y2="208.0802"/><text fill="#000000" font-family="sans-serif" font-size="14" font-weight="bold" lengthAdjust="spacing" textLength="36" x="1066.5" y="223.0753">with</text><text fill="#000000" font-family="sans-serif" font-size="14" lengthAdjust="spacing" textLength="12" x="1120.5" y="223.0753">&#160;&#160;&#160;</text><line style="stroke:#000000;stroke-width:1.0;" x1="1115.5" x2="1115.5" y1="208.0802" y2="228.377"/><rect fill="none" height="60.8906" rx="5" ry="5" style="stroke:#000000;stroke-width:1.5;" width="208" x="1061.5" y="167.4864"/><rect fill="#F1F1F1" height="60.8906" rx="5" ry="5" style="stroke:#F1F1F1;stroke-width:1.5;" width="555" x="2041" y="187.4864"/><text fill="#000000" font-family="sans-serif" font-size="14" font-weight="bold" lengthAdjust="spacing" textLength="38" x="2046" y="202.4815">path</text><text fill="#000000" font-family="sans-serif" font-size="14" lengthAdjust="spacing" textLength="81" x="2157" y="202.4815">/.cache/pip</text><line style="stroke:#000000;stroke-width:1.0;" x1="2152" x2="2152" y1="187.4864" y2="207.7833"/><line style="stroke:#000000;stroke-width:1.0;" x1="2041" x2="2596" y1="207.7833" y2="207.7833"/><text fill="#000000" font-family="sans-serif" font-size="14" font-weight="bold" lengthAdjust="spacing" textLength="27" x="2046" y="222.7784">key</text><text fill="#000000" font-family="sans-serif" font-size="14" lengthAdjust="spacing" textLength="434" x="2157" y="222.7784">${{ runner.os }}-pip-${{ hashFiles('**/requirements.txt') }}</text><line style="stroke:#000000;stroke-width:1.0;" x1="2152" x2="2152" y1="207.7833" y2="228.0802"/><line style="stroke:#000000;stroke-width:1.0;" x1="2041" x2="2596" y1="228.0802" y2="228.0802"/><text fill="#000000" font-family="sans-serif" font-size="14" font-weight="bold" lengthAdjust="spacing" textLength="101" x="2046" y="243.0753">restore-keys</text><text fill="#000000" font-family="sans-serif" font-size="14" lengthAdjust="spacing" textLength="156" x="2157" y="243.0753">${{ runner.os }}-pip-</text><line style="stroke:#000000;stroke-width:1.0;" x1="2152" x2="2152" y1="228.0802" y2="248.377"/><rect fill="none" height="60.8906" rx="5" ry="5" style="stroke:#000000;stroke-width:1.5;" width="555" x="2041" y="187.4864"/><rect fill="#F1F1F1" height="60.8906" rx="5" ry="5" style="stroke:#F1F1F1;stroke-width:1.5;" width="917" x="707" y="246.4864"/><text fill="#000000" font-family="sans-serif" font-size="14" font-weight="bold" lengthAdjust="spacing" textLength="44" x="712" y="261.4815">name</text><text fill="#000000" font-family="sans-serif" font-size="14" lengthAdjust="spacing" textLength="148" x="866" y="261.4815">Install dependencies</text><line style="stroke:#000000;stroke-width:1.0;" x1="861" x2="861" y1="246.4864" y2="266.7833"/><line style="stroke:#000000;stroke-width:1.0;" x1="707" x2="1624" y1="266.7833" y2="266.7833"/><text fill="#000000" font-family="sans-serif" font-size="14" font-weight="bold" lengthAdjust="spacing" textLength="144" x="712" y="281.7784">working-directory</text><text fill="#000000" font-family="sans-serif" font-size="14" lengthAdjust="spacing" textLength="72" x="866" y="281.7784">./flask-api</text><line style="stroke:#000000;stroke-width:1.0;" x1="861" x2="861" y1="266.7833" y2="287.0802"/><line style="stroke:#000000;stroke-width:1.0;" x1="707" x2="1624" y1="287.0802" y2="287.0802"/><text fill="#000000" font-family="sans-serif" font-size="14" font-weight="bold" lengthAdjust="spacing" textLength="27" x="712" y="302.0753">run</text><text fill="#000000" font-family="sans-serif" font-size="14" lengthAdjust="spacing" textLength="151" x="866" y="302.0753">python -m pip install</text><text fill="#000000" font-family="sans-serif" font-size="14" lengthAdjust="spacing" text-decoration="line-through" textLength="162" x="1021" y="302.0753">upgrade pip pip install</text><text fill="#000000" font-family="sans-serif" font-size="14" lengthAdjust="spacing" textLength="432" x="1187" y="302.0753">no-cache-dir -r requirements.txt &amp;&amp; python setup.py install</text><line style="stroke:#000000;stroke-width:1.0;" x1="861" x2="861" y1="287.0802" y2="307.377"/><rect fill="none" height="60.8906" rx="5" ry="5" style="stroke:#000000;stroke-width:1.5;" width="917" x="707" y="246.4864"/><rect fill="#F1F1F1" height="40.5938" rx="5" ry="5" style="stroke:#F1F1F1;stroke-width:1.5;" width="282" x="1024.5" y="325.4864"/><text fill="#000000" font-family="sans-serif" font-size="14" font-weight="bold" lengthAdjust="spacing" textLength="44" x="1029.5" y="340.4815">name</text><text fill="#000000" font-family="sans-serif" font-size="14" lengthAdjust="spacing" textLength="218" x="1083.5" y="340.4815">Install coverage dependencies</text><line style="stroke:#000000;stroke-width:1.0;" x1="1078.5" x2="1078.5" y1="325.4864" y2="345.7833"/><line style="stroke:#000000;stroke-width:1.0;" x1="1024.5" x2="1306.5" y1="345.7833" y2="345.7833"/><text fill="#000000" font-family="sans-serif" font-size="14" font-weight="bold" lengthAdjust="spacing" textLength="27" x="1029.5" y="360.7784">run</text><text fill="#000000" font-family="sans-serif" font-size="14" lengthAdjust="spacing" textLength="154" x="1083.5" y="360.7784">pip install pytest-cov</text><line style="stroke:#000000;stroke-width:1.0;" x1="1078.5" x2="1078.5" y1="345.7833" y2="366.0802"/><rect fill="none" height="40.5938" rx="5" ry="5" style="stroke:#000000;stroke-width:1.5;" width="282" x="1024.5" y="325.4864"/><rect fill="#F1F1F1" height="81.1875" rx="5" ry="5" style="stroke:#F1F1F1;stroke-width:1.5;" width="612" x="859.5" y="384.3927"/><text fill="#000000" font-family="sans-serif" font-size="14" font-weight="bold" lengthAdjust="spacing" textLength="44" x="864.5" y="399.3878">name</text><text fill="#000000" font-family="sans-serif" font-size="14" lengthAdjust="spacing" textLength="104" x="1018.5" y="399.3878">Start Flask API</text><line style="stroke:#000000;stroke-width:1.0;" x1="1013.5" x2="1013.5" y1="384.3927" y2="404.6895"/><line style="stroke:#000000;stroke-width:1.0;" x1="859.5" x2="1471.5" y1="404.6895" y2="404.6895"/><text fill="#000000" font-family="sans-serif" font-size="14" font-weight="bold" lengthAdjust="spacing" textLength="144" x="864.5" y="419.6847">working-directory</text><text fill="#000000" font-family="sans-serif" font-size="14" lengthAdjust="spacing" textLength="72" x="1018.5" y="419.6847">./flask-api</text><line style="stroke:#000000;stroke-width:1.0;" x1="1013.5" x2="1013.5" y1="404.6895" y2="424.9864"/><line style="stroke:#000000;stroke-width:1.0;" x1="859.5" x2="1471.5" y1="424.9864" y2="424.9864"/><text fill="#000000" font-family="sans-serif" font-size="14" font-weight="bold" lengthAdjust="spacing" textLength="28" x="864.5" y="439.9815">env</text><text fill="#000000" font-family="sans-serif" font-size="14" lengthAdjust="spacing" textLength="12" x="1018.5" y="439.9815">&#160;&#160;&#160;</text><line style="stroke:#000000;stroke-width:1.0;" x1="1013.5" x2="1013.5" y1="424.9864" y2="445.2833"/><line style="stroke:#000000;stroke-width:1.0;" x1="859.5" x2="1471.5" y1="445.2833" y2="445.2833"/><text fill="#000000" font-family="sans-serif" font-size="14" font-weight="bold" lengthAdjust="spacing" textLength="27" x="864.5" y="460.2784">run</text><text fill="#000000" font-family="sans-serif" font-size="14" lengthAdjust="spacing" textLength="448" x="1018.5" y="460.2784">echo ${{ env.MONGODB_URI }} &amp; python service/service.py &amp;</text><line style="stroke:#000000;stroke-width:1.0;" x1="1013.5" x2="1013.5" y1="445.2833" y2="465.5802"/><rect fill="none" height="81.1875" rx="5" ry="5" style="stroke:#000000;stroke-width:1.5;" width="612" x="859.5" y="384.3927"/><rect fill="#F1F1F1" height="40.5938" rx="5" ry="5" style="stroke:#F1F1F1;stroke-width:1.5;" width="1315" x="1661" y="414.4864"/><text fill="#000000" font-family="sans-serif" font-size="14" font-weight="bold" lengthAdjust="spacing" textLength="117" x="1666" y="429.4815">MONGODB_URI</text><text fill="#000000" font-family="sans-serif" font-size="14" lengthAdjust="spacing" textLength="1133" x="1838" y="429.4815">mongodb+srv://${{ secrets.MONGODB_USERNAME }}:${{ secrets.MONGODB_PASSWORD }}@cluster0.piza0cu.mongodb.net/?retryWrites=true&amp;w=majority</text><line style="stroke:#000000;stroke-width:1.0;" x1="1833" x2="1833" y1="414.4864" y2="434.7833"/><line style="stroke:#000000;stroke-width:1.0;" x1="1661" x2="2976" y1="434.7833" y2="434.7833"/><text fill="#000000" font-family="sans-serif" font-size="14" font-weight="bold" lengthAdjust="spacing" textLength="162" x="1666" y="449.7784">DATASET_LOCATION</text><text fill="#000000" font-family="sans-serif" font-size="14" lengthAdjust="spacing" textLength="164" x="1838" y="449.7784">./datasets/avocado.csv</text><line style="stroke:#000000;stroke-width:1.0;" x1="1833" x2="1833" y1="434.7833" y2="455.0802"/><rect fill="none" height="40.5938" rx="5" ry="5" style="stroke:#000000;stroke-width:1.5;" width="1315" x="1661" y="414.4864"/><rect fill="#F1F1F1" height="40.5938" rx="5" ry="5" style="stroke:#F1F1F1;stroke-width:1.5;" width="230" x="1050.5" y="483.4864"/><text fill="#000000" font-family="sans-serif" font-size="14" font-weight="bold" lengthAdjust="spacing" textLength="44" x="1055.5" y="498.4815">name</text><text fill="#000000" font-family="sans-serif" font-size="14" lengthAdjust="spacing" textLength="166" x="1109.5" y="498.4815">Wait for API to start up</text><line style="stroke:#000000;stroke-width:1.0;" x1="1104.5" x2="1104.5" y1="483.4864" y2="503.7833"/><line style="stroke:#000000;stroke-width:1.0;" x1="1050.5" x2="1280.5" y1="503.7833" y2="503.7833"/><text fill="#000000" font-family="sans-serif" font-size="14" font-weight="bold" lengthAdjust="spacing" textLength="27" x="1055.5" y="518.7784">run</text><text fill="#000000" font-family="sans-serif" font-size="14" lengthAdjust="spacing" textLength="52" x="1109.5" y="518.7784">sleep 5</text><line style="stroke:#000000;stroke-width:1.0;" x1="1104.5" x2="1104.5" y1="503.7833" y2="524.0802"/><rect fill="none" height="40.5938" rx="5" ry="5" style="stroke:#000000;stroke-width:1.5;" width="230" x="1050.5" y="483.4864"/><rect fill="#F1F1F1" height="40.5938" rx="5" ry="5" style="stroke:#F1F1F1;stroke-width:1.5;" width="210" x="1060.5" y="542.4864"/><text fill="#000000" font-family="sans-serif" font-size="14" font-weight="bold" lengthAdjust="spacing" textLength="44" x="1065.5" y="557.4815">name</text><text fill="#000000" font-family="sans-serif" font-size="14" lengthAdjust="spacing" textLength="146" x="1119.5" y="557.4815">Test if API is running</text><line style="stroke:#000000;stroke-width:1.0;" x1="1114.5" x2="1114.5" y1="542.4864" y2="562.7833"/><line style="stroke:#000000;stroke-width:1.0;" x1="1060.5" x2="1270.5" y1="562.7833" y2="562.7833"/><text fill="#000000" font-family="sans-serif" font-size="14" font-weight="bold" lengthAdjust="spacing" textLength="27" x="1065.5" y="577.7784">run</text><text fill="#000000" font-family="sans-serif" font-size="14" lengthAdjust="spacing" textLength="5" x="1119.5" y="577.7784">|</text><line style="stroke:#000000;stroke-width:1.0;" x1="1114.5" x2="1114.5" y1="562.7833" y2="583.0802"/><rect fill="none" height="40.5938" rx="5" ry="5" style="stroke:#000000;stroke-width:1.5;" width="210" x="1060.5" y="542.4864"/><rect fill="#F1F1F1" height="40.5938" rx="5" ry="5" style="stroke:#F1F1F1;stroke-width:1.5;" width="239" x="1046" y="601.4864"/><text fill="#000000" font-family="sans-serif" font-size="14" font-weight="bold" lengthAdjust="spacing" textLength="44" x="1051" y="616.4815">name</text><text fill="#000000" font-family="sans-serif" font-size="14" lengthAdjust="spacing" textLength="175" x="1105" y="616.4815">Print directory structure</text><line style="stroke:#000000;stroke-width:1.0;" x1="1100" x2="1100" y1="601.4864" y2="621.7833"/><line style="stroke:#000000;stroke-width:1.0;" x1="1046" x2="1285" y1="621.7833" y2="621.7833"/><text fill="#000000" font-family="sans-serif" font-size="14" font-weight="bold" lengthAdjust="spacing" textLength="27" x="1051" y="636.7784">run</text><text fill="#000000" font-family="sans-serif" font-size="14" lengthAdjust="spacing" textLength="91" x="1105" y="636.7784">find . -type f</text><line style="stroke:#000000;stroke-width:1.0;" x1="1100" x2="1100" y1="621.7833" y2="642.0802"/><rect fill="none" height="40.5938" rx="5" ry="5" style="stroke:#000000;stroke-width:1.5;" width="239" x="1046" y="601.4864"/><rect fill="#F1F1F1" height="81.1875" rx="5" ry="5" style="stroke:#F1F1F1;stroke-width:1.5;" width="829" x="751" y="660.3927"/><text fill="#000000" font-family="sans-serif" font-size="14" font-weight="bold" lengthAdjust="spacing" textLength="44" x="756" y="675.3878">name</text><text fill="#000000" font-family="sans-serif" font-size="14" lengthAdjust="spacing" textLength="173" x="910" y="675.3878">Run tests with coverage</text><line style="stroke:#000000;stroke-width:1.0;" x1="905" x2="905" y1="660.3927" y2="680.6895"/><line style="stroke:#000000;stroke-width:1.0;" x1="751" x2="1580" y1="680.6895" y2="680.6895"/><text fill="#000000" font-family="sans-serif" font-size="14" font-weight="bold" lengthAdjust="spacing" textLength="144" x="756" y="695.6847">working-directory</text><text fill="#000000" font-family="sans-serif" font-size="14" lengthAdjust="spacing" textLength="72" x="910" y="695.6847">./flask-api</text><line style="stroke:#000000;stroke-width:1.0;" x1="905" x2="905" y1="680.6895" y2="700.9864"/><line style="stroke:#000000;stroke-width:1.0;" x1="751" x2="1580" y1="700.9864" y2="700.9864"/><text fill="#000000" font-family="sans-serif" font-size="14" font-weight="bold" lengthAdjust="spacing" textLength="28" x="756" y="715.9815">env</text><text fill="#000000" font-family="sans-serif" font-size="14" lengthAdjust="spacing" textLength="12" x="910" y="715.9815">&#160;&#160;&#160;</text><line style="stroke:#000000;stroke-width:1.0;" x1="905" x2="905" y1="700.9864" y2="721.2833"/><line style="stroke:#000000;stroke-width:1.0;" x1="751" x2="1580" y1="721.2833" y2="721.2833"/><text fill="#000000" font-family="sans-serif" font-size="14" font-weight="bold" lengthAdjust="spacing" textLength="27" x="756" y="736.2784">run</text><text fill="#000000" font-family="sans-serif" font-size="14" lengthAdjust="spacing" textLength="455" x="910" y="736.2784">echo ${{ env.MONGODB_URI }} echo $MONGODB_URI pytest -v</text><text fill="#000000" font-family="sans-serif" font-size="14" lengthAdjust="spacing" text-decoration="line-through" textLength="87" x="1369" y="736.2784">cov=. tests/</text><text fill="#000000" font-family="sans-serif" font-size="14" lengthAdjust="spacing" textLength="115" x="1460" y="736.2784">cov-report=xml</text><line style="stroke:#000000;stroke-width:1.0;" x1="905" x2="905" y1="721.2833" y2="741.5802"/><rect fill="none" height="81.1875" rx="5" ry="5" style="stroke:#000000;stroke-width:1.5;" width="829" x="751" y="660.3927"/><rect fill="#F1F1F1" height="20.2969" rx="5" ry="5" style="stroke:#F1F1F1;stroke-width:1.5;" width="1270" x="1683.5" y="700.838"/><text fill="#000000" font-family="sans-serif" font-size="14" font-weight="bold" lengthAdjust="spacing" textLength="117" x="1688.5" y="715.8331">MONGODB_URI</text><text fill="#000000" font-family="sans-serif" font-size="14" lengthAdjust="spacing" textLength="1133" x="1815.5" y="715.8331">mongodb+srv://${{ secrets.MONGODB_USERNAME }}:${{ secrets.MONGODB_PASSWORD }}@cluster0.piza0cu.mongodb.net/?retryWrites=true&amp;w=majority</text><line style="stroke:#000000;stroke-width:1.0;" x1="1810.5" x2="1810.5" y1="700.838" y2="721.1348"/><rect fill="none" height="20.2969" rx="5" ry="5" style="stroke:#000000;stroke-width:1.5;" width="1270" x="1683.5" y="700.838"/><path d="M509.5,167.9864 L522.5,167.9864 C544.5744,167.9864 568.2377,162.0818 587.8983,155.4264 " fill="none" style="stroke:#000000;stroke-width:1.0;stroke-dasharray:3.0,3.0;"/><path d="M588.929,158.3574 L590.0966,154.6534 L586.8676,152.4954 L595.2258,152.8497 L588.929,158.3574 " fill="#000000" style="stroke:#000000;stroke-width:1.0;"/><ellipse cx="509.5" cy="167.9864" fill="#000000" rx="3" ry="3" style="stroke:#000000;stroke-width:1.0;"/><path d="M329,215.9864 L342,215.9864 C380.2169,215.9864 420.9171,196.3285 445.2708,182.1729 " fill="none" style="stroke:#000000;stroke-width:1.0;stroke-dasharray:3.0,3.0;"/><path d="M446.8736,184.8593 L447.2856,180.9708 L443.668,179.4865 L451.9869,178.166 L446.8736,184.8593 " fill="#000000" style="stroke:#000000;stroke-width:1.0;"/><ellipse cx="329" cy="215.9864" fill="#000000" rx="3" ry="3" style="stroke:#000000;stroke-width:1.0;"/><path d="M509.5,235.9864 L522.5,235.9864 C544.7511,235.9864 569.5456,235.9864 589.9062,235.9864 " fill="none" style="stroke:#000000;stroke-width:1.0;stroke-dasharray:3.0,3.0;"/><path d="M589.9062,239.0151 L592.1777,235.9864 L589.9062,232.9577 L597.478,235.9864 L589.9062,239.0151 " fill="#000000" style="stroke:#000000;stroke-width:1.0;"/><ellipse cx="509.5" cy="235.9864" fill="#000000" rx="3" ry="3" style="stroke:#000000;stroke-width:1.0;"/><path d="M329,235.9864 L342,235.9864 C363.4426,235.9864 386.9461,235.9864 407.7569,235.9864 " fill="none" style="stroke:#000000;stroke-width:1.0;stroke-dasharray:3.0,3.0;"/><path d="M407.7569,239.001 L410.0179,235.9864 L407.7569,232.9718 L415.2935,235.9864 L407.7569,239.001 " fill="#000000" style="stroke:#000000;stroke-width:1.0;"/><ellipse cx="329" cy="235.9864" fill="#000000" rx="3" ry="3" style="stroke:#000000;stroke-width:1.0;"/><path d="M161,253.9864 L174,253.9864 C187.1573,253.9864 200.9398,251.7525 213.9446,248.5467 " fill="none" style="stroke:#000000;stroke-width:1.0;stroke-dasharray:3.0,3.0;"/><path d="M214.7407,251.5694 L216.2116,247.9496 L213.1485,245.5241 L221.5012,246.5564 L214.7407,251.5694 " fill="#000000" style="stroke:#000000;stroke-width:1.0;"/><ellipse cx="161" cy="253.9864" fill="#000000" rx="3" ry="3" style="stroke:#000000;stroke-width:1.0;"/><path d="M632,294.9864 L645,294.9864 C659.5789,294.9864 663.4,287.4276 671,274.9864 C717.1707,199.4046 640.7767,137.7981 707,78.9864 C809.2875,-11.8532 980.3989,6.1163 1081.9967,27.8001 " fill="none" style="stroke:#000000;stroke-width:1.0;stroke-dasharray:3.0,3.0;"/><path d="M1081.3434,30.798 L1084.2451,28.29 L1082.65,24.8022 L1089.4914,29.4333 L1081.3434,30.798 " fill="#000000" style="stroke:#000000;stroke-width:1.0;"/><ellipse cx="632" cy="294.9864" fill="#000000" rx="3" ry="3" style="stroke:#000000;stroke-width:1.0;"/><path d="M1293,138.9864 L1306,138.9864 C1637.6383,138.9864 2030.4089,138.9864 2213.8606,138.9864 " fill="none" style="stroke:#000000;stroke-width:1.0;stroke-dasharray:3.0,3.0;"/><path d="M2213.8606,141.9893 L2216.1128,138.9864 L2213.8606,135.9835 L2221.3679,138.9864 L2213.8606,141.9893 " fill="#000000" style="stroke:#000000;stroke-width:1.0;"/><ellipse cx="1293" cy="138.9864" fill="#000000" rx="3" ry="3" style="stroke:#000000;stroke-width:1.0;"/><path d="M632,314.9864 L645,314.9864 C666.2033,314.9864 662.0179,294.1932 671,274.9864 C694.0474,225.7034 664.6484,192.1381 707,157.9864 C793.2743,88.416 920.7356,82.8523 1019.3036,92.3226 " fill="none" style="stroke:#000000;stroke-width:1.0;stroke-dasharray:3.0,3.0;"/><path d="M1018.9957,95.38 L1021.5967,92.5535 L1019.6116,89.2651 L1026.9473,93.0925 L1018.9957,95.38 " fill="#000000" style="stroke:#000000;stroke-width:1.0;"/><ellipse cx="632" cy="314.9864" fill="#000000" rx="3" ry="3" style="stroke:#000000;stroke-width:1.0;"/><path d="M1258,217.9864 L1271,217.9864 C1529.1059,217.9864 1823.0027,217.9864 2033.5779,217.9864 " fill="none" style="stroke:#000000;stroke-width:1.0;stroke-dasharray:3.0,3.0;"/><path d="M2033.5779,221.0938 L2035.9084,217.9864 L2033.5779,214.8791 L2041.3463,217.9864 L2033.5779,221.0938 " fill="#000000" style="stroke:#000000;stroke-width:1.0;"/><ellipse cx="1258" cy="217.9864" fill="#000000" rx="3" ry="3" style="stroke:#000000;stroke-width:1.0;"/><path d="M632,334.9864 L645,334.9864 C696.5402,334.9864 662.9487,263.7424 707,236.9864 C811.8634,173.2942 955.9628,172.0382 1054.3488,181.1967 " fill="none" style="stroke:#000000;stroke-width:1.0;stroke-dasharray:3.0,3.0;"/><path d="M1054.0544,184.2347 L1056.6273,181.4176 L1054.6433,178.1588 L1061.9437,181.9328 L1054.0544,184.2347 " fill="#000000" style="stroke:#000000;stroke-width:1.0;"/><ellipse cx="632" cy="334.9864" fill="#000000" rx="3" ry="3" style="stroke:#000000;stroke-width:1.0;"/><path d="M632,355.9864 L645,355.9864 C677.7927,355.9864 675.9657,326.5803 707,315.9864 C713.3103,313.8323 719.6965,311.7773 726.1471,309.8172 " fill="none" style="stroke:#000000;stroke-width:1.0;stroke-dasharray:3.0,3.0;"/><path d="M727.0501,312.8577 L728.4274,309.1399 L725.244,306.7767 L733.7483,307.5595 L727.0501,312.8577 " fill="#000000" style="stroke:#000000;stroke-width:1.0;"/><ellipse cx="632" cy="355.9864" fill="#000000" rx="3" ry="3" style="stroke:#000000;stroke-width:1.0;"/><path d="M632,375.9864 L645,375.9864 C714.8211,375.9864 889.621,365.0702 1017.3435,356.4076 " fill="none" style="stroke:#000000;stroke-width:1.0;stroke-dasharray:3.0,3.0;"/><path d="M1017.5494,359.4378 L1019.6161,356.2531 L1017.1375,353.3773 L1024.9191,355.8927 L1017.5494,359.4378 " fill="#000000" style="stroke:#000000;stroke-width:1.0;"/><ellipse cx="632" cy="375.9864" fill="#000000" rx="3" ry="3" style="stroke:#000000;stroke-width:1.0;"/><path d="M1460,434.9864 L1473,434.9864 C1531.5599,434.9864 1592.4025,434.9864 1653.3922,434.9864 " fill="none" style="stroke:#000000;stroke-width:1.0;stroke-dasharray:3.0,3.0;"/><path d="M1653.3922,438.1169 L1655.7401,434.9864 L1653.3922,431.8559 L1661.2184,434.9864 L1653.3922,438.1169 " fill="#000000" style="stroke:#000000;stroke-width:1.0;"/><ellipse cx="1460" cy="434.9864" fill="#000000" rx="3" ry="3" style="stroke:#000000;stroke-width:1.0;"/><path d="M632,395.9864 L645,395.9864 C712.0383,395.9864 783.8627,398.4189 852.0778,401.8749 " fill="none" style="stroke:#000000;stroke-width:1.0;stroke-dasharray:3.0,3.0;"/><path d="M851.9161,405.0231 L854.4389,401.9961 L852.2394,398.7268 L859.9481,402.279 L851.9161,405.0231 " fill="#000000" style="stroke:#000000;stroke-width:1.0;"/><ellipse cx="632" cy="395.9864" fill="#000000" rx="3" ry="3" style="stroke:#000000;stroke-width:1.0;"/><path d="M632,415.9864 L645,415.9864 C683.0383,415.9864 672.1435,459.757 707,474.9864 C813.6255,521.573 947.653,524.4437 1043.1154,518.3153 " fill="none" style="stroke:#000000;stroke-width:1.0;stroke-dasharray:3.0,3.0;"/><path d="M1043.3222,521.3831 L1045.4163,518.1602 L1042.9086,515.2475 L1050.785,517.7983 L1043.3222,521.3831 " fill="#000000" style="stroke:#000000;stroke-width:1.0;"/><ellipse cx="632" cy="415.9864" fill="#000000" rx="3" ry="3" style="stroke:#000000;stroke-width:1.0;"/><path d="M632,436.9864 L645,436.9864 C695.7913,436.9864 663.2125,507.2492 707,532.9864 C812.1149,594.7704 955.1971,593.4143 1053.3067,582.3243 " fill="none" style="stroke:#000000;stroke-width:1.0;stroke-dasharray:3.0,3.0;"/><path d="M1053.6609,585.3542 L1055.5791,582.0586 L1052.9524,579.2943 L1060.8815,581.4386 L1053.6609,585.3542 " fill="#000000" style="stroke:#000000;stroke-width:1.0;"/><ellipse cx="632" cy="436.9864" fill="#000000" rx="3" ry="3" style="stroke:#000000;stroke-width:1.0;"/><path d="M632,456.9864 L645,456.9864 C711.0251,456.9864 652.6132,554.5513 707,591.9864 C758.9846,627.7681 921.9792,630.7558 1038.7097,627.8329 " fill="none" style="stroke:#000000;stroke-width:1.0;stroke-dasharray:3.0,3.0;"/><path d="M1038.79,630.881 L1040.9958,627.7726 L1038.6294,624.7848 L1046.33,627.6321 L1038.79,630.881 " fill="#000000" style="stroke:#000000;stroke-width:1.0;"/><ellipse cx="632" cy="456.9864" fill="#000000" rx="3" ry="3" style="stroke:#000000;stroke-width:1.0;"/><path d="M1569,710.9864 L1582,710.9864 C1612.7565,710.9864 1644.236,710.9864 1676.0306,710.9864 " fill="none" style="stroke:#000000;stroke-width:1.0;stroke-dasharray:3.0,3.0;"/><path d="M1676.0306,714.0475 L1678.3264,710.9864 L1676.0306,707.9253 L1683.6832,710.9864 L1676.0306,714.0475 " fill="#000000" style="stroke:#000000;stroke-width:1.0;"/><ellipse cx="1569" cy="710.9864" fill="#000000" rx="3" ry="3" style="stroke:#000000;stroke-width:1.0;"/><path d="M632,476.9864 L645,476.9864 C727.096,476.9864 642.5811,600.0948 707,650.9864 C718.8252,660.3284 731.3905,668.5661 744.523,675.8116 " fill="none" style="stroke:#000000;stroke-width:1.0;stroke-dasharray:3.0,3.0;"/><path d="M743.0434,678.5789 L746.5985,676.9213 L746.0026,673.0443 L751.4412,679.5106 L743.0434,678.5789 " fill="#000000" style="stroke:#000000;stroke-width:1.0;"/><ellipse cx="632" cy="476.9864" fill="#000000" rx="3" ry="3" style="stroke:#000000;stroke-width:1.0;"/><path d="M546,339.9864 L559,339.9864 C581.5448,339.9864 602.8118,355.8847 616.5115,368.9884 " fill="none" style="stroke:#000000;stroke-width:1.0;stroke-dasharray:3.0,3.0;"/><path d="M614.3554,371.1443 L618.1284,370.6055 L618.6676,366.8325 L621.9012,374.3787 L614.3554,371.1443 " fill="#000000" style="stroke:#000000;stroke-width:1.0;"/><ellipse cx="546" cy="339.9864" fill="#000000" rx="3" ry="3" style="stroke:#000000;stroke-width:1.0;"/><path d="M297,301.9864 L310,301.9864 C331.4895,301.9864 354.3772,304.5444 375.8547,308.1141 " fill="none" style="stroke:#000000;stroke-width:1.0;stroke-dasharray:3.0,3.0;"/><path d="M375.3338,311.1275 L378.1147,308.5048 L376.3756,305.1007 L383.3881,309.4164 L375.3338,311.1275 " fill="#000000" style="stroke:#000000;stroke-width:1.0;"/><ellipse cx="297" cy="301.9864" fill="#000000" rx="3" ry="3" style="stroke:#000000;stroke-width:1.0;"/><path d="M161,273.9864 L174,273.9864 C198.3635,273.9864 224.8707,281.646 244.6144,288.9528 " fill="none" style="stroke:#000000;stroke-width:1.0;stroke-dasharray:3.0,3.0;"/><path d="M243.5078,291.8397 L246.7795,289.7827 L245.7209,286.0659 L251.8316,291.7192 L243.5078,291.8397 " fill="#000000" style="stroke:#000000;stroke-width:1.0;"/><ellipse cx="161" cy="273.9864" fill="#000000" rx="3" ry="3" style="stroke:#000000;stroke-width:1.0;"/><!--SRC=[tLNRRkCs47tNLmpI8hU2aZVP18M1eFRciiqYZet8tZm6D4LRNCkaoeiITvj-UuUqhCY1MxIlVH987SwPENCux1bBjLtHPH59kkHTk2ceMK1_T0jZRcmKATcD04fdSly5c6egMSxDUWL0OCQfTPednsyxugMrodXPgDNMHiKBLJRh9HKoS1J5a-Q_EUJzEwv_5olwfgRXa6r2QISDmLh0JPsqZXJKXlByFsDvMNCGMAjmcNEsKCu2KnclWpk3cG1bLYXf4bOZUjLfV1QVH5l7Ksx1bJ1QsLp9dSSDjwuaPG3qge_nUTo9Qk2piFccObGbG4Z5jH4-_uFJ-CE7-EHWc_2IOZvGYX9AoXPqpitkf3qCCzxDH745VoPnG2KOhFcruAik_FZzkvTHSXqh0w-l1174R-RKv3UYuERmuFWuyHqKcY-vj2QsB_RW2B5D98sgAyq9HiIy_cZsONVuxIfl9RgrABmBkCouPAAfyrdfXP1paY4rGmRCDqvctik4bg86OVWsvrfQ8CiWdAY34-BAkQPPaFCDkuMGYWIHF1qG3UzhXltzJVJGwBXSRKxlheWfR32sRLTf8UisFqP65GcUsLZc1qZzDGxNbihCay9WUFzvUFNfQV9m2rnMK54jwBJWCDDg2KibvohS3mHh90VCrQA7MA5Sjctc4BgP2_z5SEHzyrSheIxiXGIowKz6LzqaySqtd6cE-ZMuzFhXlZ-uHYzqT_qVzTFqSVXmXVzxh71uYtKdBiNljCDSN8UF9RV9BtXChnwrm78lh7Py__bYIRyft5ZjDUbTzSVzz7hyT3Uyx8zlX_UOOvnar58KqoIqKencAcQcscltXRDS1UjYgN5RyjTNQ7b0LuBnfFvwD-nl- -2H2WipfKC7hO8mbN64jAbCmNa9P_NMrd4_ga7CmcbXmZN2tknsFNEwWDpQ4cKliAWYLpWappgTJf9pMjYyGMvHZBIG5ffkOuRQCJ_tsompWUQBWTXLYJxR7UZ1oU0x4yPFu_p_fwtUQVzFRda7Qlrj3opVQ5BX24BTBkAraCbwIJGlbRONB_YMzt28X4Sz6XLKsidW3keN1F3nw9oSnkTJRkdPuKGkf7gMs8PbYICSh5Zoe-Zmy-WEZ7AQuKGIs6enTVu5EOg-q8hw5dfS5_pgS3muWlHwimdNiX9QIJyBeozV1siG_AfiMYeRmESVoIUqUxgUEry7qHMVKLTOF8hFBNQ_2vFn3VavkgDoxj0RUCraTAcGmFjXalu5]--></g></svg>