<?xml version="1.0" encoding="us-ascii" standalone="no"?><svg xmlns="http://www.w3.org/2000/svg" xmlns:xlink="http://www.w3.org/1999/xlink" contentStyleType="text/css" height="912px" preserveAspectRatio="none" style="width:2678px;height:912px;background:#FFFFFF;" version="1.1" viewBox="0 0 2678 912" width="2678px" zoomAndPan="magnify"><defs/><g><rect fill="#F1F1F1" height="60.8906" rx="5" ry="5" style="stroke:#F1F1F1;stroke-width:1.5;" width="163" x="10" y="233"/><text fill="#000000" font-family="sans-serif" font-size="14" font-weight="bold" lengthAdjust="spacing" textLength="44" x="15" y="247.9951">name</text><text fill="#000000" font-family="sans-serif" font-size="14" lengthAdjust="spacing" textLength="99" x="69" y="247.9951">Flask API Test</text><line style="stroke:#000000;stroke-width:1.0;" x1="64" x2="64" y1="233" y2="253.2969"/><line style="stroke:#000000;stroke-width:1.0;" x1="10" x2="173" y1="253.2969" y2="253.2969"/><text fill="#000000" font-family="sans-serif" font-size="14" font-weight="bold" lengthAdjust="spacing" textLength="20" x="15" y="268.292">on</text><text fill="#000000" font-family="sans-serif" font-size="14" lengthAdjust="spacing" textLength="12" x="69" y="268.292">&#160;&#160;&#160;</text><line style="stroke:#000000;stroke-width:1.0;" x1="64" x2="64" y1="253.2969" y2="273.5938"/><line style="stroke:#000000;stroke-width:1.0;" x1="10" x2="173" y1="273.5938" y2="273.5938"/><text fill="#000000" font-family="sans-serif" font-size="14" font-weight="bold" lengthAdjust="spacing" textLength="34" x="15" y="288.5889">jobs</text><text fill="#000000" font-family="sans-serif" font-size="14" lengthAdjust="spacing" textLength="12" x="69" y="288.5889">&#160;&#160;&#160;</text><line style="stroke:#000000;stroke-width:1.0;" x1="64" x2="64" y1="273.5938" y2="293.8906"/><rect fill="none" height="60.8906" rx="5" ry="5" style="stroke:#000000;stroke-width:1.5;" width="163" x="10" y="233"/><rect fill="#F1F1F1" height="40.5938" rx="5" ry="5" style="stroke:#F1F1F1;stroke-width:1.5;" width="131" x="210" y="224"/><text fill="#000000" font-family="sans-serif" font-size="14" font-weight="bold" lengthAdjust="spacing" textLength="39" x="215" y="238.9951">push</text><text fill="#000000" font-family="sans-serif" font-size="14" lengthAdjust="spacing" textLength="12" x="324" y="238.9951">&#160;&#160;&#160;</text><line style="stroke:#000000;stroke-width:1.0;" x1="319" x2="319" y1="224" y2="244.2969"/><line style="stroke:#000000;stroke-width:1.0;" x1="210" x2="341" y1="244.2969" y2="244.2969"/><text fill="#000000" font-family="sans-serif" font-size="14" font-weight="bold" lengthAdjust="spacing" textLength="99" x="215" y="259.292">pull_request</text><text fill="#000000" font-family="sans-serif" font-size="14" lengthAdjust="spacing" textLength="12" x="324" y="259.292">&#160;&#160;&#160;</text><line style="stroke:#000000;stroke-width:1.0;" x1="319" x2="319" y1="244.2969" y2="264.5938"/><rect fill="none" height="40.5938" rx="5" ry="5" style="stroke:#000000;stroke-width:1.5;" width="131" x="210" y="224"/><rect fill="#F1F1F1" height="20.2969" rx="5" ry="5" style="stroke:#F1F1F1;stroke-width:1.5;" width="147" x="396.5" y="206.3516"/><text fill="#000000" font-family="sans-serif" font-size="14" font-weight="bold" lengthAdjust="spacing" textLength="74" x="401.5" y="221.3467">branches</text><text fill="#000000" font-family="sans-serif" font-size="14" lengthAdjust="spacing" textLength="53" x="485.5" y="221.3467">[ main ]</text><line style="stroke:#000000;stroke-width:1.0;" x1="480.5" x2="480.5" y1="206.3516" y2="226.6484"/><rect fill="none" height="20.2969" rx="5" ry="5" style="stroke:#000000;stroke-width:1.5;" width="147" x="396.5" y="206.3516"/><rect fill="#F1F1F1" height="20.2969" rx="5" ry="5" style="stroke:#F1F1F1;stroke-width:1.5;" width="147" x="396.5" y="244.3516"/><text fill="#000000" font-family="sans-serif" font-size="14" font-weight="bold" lengthAdjust="spacing" textLength="74" x="401.5" y="259.3467">branches</text><text fill="#000000" font-family="sans-serif" font-size="14" lengthAdjust="spacing" textLength="53" x="485.5" y="259.3467">[ main ]</text><line style="stroke:#000000;stroke-width:1.0;" x1="480.5" x2="480.5" y1="244.3516" y2="264.6484"/><rect fill="none" height="20.2969" rx="5" ry="5" style="stroke:#000000;stroke-width:1.5;" width="147" x="396.5" y="244.3516"/><rect fill="#F1F1F1" height="20.2969" rx="5" ry="5" style="stroke:#F1F1F1;stroke-width:1.5;" width="66" x="242.5" y="293.3516"/><text fill="#000000" font-family="sans-serif" font-size="14" font-weight="bold" lengthAdjust="spacing" textLength="34" x="247.5" y="308.3467">test</text><text fill="#000000" font-family="sans-serif" font-size="14" lengthAdjust="spacing" textLength="12" x="291.5" y="308.3467">&#160;&#160;&#160;</text><line style="stroke:#000000;stroke-width:1.0;" x1="286.5" x2="286.5" y1="293.3516" y2="313.6484"/><rect fill="none" height="20.2969" rx="5" ry="5" style="stroke:#000000;stroke-width:1.5;" width="66" x="242.5" y="293.3516"/><rect fill="#F1F1F1" height="60.8906" rx="5" ry="5" style="stroke:#F1F1F1;stroke-width:1.5;" width="184" x="378" y="283"/><text fill="#000000" font-family="sans-serif" font-size="14" font-weight="bold" lengthAdjust="spacing" textLength="62" x="383" y="297.9951">runs-on</text><text fill="#000000" font-family="sans-serif" font-size="14" lengthAdjust="spacing" textLength="98" x="459" y="297.9951">ubuntu-latest</text><line style="stroke:#000000;stroke-width:1.0;" x1="454" x2="454" y1="283" y2="303.2969"/><line style="stroke:#000000;stroke-width:1.0;" x1="378" x2="562" y1="303.2969" y2="303.2969"/><text fill="#000000" font-family="sans-serif" font-size="14" font-weight="bold" lengthAdjust="spacing" textLength="66" x="383" y="318.292">services</text><text fill="#000000" font-family="sans-serif" font-size="14" lengthAdjust="spacing" textLength="12" x="459" y="318.292">&#160;&#160;&#160;</text><line style="stroke:#000000;stroke-width:1.0;" x1="454" x2="454" y1="303.2969" y2="323.5938"/><line style="stroke:#000000;stroke-width:1.0;" x1="378" x2="562" y1="323.5938" y2="323.5938"/><text fill="#000000" font-family="sans-serif" font-size="14" font-weight="bold" lengthAdjust="spacing" textLength="45" x="383" y="338.5889">steps</text><text fill="#000000" font-family="sans-serif" font-size="14" lengthAdjust="spacing" textLength="12" x="459" y="338.5889">&#160;&#160;&#160;</text><line style="stroke:#000000;stroke-width:1.0;" x1="454" x2="454" y1="323.5938" y2="343.8906"/><rect fill="none" height="60.8906" rx="5" ry="5" style="stroke:#000000;stroke-width:1.5;" width="184" x="378" y="283"/><rect fill="#F1F1F1" height="20.2969" rx="5" ry="5" style="stroke:#F1F1F1;stroke-width:1.5;" width="87" x="599" y="182.3516"/><text fill="#000000" font-family="sans-serif" font-size="14" font-weight="bold" lengthAdjust="spacing" textLength="55" x="604" y="197.3467">mongo</text><text fill="#000000" font-family="sans-serif" font-size="14" lengthAdjust="spacing" textLength="12" x="669" y="197.3467">&#160;&#160;&#160;</text><line style="stroke:#000000;stroke-width:1.0;" x1="664" x2="664" y1="182.3516" y2="202.6484"/><rect fill="none" height="20.2969" rx="5" ry="5" style="stroke:#000000;stroke-width:1.5;" width="87" x="599" y="182.3516"/><rect fill="#F1F1F1" height="60.8906" rx="5" ry="5" style="stroke:#F1F1F1;stroke-width:1.5;" width="147" x="1108" y="10"/><text fill="#000000" font-family="sans-serif" font-size="14" font-weight="bold" lengthAdjust="spacing" textLength="49" x="1113" y="24.9951">image</text><text fill="#000000" font-family="sans-serif" font-size="14" lengthAdjust="spacing" textLength="78" x="1172" y="24.9951">mongo:6.0</text><line style="stroke:#000000;stroke-width:1.0;" x1="1167" x2="1167" y1="10" y2="30.2969"/><line style="stroke:#000000;stroke-width:1.0;" x1="1108" x2="1255" y1="30.2969" y2="30.2969"/><text fill="#000000" font-family="sans-serif" font-size="14" font-weight="bold" lengthAdjust="spacing" textLength="44" x="1113" y="45.292">ports</text><text fill="#000000" font-family="sans-serif" font-size="14" lengthAdjust="spacing" textLength="12" x="1172" y="45.292">&#160;&#160;&#160;</text><line style="stroke:#000000;stroke-width:1.0;" x1="1167" x2="1167" y1="30.2969" y2="50.5938"/><line style="stroke:#000000;stroke-width:1.0;" x1="1108" x2="1255" y1="50.5938" y2="50.5938"/><text fill="#000000" font-family="sans-serif" font-size="14" font-weight="bold" lengthAdjust="spacing" textLength="28" x="1113" y="65.5889">env</text><text fill="#000000" font-family="sans-serif" font-size="14" lengthAdjust="spacing" textLength="12" x="1172" y="65.5889">&#160;&#160;&#160;</text><line style="stroke:#000000;stroke-width:1.0;" x1="1167" x2="1167" y1="50.5938" y2="70.8906"/><rect fill="none" height="60.8906" rx="5" ry="5" style="stroke:#000000;stroke-width:1.5;" width="147" x="1108" y="10"/><rect fill="#F1F1F1" height="20.2969" rx="5" ry="5" style="stroke:#F1F1F1;stroke-width:1.5;" width="22" x="2085" y="11.3516"/><text fill="#000000" font-family="sans-serif" font-size="14" lengthAdjust="spacing" textLength="12" x="2090" y="26.3467">&#160;&#160;&#160;</text><rect fill="none" height="20.2969" rx="5" ry="5" style="stroke:#000000;stroke-width:1.5;" width="22" x="2085" y="11.3516"/><rect fill="#F1F1F1" height="20.2969" rx="5" ry="5" style="stroke:#F1F1F1;stroke-width:1.5;" width="114" x="2552" y="11.3516"/><text fill="#000000" font-family="sans-serif" font-size="14" font-weight="bold" lengthAdjust="spacing" textLength="50" x="2557" y="26.3467">27017</text><text fill="#000000" font-family="sans-serif" font-size="14" lengthAdjust="spacing" textLength="44" x="2617" y="26.3467">27017</text><line style="stroke:#000000;stroke-width:1.0;" x1="2612" x2="2612" y1="11.3516" y2="31.6484"/><rect fill="none" height="20.2969" rx="5" ry="5" style="stroke:#000000;stroke-width:1.5;" width="114" x="2552" y="11.3516"/><rect fill="#F1F1F1" height="60.8906" rx="5" ry="5" style="stroke:#F1F1F1;stroke-width:1.5;" width="547" x="1822.5" y="50"/><text fill="#000000" font-family="sans-serif" font-size="14" font-weight="bold" lengthAdjust="spacing" textLength="214" x="1827.5" y="64.9951">MONGO_INITDB_DATABASE</text><text fill="#000000" font-family="sans-serif" font-size="14" lengthAdjust="spacing" textLength="250" x="2109.5" y="64.9951">${{ secrets.MONGO_DATABASE }}</text><line style="stroke:#000000;stroke-width:1.0;" x1="2104.5" x2="2104.5" y1="50" y2="70.2969"/><line style="stroke:#000000;stroke-width:1.0;" x1="1822.5" x2="2369.5" y1="70.2969" y2="70.2969"/><text fill="#000000" font-family="sans-serif" font-size="14" font-weight="bold" lengthAdjust="spacing" textLength="268" x="1827.5" y="85.292">MONGO_INITDB_ROOT_USERNAME</text><text fill="#000000" font-family="sans-serif" font-size="14" lengthAdjust="spacing" textLength="250" x="2109.5" y="85.292">${{ secrets.MONGO_USERNAME }}</text><line style="stroke:#000000;stroke-width:1.0;" x1="2104.5" x2="2104.5" y1="70.2969" y2="90.5938"/><line style="stroke:#000000;stroke-width:1.0;" x1="1822.5" x2="2369.5" y1="90.5938" y2="90.5938"/><text fill="#000000" font-family="sans-serif" font-size="14" font-weight="bold" lengthAdjust="spacing" textLength="272" x="1827.5" y="105.5889">MONGO_INITDB_ROOT_PASSWORD</text><text fill="#000000" font-family="sans-serif" font-size="14" lengthAdjust="spacing" textLength="255" x="2109.5" y="105.5889">${{ secrets.MONGO_PASSWORD }}</text><line style="stroke:#000000;stroke-width:1.0;" x1="2104.5" x2="2104.5" y1="90.5938" y2="110.8906"/><rect fill="none" height="60.8906" rx="5" ry="5" style="stroke:#000000;stroke-width:1.5;" width="547" x="1822.5" y="50"/><rect fill="#F1F1F1" height="223.2656" rx="5" ry="5" style="stroke:#F1F1F1;stroke-width:1.5;" width="22" x="631.5" y="342.8672"/><text fill="#000000" font-family="sans-serif" font-size="14" lengthAdjust="spacing" textLength="12" x="636.5" y="357.8623">&#160;&#160;&#160;</text><line style="stroke:#000000;stroke-width:1.0;" x1="631.5" x2="653.5" y1="363.1641" y2="363.1641"/><text fill="#000000" font-family="sans-serif" font-size="14" lengthAdjust="spacing" textLength="12" x="636.5" y="378.1592">&#160;&#160;&#160;</text><line style="stroke:#000000;stroke-width:1.0;" x1="631.5" x2="653.5" y1="383.4609" y2="383.4609"/><text fill="#000000" font-family="sans-serif" font-size="14" lengthAdjust="spacing" textLength="12" x="636.5" y="398.4561">&#160;&#160;&#160;</text><line style="stroke:#000000;stroke-width:1.0;" x1="631.5" x2="653.5" y1="403.7578" y2="403.7578"/><text fill="#000000" font-family="sans-serif" font-size="14" lengthAdjust="spacing" textLength="12" x="636.5" y="418.7529">&#160;&#160;&#160;</text><line style="stroke:#000000;stroke-width:1.0;" x1="631.5" x2="653.5" y1="424.0547" y2="424.0547"/><text fill="#000000" font-family="sans-serif" font-size="14" lengthAdjust="spacing" textLength="12" x="636.5" y="439.0498">&#160;&#160;&#160;</text><line style="stroke:#000000;stroke-width:1.0;" x1="631.5" x2="653.5" y1="444.3516" y2="444.3516"/><text fill="#000000" font-family="sans-serif" font-size="14" lengthAdjust="spacing" textLength="12" x="636.5" y="459.3467">&#160;&#160;&#160;</text><line style="stroke:#000000;stroke-width:1.0;" x1="631.5" x2="653.5" y1="464.6484" y2="464.6484"/><text fill="#000000" font-family="sans-serif" font-size="14" lengthAdjust="spacing" textLength="12" x="636.5" y="479.6436">&#160;&#160;&#160;</text><line style="stroke:#000000;stroke-width:1.0;" x1="631.5" x2="653.5" y1="484.9453" y2="484.9453"/><text fill="#000000" font-family="sans-serif" font-size="14" lengthAdjust="spacing" textLength="12" x="636.5" y="499.9404">&#160;&#160;&#160;</text><line style="stroke:#000000;stroke-width:1.0;" x1="631.5" x2="653.5" y1="505.2422" y2="505.2422"/><text fill="#000000" font-family="sans-serif" font-size="14" lengthAdjust="spacing" textLength="12" x="636.5" y="520.2373">&#160;&#160;&#160;</text><line style="stroke:#000000;stroke-width:1.0;" x1="631.5" x2="653.5" y1="525.5391" y2="525.5391"/><text fill="#000000" font-family="sans-serif" font-size="14" lengthAdjust="spacing" textLength="12" x="636.5" y="540.5342">&#160;&#160;&#160;</text><line style="stroke:#000000;stroke-width:1.0;" x1="631.5" x2="653.5" y1="545.8359" y2="545.8359"/><text fill="#000000" font-family="sans-serif" font-size="14" lengthAdjust="spacing" textLength="12" x="636.5" y="560.8311">&#160;&#160;&#160;</text><rect fill="none" height="223.2656" rx="5" ry="5" style="stroke:#000000;stroke-width:1.5;" width="22" x="631.5" y="342.8672"/><rect fill="#F1F1F1" height="40.5938" rx="5" ry="5" style="stroke:#F1F1F1;stroke-width:1.5;" width="246" x="1058.5" y="89"/><text fill="#000000" font-family="sans-serif" font-size="14" font-weight="bold" lengthAdjust="spacing" textLength="44" x="1063.5" y="103.9951">name</text><text fill="#000000" font-family="sans-serif" font-size="14" lengthAdjust="spacing" textLength="108" x="1117.5" y="103.9951">Checkout code</text><line style="stroke:#000000;stroke-width:1.0;" x1="1112.5" x2="1112.5" y1="89" y2="109.2969"/><line style="stroke:#000000;stroke-width:1.0;" x1="1058.5" x2="1304.5" y1="109.2969" y2="109.2969"/><text fill="#000000" font-family="sans-serif" font-size="14" font-weight="bold" lengthAdjust="spacing" textLength="37" x="1063.5" y="124.292">uses</text><text fill="#000000" font-family="sans-serif" font-size="14" lengthAdjust="spacing" textLength="182" x="1117.5" y="124.292">actions/checkout@v3.5.2</text><line style="stroke:#000000;stroke-width:1.0;" x1="1112.5" x2="1112.5" y1="109.2969" y2="129.5938"/><rect fill="none" height="40.5938" rx="5" ry="5" style="stroke:#000000;stroke-width:1.5;" width="246" x="1058.5" y="89"/><rect fill="#F1F1F1" height="60.8906" rx="5" ry="5" style="stroke:#F1F1F1;stroke-width:1.5;" width="278" x="1042.5" y="148"/><text fill="#000000" font-family="sans-serif" font-size="14" font-weight="bold" lengthAdjust="spacing" textLength="44" x="1047.5" y="162.9951">name</text><text fill="#000000" font-family="sans-serif" font-size="14" lengthAdjust="spacing" textLength="102" x="1101.5" y="162.9951">Set up Python</text><line style="stroke:#000000;stroke-width:1.0;" x1="1096.5" x2="1096.5" y1="148" y2="168.2969"/><line style="stroke:#000000;stroke-width:1.0;" x1="1042.5" x2="1320.5" y1="168.2969" y2="168.2969"/><text fill="#000000" font-family="sans-serif" font-size="14" font-weight="bold" lengthAdjust="spacing" textLength="37" x="1047.5" y="183.292">uses</text><text fill="#000000" font-family="sans-serif" font-size="14" lengthAdjust="spacing" textLength="214" x="1101.5" y="183.292">actions/setup-python@v4.6.0</text><line style="stroke:#000000;stroke-width:1.0;" x1="1096.5" x2="1096.5" y1="168.2969" y2="188.5938"/><line style="stroke:#000000;stroke-width:1.0;" x1="1042.5" x2="1320.5" y1="188.5938" y2="188.5938"/><text fill="#000000" font-family="sans-serif" font-size="14" font-weight="bold" lengthAdjust="spacing" textLength="36" x="1047.5" y="203.5889">with</text><text fill="#000000" font-family="sans-serif" font-size="14" lengthAdjust="spacing" textLength="12" x="1101.5" y="203.5889">&#160;&#160;&#160;</text><line style="stroke:#000000;stroke-width:1.0;" x1="1096.5" x2="1096.5" y1="188.5938" y2="208.8906"/><rect fill="none" height="60.8906" rx="5" ry="5" style="stroke:#000000;stroke-width:1.5;" width="278" x="1042.5" y="148"/><rect fill="#F1F1F1" height="20.2969" rx="5" ry="5" style="stroke:#F1F1F1;stroke-width:1.5;" width="195" x="1998.5" y="188.3516"/><text fill="#000000" font-family="sans-serif" font-size="14" font-weight="bold" lengthAdjust="spacing" textLength="122" x="2003.5" y="203.3467">python-version</text><text fill="#000000" font-family="sans-serif" font-size="14" lengthAdjust="spacing" textLength="53" x="2135.5" y="203.3467">'3.11.2'</text><line style="stroke:#000000;stroke-width:1.0;" x1="2130.5" x2="2130.5" y1="188.3516" y2="208.6484"/><rect fill="none" height="20.2969" rx="5" ry="5" style="stroke:#000000;stroke-width:1.5;" width="195" x="1998.5" y="188.3516"/><rect fill="#F1F1F1" height="60.8906" rx="5" ry="5" style="stroke:#F1F1F1;stroke-width:1.5;" width="208" x="1077.5" y="227"/><text fill="#000000" font-family="sans-serif" font-size="14" font-weight="bold" lengthAdjust="spacing" textLength="44" x="1082.5" y="241.9951">name</text><text fill="#000000" font-family="sans-serif" font-size="14" lengthAdjust="spacing" textLength="144" x="1136.5" y="241.9951">Cache pip packages</text><line style="stroke:#000000;stroke-width:1.0;" x1="1131.5" x2="1131.5" y1="227" y2="247.2969"/><line style="stroke:#000000;stroke-width:1.0;" x1="1077.5" x2="1285.5" y1="247.2969" y2="247.2969"/><text fill="#000000" font-family="sans-serif" font-size="14" font-weight="bold" lengthAdjust="spacing" textLength="37" x="1082.5" y="262.292">uses</text><text fill="#000000" font-family="sans-serif" font-size="14" lengthAdjust="spacing" textLength="130" x="1136.5" y="262.292">actions/cache@v3</text><line style="stroke:#000000;stroke-width:1.0;" x1="1131.5" x2="1131.5" y1="247.2969" y2="267.5938"/><line style="stroke:#000000;stroke-width:1.0;" x1="1077.5" x2="1285.5" y1="267.5938" y2="267.5938"/><text fill="#000000" font-family="sans-serif" font-size="14" font-weight="bold" lengthAdjust="spacing" textLength="36" x="1082.5" y="282.5889">with</text><text fill="#000000" font-family="sans-serif" font-size="14" lengthAdjust="spacing" textLength="12" x="1136.5" y="282.5889">&#160;&#160;&#160;</text><line style="stroke:#000000;stroke-width:1.0;" x1="1131.5" x2="1131.5" y1="267.5938" y2="287.8906"/><rect fill="none" height="60.8906" rx="5" ry="5" style="stroke:#000000;stroke-width:1.5;" width="208" x="1077.5" y="227"/><rect fill="#F1F1F1" height="60.8906" rx="5" ry="5" style="stroke:#F1F1F1;stroke-width:1.5;" width="555" x="1818.5" y="247"/><text fill="#000000" font-family="sans-serif" font-size="14" font-weight="bold" lengthAdjust="spacing" textLength="38" x="1823.5" y="261.9951">path</text><text fill="#000000" font-family="sans-serif" font-size="14" lengthAdjust="spacing" textLength="81" x="1934.5" y="261.9951">/.cache/pip</text><line style="stroke:#000000;stroke-width:1.0;" x1="1929.5" x2="1929.5" y1="247" y2="267.2969"/><line style="stroke:#000000;stroke-width:1.0;" x1="1818.5" x2="2373.5" y1="267.2969" y2="267.2969"/><text fill="#000000" font-family="sans-serif" font-size="14" font-weight="bold" lengthAdjust="spacing" textLength="27" x="1823.5" y="282.292">key</text><text fill="#000000" font-family="sans-serif" font-size="14" lengthAdjust="spacing" textLength="434" x="1934.5" y="282.292">${{ runner.os }}-pip-${{ hashFiles('**/requirements.txt') }}</text><line style="stroke:#000000;stroke-width:1.0;" x1="1929.5" x2="1929.5" y1="267.2969" y2="287.5938"/><line style="stroke:#000000;stroke-width:1.0;" x1="1818.5" x2="2373.5" y1="287.5938" y2="287.5938"/><text fill="#000000" font-family="sans-serif" font-size="14" font-weight="bold" lengthAdjust="spacing" textLength="101" x="1823.5" y="302.5889">restore-keys</text><text fill="#000000" font-family="sans-serif" font-size="14" lengthAdjust="spacing" textLength="156" x="1934.5" y="302.5889">${{ runner.os }}-pip-</text><line style="stroke:#000000;stroke-width:1.0;" x1="1929.5" x2="1929.5" y1="287.5938" y2="307.8906"/><rect fill="none" height="60.8906" rx="5" ry="5" style="stroke:#000000;stroke-width:1.5;" width="555" x="1818.5" y="247"/><rect fill="#F1F1F1" height="60.8906" rx="5" ry="5" style="stroke:#F1F1F1;stroke-width:1.5;" width="917" x="723" y="306"/><text fill="#000000" font-family="sans-serif" font-size="14" font-weight="bold" lengthAdjust="spacing" textLength="44" x="728" y="320.9951">name</text><text fill="#000000" font-family="sans-serif" font-size="14" lengthAdjust="spacing" textLength="148" x="882" y="320.9951">Install dependencies</text><line style="stroke:#000000;stroke-width:1.0;" x1="877" x2="877" y1="306" y2="326.2969"/><line style="stroke:#000000;stroke-width:1.0;" x1="723" x2="1640" y1="326.2969" y2="326.2969"/><text fill="#000000" font-family="sans-serif" font-size="14" font-weight="bold" lengthAdjust="spacing" textLength="144" x="728" y="341.292">working-directory</text><text fill="#000000" font-family="sans-serif" font-size="14" lengthAdjust="spacing" textLength="72" x="882" y="341.292">./flask-api</text><line style="stroke:#000000;stroke-width:1.0;" x1="877" x2="877" y1="326.2969" y2="346.5938"/><line style="stroke:#000000;stroke-width:1.0;" x1="723" x2="1640" y1="346.5938" y2="346.5938"/><text fill="#000000" font-family="sans-serif" font-size="14" font-weight="bold" lengthAdjust="spacing" textLength="27" x="728" y="361.5889">run</text><text fill="#000000" font-family="sans-serif" font-size="14" lengthAdjust="spacing" textLength="151" x="882" y="361.5889">python -m pip install</text><text fill="#000000" font-family="sans-serif" font-size="14" lengthAdjust="spacing" text-decoration="line-through" textLength="162" x="1037" y="361.5889">upgrade pip pip install</text><text fill="#000000" font-family="sans-serif" font-size="14" lengthAdjust="spacing" textLength="432" x="1203" y="361.5889">no-cache-dir -r requirements.txt &amp;&amp; python setup.py install</text><line style="stroke:#000000;stroke-width:1.0;" x1="877" x2="877" y1="346.5938" y2="366.8906"/><rect fill="none" height="60.8906" rx="5" ry="5" style="stroke:#000000;stroke-width:1.5;" width="917" x="723" y="306"/><rect fill="#F1F1F1" height="40.5938" rx="5" ry="5" style="stroke:#F1F1F1;stroke-width:1.5;" width="282" x="1040.5" y="385"/><text fill="#000000" font-family="sans-serif" font-size="14" font-weight="bold" lengthAdjust="spacing" textLength="44" x="1045.5" y="399.9951">name</text><text fill="#000000" font-family="sans-serif" font-size="14" lengthAdjust="spacing" textLength="218" x="1099.5" y="399.9951">Install coverage dependencies</text><line style="stroke:#000000;stroke-width:1.0;" x1="1094.5" x2="1094.5" y1="385" y2="405.2969"/><line style="stroke:#000000;stroke-width:1.0;" x1="1040.5" x2="1322.5" y1="405.2969" y2="405.2969"/><text fill="#000000" font-family="sans-serif" font-size="14" font-weight="bold" lengthAdjust="spacing" textLength="27" x="1045.5" y="420.292">run</text><text fill="#000000" font-family="sans-serif" font-size="14" lengthAdjust="spacing" textLength="154" x="1099.5" y="420.292">pip install pytest-cov</text><line style="stroke:#000000;stroke-width:1.0;" x1="1094.5" x2="1094.5" y1="405.2969" y2="425.5938"/><rect fill="none" height="40.5938" rx="5" ry="5" style="stroke:#000000;stroke-width:1.5;" width="282" x="1040.5" y="385"/><rect fill="#F1F1F1" height="81.1875" rx="5" ry="5" style="stroke:#F1F1F1;stroke-width:1.5;" width="365" x="999" y="443.9063"/><text fill="#000000" font-family="sans-serif" font-size="14" font-weight="bold" lengthAdjust="spacing" textLength="44" x="1004" y="458.9014">name</text><text fill="#000000" font-family="sans-serif" font-size="14" lengthAdjust="spacing" textLength="104" x="1158" y="458.9014">Start Flask API</text><line style="stroke:#000000;stroke-width:1.0;" x1="1153" x2="1153" y1="443.9063" y2="464.2031"/><line style="stroke:#000000;stroke-width:1.0;" x1="999" x2="1364" y1="464.2031" y2="464.2031"/><text fill="#000000" font-family="sans-serif" font-size="14" font-weight="bold" lengthAdjust="spacing" textLength="144" x="1004" y="479.1982">working-directory</text><text fill="#000000" font-family="sans-serif" font-size="14" lengthAdjust="spacing" textLength="72" x="1158" y="479.1982">./flask-api</text><line style="stroke:#000000;stroke-width:1.0;" x1="1153" x2="1153" y1="464.2031" y2="484.5"/><line style="stroke:#000000;stroke-width:1.0;" x1="999" x2="1364" y1="484.5" y2="484.5"/><text fill="#000000" font-family="sans-serif" font-size="14" font-weight="bold" lengthAdjust="spacing" textLength="28" x="1004" y="499.4951">env</text><text fill="#000000" font-family="sans-serif" font-size="14" lengthAdjust="spacing" textLength="12" x="1158" y="499.4951">&#160;&#160;&#160;</text><line style="stroke:#000000;stroke-width:1.0;" x1="1153" x2="1153" y1="484.5" y2="504.7969"/><line style="stroke:#000000;stroke-width:1.0;" x1="999" x2="1364" y1="504.7969" y2="504.7969"/><text fill="#000000" font-family="sans-serif" font-size="14" font-weight="bold" lengthAdjust="spacing" textLength="27" x="1004" y="519.792">run</text><text fill="#000000" font-family="sans-serif" font-size="14" lengthAdjust="spacing" textLength="201" x="1158" y="519.792">python service/service.py &amp;</text><line style="stroke:#000000;stroke-width:1.0;" x1="1153" x2="1153" y1="504.7969" y2="525.0938"/><rect fill="none" height="81.1875" rx="5" ry="5" style="stroke:#000000;stroke-width:1.5;" width="365" x="999" y="443.9063"/><rect fill="#F1F1F1" height="20.2969" rx="5" ry="5" style="stroke:#F1F1F1;stroke-width:1.5;" width="838" x="1677" y="484.3516"/><text fill="#000000" font-family="sans-serif" font-size="14" font-weight="bold" lengthAdjust="spacing" textLength="117" x="1682" y="499.3467">MONGODB_URI</text><text fill="#000000" font-family="sans-serif" font-size="14" lengthAdjust="spacing" textLength="701" x="1809" y="499.3467">mongodb://dsti-devops:dsti-devops@localhost:27017/avocado_db?retryWrites=true&amp;w=majority</text><line style="stroke:#000000;stroke-width:1.0;" x1="1804" x2="1804" y1="484.3516" y2="504.6484"/><rect fill="none" height="20.2969" rx="5" ry="5" style="stroke:#000000;stroke-width:1.5;" width="838" x="1677" y="484.3516"/><rect fill="#F1F1F1" height="40.5938" rx="5" ry="5" style="stroke:#F1F1F1;stroke-width:1.5;" width="230" x="1066.5" y="543"/><text fill="#000000" font-family="sans-serif" font-size="14" font-weight="bold" lengthAdjust="spacing" textLength="44" x="1071.5" y="557.9951">name</text><text fill="#000000" font-family="sans-serif" font-size="14" lengthAdjust="spacing" textLength="166" x="1125.5" y="557.9951">Wait for API to start up</text><line style="stroke:#000000;stroke-width:1.0;" x1="1120.5" x2="1120.5" y1="543" y2="563.2969"/><line style="stroke:#000000;stroke-width:1.0;" x1="1066.5" x2="1296.5" y1="563.2969" y2="563.2969"/><text fill="#000000" font-family="sans-serif" font-size="14" font-weight="bold" lengthAdjust="spacing" textLength="27" x="1071.5" y="578.292">run</text><text fill="#000000" font-family="sans-serif" font-size="14" lengthAdjust="spacing" textLength="52" x="1125.5" y="578.292">sleep 5</text><line style="stroke:#000000;stroke-width:1.0;" x1="1120.5" x2="1120.5" y1="563.2969" y2="583.5938"/><rect fill="none" height="40.5938" rx="5" ry="5" style="stroke:#000000;stroke-width:1.5;" width="230" x="1066.5" y="543"/><rect fill="#F1F1F1" height="40.5938" rx="5" ry="5" style="stroke:#F1F1F1;stroke-width:1.5;" width="210" x="1076.5" y="602"/><text fill="#000000" font-family="sans-serif" font-size="14" font-weight="bold" lengthAdjust="spacing" textLength="44" x="1081.5" y="616.9951">name</text><text fill="#000000" font-family="sans-serif" font-size="14" lengthAdjust="spacing" textLength="146" x="1135.5" y="616.9951">Test if API is running</text><line style="stroke:#000000;stroke-width:1.0;" x1="1130.5" x2="1130.5" y1="602" y2="622.2969"/><line style="stroke:#000000;stroke-width:1.0;" x1="1076.5" x2="1286.5" y1="622.2969" y2="622.2969"/><text fill="#000000" font-family="sans-serif" font-size="14" font-weight="bold" lengthAdjust="spacing" textLength="27" x="1081.5" y="637.292">run</text><text fill="#000000" font-family="sans-serif" font-size="14" lengthAdjust="spacing" textLength="5" x="1135.5" y="637.292">|</text><line style="stroke:#000000;stroke-width:1.0;" x1="1130.5" x2="1130.5" y1="622.2969" y2="642.5938"/><rect fill="none" height="40.5938" rx="5" ry="5" style="stroke:#000000;stroke-width:1.5;" width="210" x="1076.5" y="602"/><rect fill="#F1F1F1" height="40.5938" rx="5" ry="5" style="stroke:#F1F1F1;stroke-width:1.5;" width="239" x="1062" y="661"/><text fill="#000000" font-family="sans-serif" font-size="14" font-weight="bold" lengthAdjust="spacing" textLength="44" x="1067" y="675.9951">name</text><text fill="#000000" font-family="sans-serif" font-size="14" lengthAdjust="spacing" textLength="175" x="1121" y="675.9951">Print directory structure</text><line style="stroke:#000000;stroke-width:1.0;" x1="1116" x2="1116" y1="661" y2="681.2969"/><line style="stroke:#000000;stroke-width:1.0;" x1="1062" x2="1301" y1="681.2969" y2="681.2969"/><text fill="#000000" font-family="sans-serif" font-size="14" font-weight="bold" lengthAdjust="spacing" textLength="27" x="1067" y="696.292">run</text><text fill="#000000" font-family="sans-serif" font-size="14" lengthAdjust="spacing" textLength="91" x="1121" y="696.292">find . -type f</text><line style="stroke:#000000;stroke-width:1.0;" x1="1116" x2="1116" y1="681.2969" y2="701.5938"/><rect fill="none" height="40.5938" rx="5" ry="5" style="stroke:#000000;stroke-width:1.5;" width="239" x="1062" y="661"/><rect fill="#F1F1F1" height="60.8906" rx="5" ry="5" style="stroke:#F1F1F1;stroke-width:1.5;" width="440" x="961.5" y="720"/><text fill="#000000" font-family="sans-serif" font-size="14" font-weight="bold" lengthAdjust="spacing" textLength="44" x="966.5" y="734.9951">name</text><text fill="#000000" font-family="sans-serif" font-size="14" lengthAdjust="spacing" textLength="173" x="1120.5" y="734.9951">Run tests with coverage</text><line style="stroke:#000000;stroke-width:1.0;" x1="1115.5" x2="1115.5" y1="720" y2="740.2969"/><line style="stroke:#000000;stroke-width:1.0;" x1="961.5" x2="1401.5" y1="740.2969" y2="740.2969"/><text fill="#000000" font-family="sans-serif" font-size="14" font-weight="bold" lengthAdjust="spacing" textLength="144" x="966.5" y="755.292">working-directory</text><text fill="#000000" font-family="sans-serif" font-size="14" lengthAdjust="spacing" textLength="72" x="1120.5" y="755.292">./flask-api</text><line style="stroke:#000000;stroke-width:1.0;" x1="1115.5" x2="1115.5" y1="740.2969" y2="760.5938"/><line style="stroke:#000000;stroke-width:1.0;" x1="961.5" x2="1401.5" y1="760.5938" y2="760.5938"/><text fill="#000000" font-family="sans-serif" font-size="14" font-weight="bold" lengthAdjust="spacing" textLength="27" x="966.5" y="775.5889">run</text><text fill="#000000" font-family="sans-serif" font-size="14" lengthAdjust="spacing" textLength="66" x="1120.5" y="775.5889">pytest -v</text><text fill="#000000" font-family="sans-serif" font-size="14" lengthAdjust="spacing" text-decoration="line-through" textLength="87" x="1190.5" y="775.5889">cov=. tests/</text><text fill="#000000" font-family="sans-serif" font-size="14" lengthAdjust="spacing" textLength="115" x="1281.5" y="775.5889">cov-report=xml</text><line style="stroke:#000000;stroke-width:1.0;" x1="1115.5" x2="1115.5" y1="760.5938" y2="780.8906"/><rect fill="none" height="60.8906" rx="5" ry="5" style="stroke:#000000;stroke-width:1.5;" width="440" x="961.5" y="720"/><rect fill="#F1F1F1" height="60.8906" rx="5" ry="5" style="stroke:#F1F1F1;stroke-width:1.5;" width="299" x="1032" y="799"/><text fill="#000000" font-family="sans-serif" font-size="14" font-weight="bold" lengthAdjust="spacing" textLength="44" x="1037" y="813.9951">name</text><text fill="#000000" font-family="sans-serif" font-size="14" lengthAdjust="spacing" textLength="205" x="1091" y="813.9951">Upload coverage to Codecov</text><line style="stroke:#000000;stroke-width:1.0;" x1="1086" x2="1086" y1="799" y2="819.2969"/><line style="stroke:#000000;stroke-width:1.0;" x1="1032" x2="1331" y1="819.2969" y2="819.2969"/><text fill="#000000" font-family="sans-serif" font-size="14" font-weight="bold" lengthAdjust="spacing" textLength="37" x="1037" y="834.292">uses</text><text fill="#000000" font-family="sans-serif" font-size="14" lengthAdjust="spacing" textLength="235" x="1091" y="834.292">codecov/codecov-action@v3.1.3</text><line style="stroke:#000000;stroke-width:1.0;" x1="1086" x2="1086" y1="819.2969" y2="839.5938"/><line style="stroke:#000000;stroke-width:1.0;" x1="1032" x2="1331" y1="839.5938" y2="839.5938"/><text fill="#000000" font-family="sans-serif" font-size="14" font-weight="bold" lengthAdjust="spacing" textLength="36" x="1037" y="854.5889">with</text><text fill="#000000" font-family="sans-serif" font-size="14" lengthAdjust="spacing" textLength="12" x="1091" y="854.5889">&#160;&#160;&#160;</text><line style="stroke:#000000;stroke-width:1.0;" x1="1086" x2="1086" y1="839.5938" y2="859.8906"/><rect fill="none" height="60.8906" rx="5" ry="5" style="stroke:#000000;stroke-width:1.5;" width="299" x="1032" y="799"/><rect fill="#F1F1F1" height="101.4844" rx="5" ry="5" style="stroke:#F1F1F1;stroke-width:1.5;" width="372" x="1910" y="798.7578"/><text fill="#000000" font-family="sans-serif" font-size="14" font-weight="bold" lengthAdjust="spacing" textLength="46" x="1915" y="813.7529">token</text><text fill="#000000" font-family="sans-serif" font-size="14" lengthAdjust="spacing" textLength="238" x="2039" y="813.7529">${{ secrets.CODECOV_TOKEN }}</text><line style="stroke:#000000;stroke-width:1.0;" x1="2034" x2="2034" y1="798.7578" y2="819.0547"/><line style="stroke:#000000;stroke-width:1.0;" x1="1910" x2="2282" y1="819.0547" y2="819.0547"/><text fill="#000000" font-family="sans-serif" font-size="14" font-weight="bold" lengthAdjust="spacing" textLength="114" x="1915" y="834.0498">fail_ci_if_error</text><text fill="#000000" font-family="sans-serif" font-size="14" lengthAdjust="spacing" textLength="30" x="2039" y="834.0498">true</text><line style="stroke:#000000;stroke-width:1.0;" x1="2034" x2="2034" y1="819.0547" y2="839.3516"/><line style="stroke:#000000;stroke-width:1.0;" x1="1910" x2="2282" y1="839.3516" y2="839.3516"/><text fill="#000000" font-family="sans-serif" font-size="14" font-weight="bold" lengthAdjust="spacing" textLength="41" x="1915" y="854.3467">flags</text><text fill="#000000" font-family="sans-serif" font-size="14" lengthAdjust="spacing" textLength="65" x="2039" y="854.3467">unittests</text><line style="stroke:#000000;stroke-width:1.0;" x1="2034" x2="2034" y1="839.3516" y2="859.6484"/><line style="stroke:#000000;stroke-width:1.0;" x1="1910" x2="2282" y1="859.6484" y2="859.6484"/><text fill="#000000" font-family="sans-serif" font-size="14" font-weight="bold" lengthAdjust="spacing" textLength="44" x="1915" y="874.6436">name</text><text fill="#000000" font-family="sans-serif" font-size="14" lengthAdjust="spacing" textLength="129" x="2039" y="874.6436">codecov-umbrella</text><line style="stroke:#000000;stroke-width:1.0;" x1="2034" x2="2034" y1="859.6484" y2="879.9453"/><line style="stroke:#000000;stroke-width:1.0;" x1="1910" x2="2282" y1="879.9453" y2="879.9453"/><text fill="#000000" font-family="sans-serif" font-size="14" font-weight="bold" lengthAdjust="spacing" textLength="63" x="1915" y="894.9404">verbose</text><text fill="#000000" font-family="sans-serif" font-size="14" lengthAdjust="spacing" textLength="30" x="2039" y="894.9404">true</text><line style="stroke:#000000;stroke-width:1.0;" x1="2034" x2="2034" y1="879.9453" y2="900.2422"/><rect fill="none" height="101.4844" rx="5" ry="5" style="stroke:#000000;stroke-width:1.5;" width="372" x="1910" y="798.7578"/><path d="M329,234.5 L342,234.5 C365.3967,234.5 390.9734,231.4915 413.037,227.9343 " fill="none" style="stroke:#000000;stroke-width:1.0;stroke-dasharray:3.0,3.0;"/><path d="M413.5478,230.9937 L415.3315,227.5512 L412.5262,224.875 L420.6853,226.6573 L413.5478,230.9937 " fill="#000000" style="stroke:#000000;stroke-width:1.0;"/><ellipse cx="329" cy="234.5" fill="#000000" rx="3" ry="3" style="stroke:#000000;stroke-width:1.0;"/><path d="M329,254.5 L342,254.5 C357.2181,254.5 373.4579,254.5 389.0731,254.5 " fill="none" style="stroke:#000000;stroke-width:1.0;stroke-dasharray:3.0,3.0;"/><path d="M389.0731,257.5433 L391.3556,254.5 L389.0731,251.4567 L396.6814,254.5 L389.0731,257.5433 " fill="#000000" style="stroke:#000000;stroke-width:1.0;"/><ellipse cx="329" cy="254.5" fill="#000000" rx="3" ry="3" style="stroke:#000000;stroke-width:1.0;"/><path d="M161,263.5 L174,263.5 C183.3623,263.5 193.13,262.7017 202.7434,261.4325 " fill="none" style="stroke:#000000;stroke-width:1.0;stroke-dasharray:3.0,3.0;"/><path d="M203.1885,264.4989 L205.0433,261.0987 L202.2984,258.3661 L210.4095,260.3198 L203.1885,264.4989 " fill="#000000" style="stroke:#000000;stroke-width:1.0;"/><ellipse cx="161" cy="263.5" fill="#000000" rx="3" ry="3" style="stroke:#000000;stroke-width:1.0;"/><path d="M2094.67,21.5 L2107.67,21.5 C2164.4084,21.5 2422.7458,21.5 2544.5678,21.5 " fill="none" style="stroke:#000000;stroke-width:1.0;stroke-dasharray:3.0,3.0;"/><path d="M2544.5678,24.6293 L2546.9147,21.5 L2544.5678,18.3707 L2552.3909,21.5 L2544.5678,24.6293 " fill="#000000" style="stroke:#000000;stroke-width:1.0;"/><ellipse cx="2094.67" cy="21.5" fill="#000000" rx="3" ry="3" style="stroke:#000000;stroke-width:1.0;"/><path d="M1244,40.5 L1257,40.5 C1586.375,40.5 1988.3414,25.6656 2077.4522,22.2123 " fill="none" style="stroke:#000000;stroke-width:1.0;stroke-dasharray:3.0,3.0;"/><path d="M2077.5713,25.2659 L2079.7424,22.123 L2077.3331,19.1587 L2085.0862,21.9145 L2077.5713,25.2659 " fill="#000000" style="stroke:#000000;stroke-width:1.0;"/><ellipse cx="1244" cy="40.5" fill="#000000" rx="3" ry="3" style="stroke:#000000;stroke-width:1.0;"/><path d="M1244,60.5 L1257,60.5 C1442.9825,60.5 1652.103,65.4784 1814.9794,70.4675 " fill="none" style="stroke:#000000;stroke-width:1.0;stroke-dasharray:3.0,3.0;"/><path d="M1814.8843,73.5558 L1817.2956,70.5388 L1815.0744,67.3792 L1822.7002,70.7051 L1814.8843,73.5558 " fill="#000000" style="stroke:#000000;stroke-width:1.0;"/><ellipse cx="1244" cy="60.5" fill="#000000" rx="3" ry="3" style="stroke:#000000;stroke-width:1.0;"/><path d="M674,192.5 L687,192.5 C739.7093,192.5 681.8055,112.3829 723,79.5 C830.437,-6.2599 1000.6648,5.7368 1100.5329,22.7609 " fill="none" style="stroke:#000000;stroke-width:1.0;stroke-dasharray:3.0,3.0;"/><path d="M1099.9973,25.8248 L1102.8308,23.1627 L1101.0686,19.6971 L1108.1926,24.1001 L1099.9973,25.8248 " fill="#000000" style="stroke:#000000;stroke-width:1.0;"/><ellipse cx="674" cy="192.5" fill="#000000" rx="3" ry="3" style="stroke:#000000;stroke-width:1.0;"/><path d="M550,313.5 L563,313.5 C611.5685,313.5 631.8578,244.3029 638.8636,210.5659 " fill="none" style="stroke:#000000;stroke-width:1.0;stroke-dasharray:3.0,3.0;"/><path d="M641.9634,211.1675 L639.3148,208.241 L635.7638,209.9643 L640.3677,202.8164 L641.9634,211.1675 " fill="#000000" style="stroke:#000000;stroke-width:1.0;"/><ellipse cx="550" cy="313.5" fill="#000000" rx="3" ry="3" style="stroke:#000000;stroke-width:1.0;"/><path d="M642,353.5 L655,353.5 C755.221,353.5 644.0636,200.2518 723,138.5 C772.3537,99.8907 933.9689,97.779 1051.2571,101.8902 " fill="none" style="stroke:#000000;stroke-width:1.0;stroke-dasharray:3.0,3.0;"/><path d="M1051.1453,104.9541 L1053.5551,101.974 L1051.3689,98.8263 L1058.9169,102.1697 L1051.1453,104.9541 " fill="#000000" style="stroke:#000000;stroke-width:1.0;"/><ellipse cx="642" cy="353.5" fill="#000000" rx="3" ry="3" style="stroke:#000000;stroke-width:1.0;"/><path d="M1309,198.5 L1322,198.5 C1561.2838,198.5 1842.2055,198.5 1990.8747,198.5 " fill="none" style="stroke:#000000;stroke-width:1.0;stroke-dasharray:3.0,3.0;"/><path d="M1990.8747,201.6409 L1993.2304,198.5 L1990.8747,195.3591 L1998.7269,198.5 L1990.8747,201.6409 " fill="#000000" style="stroke:#000000;stroke-width:1.0;"/><ellipse cx="1309" cy="198.5" fill="#000000" rx="3" ry="3" style="stroke:#000000;stroke-width:1.0;"/><path d="M642,373.5 L655,373.5 C730.6339,373.5 661.5462,261.5899 723,217.5 C812.3403,153.4031 938.1862,147.0054 1035.3608,154.7647 " fill="none" style="stroke:#000000;stroke-width:1.0;stroke-dasharray:3.0,3.0;"/><path d="M1035.107,157.7789 L1037.6214,154.9551 L1035.6146,151.7506 L1042.8961,155.3992 L1035.107,157.7789 " fill="#000000" style="stroke:#000000;stroke-width:1.0;"/><ellipse cx="642" cy="373.5" fill="#000000" rx="3" ry="3" style="stroke:#000000;stroke-width:1.0;"/><path d="M1274,277.5 L1287,277.5 C1460.9232,277.5 1655.8919,277.5 1810.788,277.5 " fill="none" style="stroke:#000000;stroke-width:1.0;stroke-dasharray:3.0,3.0;"/><path d="M1810.788,280.6241 L1813.1311,277.5 L1810.788,274.3759 L1818.5982,277.5 L1810.788,280.6241 " fill="#000000" style="stroke:#000000;stroke-width:1.0;"/><ellipse cx="1274" cy="277.5" fill="#000000" rx="3" ry="3" style="stroke:#000000;stroke-width:1.0;"/><path d="M642,393.5 L655,393.5 C707.6493,393.5 677.3666,322.7592 723,296.5 C829.0042,235.5012 972.2323,233.5602 1070.1238,241.8275 " fill="none" style="stroke:#000000;stroke-width:1.0;stroke-dasharray:3.0,3.0;"/><path d="M1069.8574,244.8503 L1072.3909,242.0273 L1070.3902,238.8047 L1077.6809,242.4935 L1069.8574,244.8503 " fill="#000000" style="stroke:#000000;stroke-width:1.0;"/><ellipse cx="642" cy="393.5" fill="#000000" rx="3" ry="3" style="stroke:#000000;stroke-width:1.0;"/><path d="M642,413.5 L655,413.5 C689.6211,413.5 689.8974,385.6409 723,375.5 C730.3679,373.2429 737.8315,371.1005 745.3733,369.0675 " fill="none" style="stroke:#000000;stroke-width:1.0;stroke-dasharray:3.0,3.0;"/><path d="M746.172,372.0944 L747.6434,368.4685 L744.5746,366.0407 L752.9404,367.0708 L746.172,372.0944 " fill="#000000" style="stroke:#000000;stroke-width:1.0;"/><ellipse cx="642" cy="413.5" fill="#000000" rx="3" ry="3" style="stroke:#000000;stroke-width:1.0;"/><path d="M642,434.5 L655,434.5 C782.8315,434.5 927.8732,425.8553 1033.2266,418.0056 " fill="none" style="stroke:#000000;stroke-width:1.0;stroke-dasharray:3.0,3.0;"/><path d="M1033.4521,421.012 L1035.4815,417.8365 L1033.0012,414.9991 L1040.7427,417.4419 L1033.4521,421.012 " fill="#000000" style="stroke:#000000;stroke-width:1.0;"/><ellipse cx="642" cy="434.5" fill="#000000" rx="3" ry="3" style="stroke:#000000;stroke-width:1.0;"/><path d="M1353,494.5 L1366,494.5 C1464.284,494.5 1570.0164,494.5 1669.6499,494.5 " fill="none" style="stroke:#000000;stroke-width:1.0;stroke-dasharray:3.0,3.0;"/><path d="M1669.6499,497.6097 L1671.9822,494.5 L1669.6499,491.3903 L1677.4242,494.5 L1669.6499,497.6097 " fill="#000000" style="stroke:#000000;stroke-width:1.0;"/><ellipse cx="1353" cy="494.5" fill="#000000" rx="3" ry="3" style="stroke:#000000;stroke-width:1.0;"/><path d="M642,454.5 L655,454.5 C766.7661,454.5 891.6742,461.3348 991.7155,468.4797 " fill="none" style="stroke:#000000;stroke-width:1.0;stroke-dasharray:3.0,3.0;"/><path d="M991.4919,471.5867 L994.0457,468.6474 L991.939,465.3727 L999.483,469.0386 L991.4919,471.5867 " fill="#000000" style="stroke:#000000;stroke-width:1.0;"/><ellipse cx="642" cy="454.5" fill="#000000" rx="3" ry="3" style="stroke:#000000;stroke-width:1.0;"/><path d="M642,474.5 L655,474.5 C695.305,474.5 685.7693,519.0608 723,534.5 C830.304,578.998 963.9434,582.2163 1059.1138,576.7416 " fill="none" style="stroke:#000000;stroke-width:1.0;stroke-dasharray:3.0,3.0;"/><path d="M1059.2991,579.8 L1061.4076,576.6026 L1058.9284,573.6832 L1066.7598,576.2783 L1059.2991,579.8 " fill="#000000" style="stroke:#000000;stroke-width:1.0;"/><ellipse cx="642" cy="474.5" fill="#000000" rx="3" ry="3" style="stroke:#000000;stroke-width:1.0;"/><path d="M642,495.5 L655,495.5 C707.6493,495.5 677.1123,566.6879 723,592.5 C829.0999,652.1818 971.6708,651.316 1069.3998,640.9133 " fill="none" style="stroke:#000000;stroke-width:1.0;stroke-dasharray:3.0,3.0;"/><path d="M1069.7324,643.9314 L1071.6634,640.6638 L1069.0671,637.8951 L1076.9451,640.0817 L1069.7324,643.9314 " fill="#000000" style="stroke:#000000;stroke-width:1.0;"/><ellipse cx="642" cy="495.5" fill="#000000" rx="3" ry="3" style="stroke:#000000;stroke-width:1.0;"/><path d="M642,515.5 L655,515.5 C722.9768,515.5 666.3891,614.8696 723,652.5 C826.6287,721.384 974.2812,717.012 1073.6706,703.1297 " fill="none" style="stroke:#000000;stroke-width:1.0;stroke-dasharray:3.0,3.0;"/><path d="M1074.1119,706.1969 L1075.971,702.7987 L1073.2293,700.0625 L1081.3386,702.0265 L1074.1119,706.1969 " fill="#000000" style="stroke:#000000;stroke-width:1.0;"/><ellipse cx="642" cy="515.5" fill="#000000" rx="3" ry="3" style="stroke:#000000;stroke-width:1.0;"/><path d="M642,535.5 L655,535.5 C738.8576,535.5 655.9151,661.1839 723,711.5 C788.1694,760.3794 874.1908,776.478 954.0719,778.1668 " fill="none" style="stroke:#000000;stroke-width:1.0;stroke-dasharray:3.0,3.0;"/><path d="M954.0243,781.251 L956.385,778.2025 L954.1195,775.0827 L961.7823,778.2859 L954.0243,781.251 " fill="#000000" style="stroke:#000000;stroke-width:1.0;"/><ellipse cx="642" cy="535.5" fill="#000000" rx="3" ry="3" style="stroke:#000000;stroke-width:1.0;"/><path d="M1320,849.5 L1333,849.5 C1526.8066,849.5 1748.3222,849.5 1902.4682,849.5 " fill="none" style="stroke:#000000;stroke-width:1.0;stroke-dasharray:3.0,3.0;"/><path d="M1902.4682,852.5995 L1904.7928,849.5 L1902.4682,846.4005 L1910.2169,849.5 L1902.4682,852.5995 " fill="#000000" style="stroke:#000000;stroke-width:1.0;"/><ellipse cx="1320" cy="849.5" fill="#000000" rx="3" ry="3" style="stroke:#000000;stroke-width:1.0;"/><path d="M642,555.5 L655,555.5 C763.7291,555.5 638.9384,721.5386 723,790.5 C805.7544,858.3891 927.5216,865.8439 1024.7024,857.5561 " fill="none" style="stroke:#000000;stroke-width:1.0;stroke-dasharray:3.0,3.0;"/><path d="M1024.974,860.5738 L1026.9656,857.3524 L1024.4308,854.5385 L1032.2465,856.8771 L1024.974,860.5738 " fill="#000000" style="stroke:#000000;stroke-width:1.0;"/><ellipse cx="642" cy="555.5" fill="#000000" rx="3" ry="3" style="stroke:#000000;stroke-width:1.0;"/><path d="M550,333.5 L563,333.5 C597.9858,333.5 618.2978,369.4056 629.5412,402.0984 " fill="none" style="stroke:#000000;stroke-width:1.0;stroke-dasharray:3.0,3.0;"/><path d="M626.6029,403.0575 L630.2605,404.3021 L632.4794,401.1393 L631.939,409.4441 L626.6029,403.0575 " fill="#000000" style="stroke:#000000;stroke-width:1.0;"/><ellipse cx="550" cy="333.5" fill="#000000" rx="3" ry="3" style="stroke:#000000;stroke-width:1.0;"/><path d="M297,303.5 L310,303.5 C329.6819,303.5 350.7031,304.2678 370.8102,305.378 " fill="none" style="stroke:#000000;stroke-width:1.0;stroke-dasharray:3.0,3.0;"/><path d="M370.6337,308.4407 L373.1073,305.5104 L370.9868,302.3153 L378.467,305.8193 L370.6337,308.4407 " fill="#000000" style="stroke:#000000;stroke-width:1.0;"/><ellipse cx="297" cy="303.5" fill="#000000" rx="3" ry="3" style="stroke:#000000;stroke-width:1.0;"/><path d="M161,283.5 L174,283.5 C194.333,283.5 216.5376,287.4487 234.936,291.837 " fill="none" style="stroke:#000000;stroke-width:1.0;stroke-dasharray:3.0,3.0;"/><path d="M234.177,294.8912 L237.2266,292.4062 L235.6949,288.7828 L242.5714,293.7344 L234.177,294.8912 " fill="#000000" style="stroke:#000000;stroke-width:1.0;"/><ellipse cx="161" cy="283.5" fill="#000000" rx="3" ry="3" style="stroke:#000000;stroke-width:1.0;"/><!--SRC=[bLLPRzj647xdhnW4XOy0Iyfsx1G2Z4gMx5IfPGawx8UY45RaIjo8t6Nta2EawM_lx9Aw30P5NaHnvfjxvcDB6whCXkPP86ZEcl2GKRs2zh074wPD44ZH300AgrFt19WhAkAKwIRy2Jdb0lxowYoRAVQtHPCVme8lSgwTrknGoWfDC0BOkHN6aemwdLTffjOyPhe40kHIBENs1O3dT8dPbjARiB5J558PlSS14BZysBZusFI_EpaJwqDGV_3qQJ3hFVKctRjPjprftxN7zqtuvTitJ2HMpEYmX6nryFtxZyn7Wy5aDXtVZvxQ_LeVMzt_-HYsn-ENmQXRvsEhSpxAVXbML7KJA4VPILcyajP0B1DMHRBQpOJ6XakXexX2jDPNuNLu6HoPZva1My1mOr8fQiqrCxOWXGUqrXz2DuSA-CfDkczm2I5hfZHtupwz2YykmilJuu0TYlb0mGieQBp2-Uhwf1qCCwwFHF4D_er2ZuhGsKwrOfkoaxXrWgbGQcmUGGHnmfJgz85dJ9-TldyVkLtcYkLCOCVDLtDwVZWiXKig5IFe4VFwvs28jUwFg-m9FBaiWuGLJ2HCn7nNvwjKAowM9C7GCKR0VCDeuGwIq89N87H_6BDiBP3SDuvNpWcnnLBHnBTpZpr224byarmu80hUrWmd9rllVj1XiTbQrrSKInmmZgskD9_rONpqZ5qaQFDcwnmVxLdePpfpTDF-JF2IfgDU4zvvdaZcpIXAjE4aOMk9rtBmlvN9c6QfH6RoH17HDGeIEKlcl-7PgSsBufZmhL6MdRpUvlIBHC7ctL5vssPvveggfslRoN6DBvGRM4ZbQTP8y1oCjtReJ6UC5N1TYOxC7J43NtXhhls-OM_groEsAeFKc09BtvTutMWqefJHpAGxv568eUB2mAxRcA6oiR6A7KPPS9502CHi2WQBUaSZAppVQt-dknNvwOKlrmN86XSNdTo6fTUeV2MAETw__Pg_MSrfaKcQx3SJczr1CdHRTqWjSIcBgYSfgSQnuaLOppD6hfWu9kREe7lV6JpF9eC_xfyEwM91UJQB-OmlPamfgPhWjcYlpkWISx226r_JJb6MiCt9vdF5iepkr5ZIN6fMUMlXnVdFU33Cg33J_YDKT0l8j8tBg_1cpWozFfkAbP2l0ltc1V8T69wpy-3iq_0HjBGgnlFbE6u-jwu7vy5dkgPkZ0xN1FTsDkcV0tu2Ao7SYpLNKZZY23u_zqiG_2xDk936Wsy-a3jS-J5U15Fmt0-wR45jPj0KoyCDm4bD7iYlmICLI-k_x4m47Oa1t4vCn_y1]--></g></svg>